<svg width="282" height="138" viewBox="0 0 282 138" fill="none" xmlns="http://www.w3.org/2000/svg">
<rect width="282" height="138" fill="#1A535C"/>
<path d="M67.3113 70.2596L65.8263 68.8L66.7302 67.8711L61.7585 62.7623L56.6577 67.8711L61.7585 72.9798L62.6625 72.051L64.1475 73.5106L62.2105 75.5011C61.807 75.6877 61.5808 75.7169 61.1774 75.5011L54.1395 68.3355C54.0254 67.899 54.015 67.7309 54.1395 67.3402L61.1129 60.3074C61.5667 60.0691 61.8212 60.0738 62.2751 60.3074L69.3129 67.3402C69.5485 67.7421 69.5428 67.9598 69.3129 68.3355L67.3113 70.2596Z" fill="white" fill-opacity="0.08"/>
<path d="M56.2122 72.2095L57.7056 73.6601L56.8071 74.5944L61.8081 79.6729L66.8794 74.5331L61.7493 69.4554L60.8507 70.3898L59.3572 68.9392L61.2828 66.9369C61.6851 66.7479 61.9111 66.7173 62.3158 66.9307L69.3949 74.0533C69.5115 74.4892 69.523 74.6572 69.4006 75.0486L62.468 82.1239C62.0155 82.3649 61.761 82.3617 61.3058 82.1309L54.2274 75.141C53.9896 74.7405 53.994 74.5229 54.2217 74.1457L56.2122 72.2095Z" fill="white" fill-opacity="0.08"/>
<path d="M221.686 70.2596L220.201 68.8L221.105 67.8711L216.134 62.7623L211.033 67.8711L216.134 72.9798L217.037 72.051L218.523 73.5106L216.585 75.5011C216.182 75.6877 215.956 75.7169 215.552 75.5011L208.515 68.3355C208.4 67.899 208.39 67.7309 208.515 67.3402L215.488 60.3074C215.942 60.0691 216.196 60.0738 216.65 60.3074L223.688 67.3402C223.924 67.7421 223.918 67.9598 223.688 68.3355L221.686 70.2596Z" fill="white" fill-opacity="0.08"/>
<path d="M210.587 72.2095L212.081 73.6601L211.182 74.5944L216.183 79.6729L221.254 74.5331L216.124 69.4554L215.226 70.3898L213.732 68.9392L215.658 66.9369C216.06 66.7479 216.286 66.7173 216.691 66.9307L223.77 74.0533C223.887 74.4892 223.898 74.6572 223.776 75.0486L216.843 82.1239C216.39 82.3649 216.136 82.3617 215.681 82.1309L208.602 75.141C208.365 74.7405 208.369 74.5229 208.597 74.1457L210.587 72.2095Z" fill="white" fill-opacity="0.08"/>
<path d="M261.824 107.955L260.339 106.496L261.243 105.567L256.271 100.458L251.17 105.567L256.271 110.675L257.175 109.747L258.66 111.206L256.723 113.197C256.32 113.383 256.093 113.413 255.69 113.197L248.652 106.031C248.538 105.595 248.527 105.427 248.652 105.036L255.625 98.003C256.079 97.7647 256.334 97.7695 256.788 98.003L263.825 105.036C264.061 105.438 264.055 105.655 263.825 106.031L261.824 107.955Z" fill="white" fill-opacity="0.08"/>
<path d="M250.725 109.905L252.218 111.356L251.32 112.29L256.321 117.369L261.392 112.229L256.262 107.151L255.363 108.085L253.87 106.635L255.795 104.633C256.198 104.444 256.424 104.413 256.828 104.626L263.907 111.749C264.024 112.185 264.035 112.353 263.913 112.744L256.98 119.82C256.528 120.061 256.274 120.057 255.818 119.827L248.74 112.837C248.502 112.436 248.507 112.219 248.734 111.841L250.725 109.905Z" fill="white" fill-opacity="0.08"/>
<path d="M261.824 28.1292L260.339 26.6695L261.243 25.7406L256.271 20.6318L251.17 25.7406L256.271 30.8494L257.175 29.9206L258.66 31.3802L256.723 33.3707C256.32 33.5572 256.093 33.5864 255.69 33.3707L248.652 26.2051C248.538 25.7685 248.527 25.6005 248.652 25.2098L255.625 18.1769C256.079 17.9386 256.334 17.9434 256.788 18.1769L263.825 25.2098C264.061 25.6117 264.055 25.8294 263.825 26.2051L261.824 28.1292Z" fill="white" fill-opacity="0.08"/>
<path d="M250.725 30.079L252.218 31.5297L251.32 32.464L256.321 37.5425L261.392 32.4027L256.262 27.325L255.363 28.2593L253.87 26.8087L255.795 24.8065C256.198 24.6175 256.424 24.5869 256.828 24.8002L263.907 31.9229C264.024 32.3588 264.035 32.5268 263.913 32.9181L256.98 39.9934C256.528 40.2345 256.274 40.2313 255.818 40.0005L248.74 33.0105C248.502 32.6101 248.507 32.3924 248.734 32.0153L250.725 30.079Z" fill="white" fill-opacity="0.08"/>
<path d="M184.636 28.1292L183.151 26.6695L184.055 25.7406L179.084 20.6318L173.983 25.7406L179.084 30.8494L179.987 29.9206L181.473 31.3802L179.535 33.3707C179.132 33.5572 178.906 33.5864 178.502 33.3707L171.465 26.2051C171.35 25.7685 171.34 25.6005 171.465 25.2098L178.438 18.1769C178.892 17.9386 179.146 17.9434 179.6 18.1769L186.638 25.2098C186.874 25.6117 186.868 25.8294 186.638 26.2051L184.636 28.1292Z" fill="white" fill-opacity="0.08"/>
<path d="M173.537 30.079L175.031 31.5297L174.132 32.464L179.133 37.5425L184.204 32.4027L179.074 27.325L178.176 28.2593L176.682 26.8087L178.608 24.8065C179.01 24.6175 179.236 24.5869 179.641 24.8002L186.72 31.9229C186.837 32.3588 186.848 32.5268 186.726 32.9181L179.793 39.9934C179.34 40.2345 179.086 40.2313 178.631 40.0005L171.552 33.0105C171.315 32.6101 171.319 32.3924 171.547 32.0153L173.537 30.079Z" fill="white" fill-opacity="0.08"/>
<path d="M144.499 70.2596L143.014 68.8L143.918 67.8711L138.946 62.7623L133.845 67.8711L138.946 72.9798L139.85 72.051L141.335 73.5106L139.398 75.5011C138.995 75.6877 138.768 75.7169 138.365 75.5011L131.327 68.3355C131.213 67.899 131.202 67.7309 131.327 67.3402L138.3 60.3074C138.754 60.0691 139.009 60.0738 139.463 60.3074L146.5 67.3402C146.736 67.7421 146.73 67.9598 146.5 68.3355L144.499 70.2596Z" fill="white" fill-opacity="0.08"/>
<path d="M133.4 72.2095L134.893 73.6601L133.995 74.5944L138.996 79.6729L144.067 74.5331L138.937 69.4554L138.038 70.3898L136.545 68.9392L138.47 66.9369C138.873 66.7479 139.099 66.7173 139.503 66.9307L146.582 74.0533C146.699 74.4892 146.71 74.6572 146.588 75.0486L139.655 82.1239C139.203 82.3649 138.948 82.3617 138.493 82.1309L131.415 75.141C131.177 74.7405 131.182 74.5229 131.409 74.1457L133.4 72.2095Z" fill="white" fill-opacity="0.08"/>
<path d="M184.636 107.955L183.151 106.496L184.055 105.567L179.084 100.458L173.983 105.567L179.084 110.675L179.987 109.747L181.473 111.206L179.535 113.197C179.132 113.383 178.906 113.413 178.502 113.197L171.465 106.031C171.35 105.595 171.34 105.427 171.465 105.036L178.438 98.003C178.892 97.7647 179.146 97.7695 179.6 98.003L186.638 105.036C186.874 105.438 186.868 105.655 186.638 106.031L184.636 107.955Z" fill="white" fill-opacity="0.08"/>
<path d="M173.537 109.905L175.031 111.356L174.132 112.29L179.133 117.369L184.204 112.229L179.074 107.151L178.176 108.085L176.682 106.635L178.608 104.633C179.01 104.444 179.236 104.413 179.641 104.626L186.72 111.749C186.837 112.185 186.848 112.353 186.726 112.744L179.793 119.82C179.34 120.061 179.086 120.057 178.631 119.827L171.552 112.837C171.315 112.436 171.319 112.219 171.547 111.841L173.537 109.905Z" fill="white" fill-opacity="0.08"/>
<path d="M107.449 107.955L105.964 106.496L106.868 105.567L101.896 100.458L96.7952 105.567L101.896 110.675L102.8 109.747L104.285 111.206L102.348 113.197C101.945 113.383 101.718 113.413 101.315 113.197L94.277 106.031C94.163 105.595 94.1525 105.427 94.277 105.036L101.25 98.003C101.704 97.7647 101.959 97.7695 102.413 98.003L109.45 105.036C109.686 105.438 109.68 105.655 109.45 106.031L107.449 107.955Z" fill="white" fill-opacity="0.08"/>
<path d="M96.3497 109.905L97.8432 111.356L96.9446 112.29L101.946 117.369L107.017 112.229L101.887 107.151L100.988 108.085L99.4947 106.635L101.42 104.633C101.823 104.444 102.049 104.413 102.453 104.626L109.532 111.749C109.649 112.185 109.66 112.353 109.538 112.744L102.605 119.82C102.153 120.061 101.899 120.057 101.443 119.827L94.365 112.837C94.1271 112.436 94.1315 112.219 94.3592 111.841L96.3497 109.905Z" fill="white" fill-opacity="0.08"/>
<path d="M107.449 28.1292L105.964 26.6695L106.868 25.7406L101.896 20.6318L96.7952 25.7406L101.896 30.8494L102.8 29.9206L104.285 31.3802L102.348 33.3707C101.945 33.5572 101.718 33.5864 101.315 33.3707L94.277 26.2051C94.163 25.7685 94.1525 25.6005 94.277 25.2098L101.25 18.1769C101.704 17.9386 101.959 17.9434 102.413 18.1769L109.45 25.2098C109.686 25.6117 109.68 25.8294 109.45 26.2051L107.449 28.1292Z" fill="white" fill-opacity="0.08"/>
<path d="M96.3497 30.079L97.8432 31.5297L96.9446 32.464L101.946 37.5425L107.017 32.4027L101.887 27.325L100.988 28.2593L99.4947 26.8087L101.42 24.8065C101.823 24.6175 102.049 24.5869 102.453 24.8002L109.532 31.9229C109.649 32.3588 109.66 32.5268 109.538 32.9181L102.605 39.9934C102.153 40.2345 101.899 40.2313 101.443 40.0005L94.365 33.0105C94.1271 32.6101 94.1315 32.3924 94.3592 32.0153L96.3497 30.079Z" fill="white" fill-opacity="0.08"/>
<path d="M30.2613 107.955L28.7763 106.496L29.6802 105.567L24.7085 100.458L19.6077 105.567L24.7085 110.675L25.6125 109.747L27.0975 111.206L25.1605 113.197C24.757 113.383 24.5308 113.413 24.1274 113.197L17.0895 106.031C16.9755 105.595 16.965 105.427 17.0895 105.036L24.0629 98.003C24.5168 97.7647 24.7712 97.7695 25.2251 98.003L32.2629 105.036C32.4985 105.438 32.4928 105.655 32.2629 106.031L30.2613 107.955Z" fill="white" fill-opacity="0.08"/>
<path d="M19.1622 109.905L20.6557 111.356L19.7571 112.29L24.7582 117.369L29.8295 112.229L24.6993 107.151L23.8007 108.085L22.3072 106.635L24.2328 104.633C24.6351 104.444 24.8611 104.413 25.2658 104.626L32.3449 111.749C32.4616 112.185 32.473 112.353 32.3506 112.744L25.418 119.82C24.9655 120.061 24.711 120.057 24.2558 119.827L17.1775 112.837C16.9396 112.436 16.944 112.219 17.1717 111.841L19.1622 109.905Z" fill="white" fill-opacity="0.08"/>
<path d="M30.2613 28.1292L28.7763 26.6695L29.6802 25.7406L24.7085 20.6318L19.6077 25.7406L24.7085 30.8494L25.6125 29.9206L27.0975 31.3802L25.1605 33.3707C24.757 33.5572 24.5308 33.5864 24.1274 33.3707L17.0895 26.2051C16.9755 25.7685 16.965 25.6005 17.0895 25.2098L24.0629 18.1769C24.5168 17.9386 24.7712 17.9434 25.2251 18.1769L32.2629 25.2098C32.4985 25.6117 32.4928 25.8294 32.2629 26.2051L30.2613 28.1292Z" fill="white" fill-opacity="0.08"/>
<path d="M19.1622 30.079L20.6557 31.5297L19.7571 32.464L24.7582 37.5425L29.8295 32.4027L24.6993 27.325L23.8007 28.2593L22.3072 26.8087L24.2328 24.8065C24.6351 24.6175 24.8611 24.5869 25.2658 24.8002L32.3449 31.9229C32.4616 32.3588 32.473 32.5268 32.3506 32.9181L25.418 39.9934C24.9655 40.2345 24.711 40.2313 24.2558 40.0005L17.1775 33.0105C16.9396 32.6101 16.944 32.3924 17.1717 32.0153L19.1622 30.079Z" fill="white" fill-opacity="0.08"/>
<g clip-path="url(#clip0)">
<path d="M192.622 32.4212H191.91V14.4194C191.91 11.656 190.721 9.00579 188.603 7.05177C186.486 5.09776 183.614 4 180.62 4H139.29C137.808 4 136.34 4.26951 134.97 4.79313C133.6 5.31675 132.355 6.08424 131.307 7.05177C130.258 8.0193 129.427 9.16792 128.859 10.4321C128.292 11.6962 128 13.0511 128 14.4194V113.181C128 115.944 129.19 118.594 131.307 120.548C133.424 122.502 136.296 123.6 139.29 123.6H180.62C183.614 123.6 186.486 122.502 188.603 120.548C190.721 118.594 191.91 115.944 191.91 113.181V45.2353H192.622L192.622 32.4212Z" fill="#E6E6E6"/>
<path d="M179.225 6.93629H174.266C174.494 7.49543 174.581 8.10207 174.519 8.70278C174.458 9.30348 174.249 9.87981 173.912 10.381C173.576 10.8822 173.121 11.2928 172.588 11.5767C172.055 11.8606 171.46 12.0091 170.856 12.0091H149.092C148.488 12.0091 147.894 11.8605 147.361 11.5766C146.828 11.2927 146.373 10.882 146.036 10.3808C145.699 9.87968 145.491 9.30338 145.429 8.7027C145.368 8.10202 145.455 7.49541 145.683 6.93629H141.051C138.996 6.9363 137.024 7.75286 135.571 9.20634C134.117 10.6598 133.301 12.6312 133.301 14.6867V112.916C133.301 114.971 134.117 116.943 135.571 118.396C137.024 119.85 138.996 120.666 141.051 120.666H179.225C181.28 120.666 183.251 119.85 184.705 118.396C186.158 116.943 186.975 114.971 186.975 112.916V112.916V14.6866C186.975 12.6311 186.158 10.6597 184.705 9.20629C183.251 7.75283 181.28 6.93629 179.225 6.93629V6.93629Z" fill="white"/>
<path d="M149.935 31.8622C149.71 31.8642 149.487 31.8188 149.281 31.7289C149.074 31.6391 148.889 31.5069 148.737 31.3408C148.557 31.1323 148.422 30.8888 148.34 30.6256C148.259 30.3624 148.233 30.0852 148.263 29.8113C148.306 29.2898 148.525 28.7982 148.883 28.417C149.056 28.2308 149.264 28.0818 149.496 27.9791C149.728 27.8764 149.978 27.8221 150.232 27.8196C150.468 27.8186 150.701 27.8672 150.917 27.9623C151.133 28.0574 151.326 28.1968 151.484 28.3716C151.664 28.5745 151.799 28.8125 151.882 29.0705C151.965 29.3285 151.994 29.6009 151.967 29.8705V29.8705C151.933 30.4238 151.694 30.9447 151.297 31.3314C150.927 31.6756 150.44 31.8655 149.935 31.8622V31.8622ZM150.232 28.4934C149.572 28.4934 149.003 29.0982 148.935 29.8704C148.912 30.0512 148.927 30.2346 148.979 30.4093C149.03 30.584 149.117 30.7462 149.234 30.8857C149.323 30.9831 149.431 31.0605 149.552 31.1127C149.673 31.1649 149.803 31.1907 149.935 31.1884C150.552 31.1884 151.211 30.7626 151.295 29.8113C151.315 29.6348 151.297 29.4562 151.244 29.2867C151.191 29.1172 151.104 28.9606 150.987 28.8266C150.892 28.7211 150.775 28.637 150.645 28.5796C150.515 28.5221 150.374 28.4928 150.232 28.4934Z" fill="#3F3D56"/>
<path d="M149.957 33.8835C149.436 33.8919 148.919 33.7895 148.44 33.5829C147.962 33.3764 147.532 33.0704 147.181 32.6853C146.83 32.3002 146.564 31.8449 146.403 31.3494C146.241 30.8539 146.186 30.3297 146.242 29.8115C146.353 28.7238 146.858 27.7144 147.663 26.9747C148.468 26.235 149.517 25.8164 150.61 25.7983C151.823 25.7983 152.821 26.188 153.496 26.9252C154.136 27.6243 154.436 28.6085 154.34 29.6963C154.249 30.7269 153.812 31.2636 153.461 31.5324C153.306 31.6587 153.127 31.7522 152.935 31.8073C152.743 31.8623 152.542 31.8778 152.344 31.8528C151.789 31.7545 151.176 31.2507 151.272 30.1545L151.451 28.128C151.459 28.0393 151.502 27.9575 151.57 27.9005C151.639 27.8434 151.727 27.8158 151.816 27.8236C151.904 27.8314 151.986 27.8741 152.044 27.9422C152.101 28.0103 152.129 28.0983 152.122 28.1871L151.943 30.2136C151.895 30.7586 152.089 31.1234 152.461 31.1894C152.676 31.206 152.888 31.1371 153.052 30.9976C153.295 30.8111 153.6 30.4236 153.669 29.6372C153.749 28.7268 153.518 27.9464 152.999 27.3803C152.455 26.7861 151.629 26.4721 150.61 26.4721C149.685 26.4896 148.799 26.8448 148.118 27.4708C147.437 28.0968 147.008 28.9502 146.913 29.8703C146.865 30.2954 146.909 30.7258 147.041 31.1328C147.172 31.5398 147.39 31.9139 147.678 32.2301C147.966 32.5463 148.318 32.7973 148.711 32.9662C149.105 33.1352 149.529 33.2182 149.957 33.2097C150.485 33.2382 151.012 33.1427 151.496 32.9307C151.578 32.8965 151.67 32.8963 151.753 32.9302C151.835 32.964 151.901 33.0292 151.935 33.1113C151.97 33.1935 151.971 33.2859 151.937 33.3685C151.903 33.4511 151.839 33.517 151.757 33.5519C151.19 33.7985 150.574 33.912 149.957 33.8835Z" fill="#3F3D56"/>
<path d="M146.4 82.0365C146.333 82.0365 146.268 82.0167 146.213 81.9797C146.157 81.9427 146.114 81.8901 146.089 81.8285C146.063 81.767 146.057 81.6992 146.07 81.6339C146.083 81.5685 146.115 81.5085 146.162 81.4614L148.351 79.2717C148.415 79.2092 148.5 79.1744 148.589 79.1747C148.678 79.175 148.763 79.2105 148.826 79.2734C148.889 79.3363 148.924 79.4214 148.925 79.5104C148.925 79.5993 148.89 79.6847 148.828 79.7481L146.638 81.9378C146.607 81.9691 146.57 81.994 146.529 82.0109C146.488 82.0278 146.444 82.0365 146.4 82.0365ZM151.958 81.1943C151.892 81.1943 151.827 81.1745 151.771 81.1375C151.716 81.1005 151.673 81.0479 151.647 80.9863C151.622 80.9247 151.615 80.857 151.628 80.7917C151.641 80.7263 151.673 80.6663 151.72 80.6192L153.573 78.7663C153.636 78.7039 153.722 78.6691 153.811 78.6694C153.9 78.6697 153.985 78.7052 154.048 78.7681C154.111 78.8309 154.146 78.9161 154.146 79.005C154.147 79.094 154.112 79.1794 154.05 79.2427L152.197 81.0956C152.165 81.1269 152.128 81.1518 152.087 81.1687C152.047 81.1856 152.003 81.1943 151.958 81.1943V81.1943ZM150.948 81.1943C150.904 81.1943 150.86 81.1856 150.819 81.1687C150.778 81.1518 150.741 81.1269 150.71 81.0956L149.362 79.7481C149.33 79.7169 149.305 79.6797 149.288 79.6387C149.271 79.5978 149.262 79.5538 149.262 79.5094C149.262 79.4649 149.27 79.4209 149.287 79.3798C149.304 79.3387 149.329 79.3014 149.36 79.27C149.392 79.2385 149.429 79.2136 149.47 79.1967C149.511 79.1798 149.555 79.1711 149.6 79.1713C149.644 79.1715 149.688 79.1804 149.729 79.1976C149.77 79.2148 149.807 79.24 149.839 79.2717L151.186 80.6192C151.233 80.6663 151.265 80.7263 151.278 80.7917C151.291 80.857 151.285 80.9247 151.259 80.9863C151.234 81.0479 151.19 81.1005 151.135 81.1375C151.08 81.1745 151.014 81.1943 150.948 81.1943V81.1943Z" fill="#3F3D56"/>
<path d="M154.317 79.3414C154.15 79.3414 153.987 79.292 153.849 79.1995C153.71 79.1069 153.602 78.9754 153.539 78.8215C153.475 78.6676 153.458 78.4983 153.491 78.3349C153.523 78.1715 153.603 78.0215 153.721 77.9037C153.839 77.7859 153.989 77.7057 154.152 77.6732C154.316 77.6407 154.485 77.6574 154.639 77.7211C154.793 77.7849 154.924 77.8928 155.017 78.0313C155.109 78.1698 155.159 78.3326 155.159 78.4992C155.159 78.7225 155.07 78.9366 154.912 79.0945C154.754 79.2524 154.54 79.3412 154.317 79.3414V79.3414ZM154.317 78.3308C154.283 78.3308 154.251 78.3407 154.223 78.3592C154.195 78.3777 154.174 78.404 154.161 78.4348C154.148 78.4655 154.145 78.4994 154.151 78.5321C154.158 78.5648 154.174 78.5948 154.198 78.6183C154.221 78.6419 154.251 78.6579 154.284 78.6644C154.316 78.6709 154.35 78.6676 154.381 78.6548C154.412 78.6421 154.438 78.6205 154.457 78.5928C154.475 78.5651 154.485 78.5325 154.485 78.4992C154.485 78.4546 154.467 78.4117 154.436 78.3802C154.404 78.3486 154.361 78.3308 154.317 78.3308V78.3308Z" fill="#3F3D56"/>
<path d="M151.453 82.2049C151.287 82.2049 151.124 82.1555 150.985 82.063C150.847 81.9704 150.739 81.8389 150.675 81.685C150.611 81.5311 150.595 81.3618 150.627 81.1984C150.66 81.035 150.74 80.885 150.858 80.7672C150.975 80.6494 151.125 80.5692 151.289 80.5367C151.452 80.5042 151.622 80.5209 151.775 80.5846C151.929 80.6484 152.061 80.7563 152.153 80.8948C152.246 81.0333 152.295 81.1961 152.295 81.3627C152.295 81.586 152.206 81.8001 152.048 81.958C151.89 82.1159 151.676 82.2047 151.453 82.2049ZM151.453 81.1943C151.42 81.1943 151.387 81.2042 151.36 81.2227C151.332 81.2412 151.31 81.2675 151.298 81.2983C151.285 81.329 151.281 81.3629 151.288 81.3956C151.294 81.4282 151.31 81.4583 151.334 81.4818C151.358 81.5054 151.388 81.5214 151.42 81.5279C151.453 81.5344 151.487 81.5311 151.518 81.5183C151.548 81.5056 151.575 81.484 151.593 81.4563C151.612 81.4286 151.622 81.396 151.622 81.3627C151.622 81.3181 151.604 81.2752 151.572 81.2437C151.541 81.2121 151.498 81.1943 151.453 81.1943V81.1943Z" fill="#3F3D56"/>
<path d="M149.095 79.8467C148.928 79.8467 148.766 79.7973 148.627 79.7048C148.489 79.6123 148.381 79.4807 148.317 79.3268C148.253 79.1729 148.236 79.0036 148.269 78.8402C148.301 78.6769 148.382 78.5268 148.499 78.409C148.617 78.2912 148.767 78.211 148.931 78.1785C149.094 78.146 149.263 78.1627 149.417 78.2264C149.571 78.2902 149.703 78.3981 149.795 78.5366C149.888 78.6751 149.937 78.838 149.937 79.0045C149.937 79.2278 149.848 79.4419 149.69 79.5998C149.532 79.7577 149.318 79.8465 149.095 79.8467V79.8467ZM149.095 78.8361C149.062 78.8361 149.029 78.846 149.001 78.8645C148.974 78.883 148.952 78.9093 148.939 78.9401C148.927 78.9709 148.923 79.0047 148.93 79.0374C148.936 79.0701 148.952 79.1001 148.976 79.1236C148.999 79.1472 149.029 79.1632 149.062 79.1697C149.095 79.1762 149.129 79.1729 149.159 79.1602C149.19 79.1474 149.217 79.1258 149.235 79.0981C149.254 79.0704 149.263 79.0379 149.263 79.0045C149.263 78.9599 149.246 78.9171 149.214 78.8855C149.182 78.8539 149.14 78.8361 149.095 78.8361V78.8361Z" fill="#3F3D56"/>
<path d="M145.895 83.0471C145.728 83.0471 145.565 82.9977 145.427 82.9052C145.288 82.8126 145.18 82.6811 145.116 82.5272C145.053 82.3733 145.036 82.204 145.069 82.0406C145.101 81.8772 145.181 81.7272 145.299 81.6094C145.417 81.4916 145.567 81.4114 145.73 81.3789C145.894 81.3464 146.063 81.3631 146.217 81.4268C146.371 81.4906 146.502 81.5985 146.595 81.737C146.687 81.8755 146.737 82.0383 146.737 82.2049C146.737 82.4282 146.648 82.6423 146.49 82.8002C146.332 82.9581 146.118 83.0469 145.895 83.0471V83.0471ZM145.895 82.0365C145.861 82.0365 145.829 82.0463 145.801 82.0649C145.773 82.0834 145.752 82.1097 145.739 82.1405C145.726 82.1712 145.723 82.2051 145.729 82.2378C145.736 82.2705 145.752 82.3005 145.775 82.324C145.799 82.3476 145.829 82.3636 145.862 82.3701C145.894 82.3766 145.928 82.3733 145.959 82.3605C145.99 82.3478 146.016 82.3262 146.035 82.2985C146.053 82.2708 146.063 82.2382 146.063 82.2049C146.063 82.1603 146.045 82.1174 146.014 82.0859C145.982 82.0543 145.939 82.0365 145.895 82.0365V82.0365Z" fill="#3F3D56"/>
<path d="M177.866 109.026H170.791C170.479 109.026 170.179 108.901 169.958 108.68C169.737 108.459 169.613 108.16 169.612 107.847V102.794C169.613 102.481 169.737 102.182 169.958 101.96C170.179 101.739 170.479 101.615 170.791 101.615H177.866C178.179 101.615 178.478 101.739 178.699 101.96C178.92 102.182 179.045 102.481 179.045 102.794V107.847C179.045 108.16 178.92 108.459 178.699 108.68C178.478 108.901 178.179 109.026 177.866 109.026V109.026ZM170.791 102.288C170.657 102.289 170.529 102.342 170.434 102.437C170.339 102.531 170.286 102.66 170.286 102.794V107.847C170.286 107.981 170.339 108.109 170.434 108.204C170.529 108.299 170.657 108.352 170.791 108.352H177.866C178 108.352 178.128 108.299 178.223 108.204C178.318 108.109 178.371 107.981 178.371 107.847V102.794C178.371 102.66 178.318 102.531 178.223 102.437C178.128 102.342 178 102.289 177.866 102.288L170.791 102.288Z" fill="#3F3D56"/>
<path d="M174.329 105.994C174.254 105.994 174.181 105.969 174.122 105.923L171.09 103.565C171.055 103.538 171.026 103.504 171.004 103.466C170.982 103.427 170.968 103.385 170.962 103.341C170.957 103.297 170.96 103.252 170.972 103.21C170.984 103.167 171.004 103.127 171.031 103.092C171.058 103.057 171.092 103.028 171.13 103.006C171.169 102.984 171.211 102.97 171.255 102.965C171.299 102.959 171.343 102.963 171.386 102.974C171.429 102.986 171.469 103.006 171.504 103.033L174.329 105.231L177.154 103.033C177.189 103.006 177.229 102.986 177.271 102.974C177.314 102.963 177.358 102.959 177.402 102.965C177.446 102.97 177.489 102.984 177.527 103.006C177.566 103.028 177.599 103.057 177.627 103.092C177.654 103.127 177.674 103.167 177.685 103.21C177.697 103.252 177.7 103.297 177.695 103.341C177.689 103.385 177.675 103.427 177.653 103.466C177.632 103.504 177.602 103.538 177.567 103.565L174.535 105.923C174.476 105.969 174.404 105.994 174.329 105.994V105.994Z" fill="#3F3D56"/>
<path d="M212.326 113.69L173.357 113.705C173.307 113.705 173.26 113.686 173.225 113.651C173.19 113.616 173.17 113.568 173.17 113.519C173.17 113.47 173.19 113.422 173.225 113.387C173.26 113.352 173.307 113.333 173.357 113.333L212.326 113.317C212.376 113.317 212.423 113.337 212.458 113.372C212.493 113.407 212.513 113.454 212.513 113.504C212.513 113.553 212.493 113.6 212.458 113.635C212.423 113.67 212.376 113.69 212.326 113.69Z" fill="#CCCCCC"/>
<path d="M211.808 116.112C213.248 116.112 214.416 114.944 214.416 113.504C214.416 112.063 213.248 110.895 211.808 110.895C210.367 110.895 209.199 112.063 209.199 113.504C209.199 114.944 210.367 116.112 211.808 116.112Z" fill="#FF6B6B"/>
<path d="M211.395 63.7532L172.052 63.7686C172.003 63.7686 171.956 63.749 171.921 63.714C171.886 63.6791 171.866 63.6317 171.866 63.5823C171.866 63.5328 171.886 63.4855 171.921 63.4505C171.956 63.4156 172.003 63.3959 172.052 63.3959L211.395 63.3805C211.444 63.3805 211.491 63.4001 211.526 63.4351C211.561 63.47 211.581 63.5174 211.581 63.5668C211.581 63.6162 211.561 63.6636 211.526 63.6986C211.491 63.7335 211.444 63.7532 211.395 63.7532Z" fill="#CCCCCC"/>
<path d="M211.808 66.3618C213.248 66.3618 214.416 65.1939 214.416 63.7532C214.416 62.3124 213.248 61.1445 211.808 61.1445C210.367 61.1445 209.199 62.3124 209.199 63.7532C209.199 65.1939 210.367 66.3618 211.808 66.3618Z" fill="#FF6B6B"/>
<path d="M110.67 38.2258L150.012 38.2412C150.062 38.2412 150.109 38.2216 150.144 38.1866C150.179 38.1517 150.199 38.1043 150.199 38.0549C150.199 38.0055 150.179 37.9581 150.144 37.9231C150.109 37.8882 150.062 37.8685 150.012 37.8685L110.67 37.8531C110.621 37.8531 110.573 37.8727 110.538 37.9077C110.503 37.9426 110.484 37.99 110.484 38.0394C110.484 38.0889 110.503 38.1363 110.538 38.1712C110.573 38.2061 110.621 38.2258 110.67 38.2258V38.2258Z" fill="#CCCCCC"/>
<path d="M110.257 40.8344C111.698 40.8344 112.866 39.6665 112.866 38.2258C112.866 36.7851 111.698 35.6172 110.257 35.6172C108.816 35.6172 107.648 36.7851 107.648 38.2258C107.648 39.6665 108.816 40.8344 110.257 40.8344Z" fill="#FF6B6B"/>
<path d="M110.67 88.7215L150.012 88.737C150.062 88.737 150.109 88.7173 150.144 88.6824C150.179 88.6475 150.199 88.6001 150.199 88.5506C150.199 88.5012 150.179 88.4538 150.144 88.4189C150.109 88.3839 150.062 88.3643 150.012 88.3643L110.67 88.3489C110.621 88.3489 110.573 88.3685 110.538 88.4034C110.503 88.4384 110.484 88.4858 110.484 88.5352C110.484 88.5846 110.503 88.632 110.538 88.667C110.573 88.7019 110.621 88.7215 110.67 88.7215V88.7215Z" fill="#CCCCCC"/>
<path d="M110.257 91.3302C111.698 91.3302 112.866 90.1622 112.866 88.7215C112.866 87.2808 111.698 86.1129 110.257 86.1129C108.816 86.1129 107.648 87.2808 107.648 88.7215C107.648 90.1622 108.816 91.3302 110.257 91.3302Z" fill="#FF6B6B"/>
<path d="M174.329 113.705C172.67 113.705 171.049 113.214 169.67 112.292C168.291 111.371 167.217 110.061 166.582 108.529C165.947 106.997 165.781 105.311 166.105 103.685C166.428 102.058 167.227 100.564 168.4 99.3914C169.572 98.2188 171.066 97.4202 172.693 97.0967C174.319 96.7731 176.005 96.9392 177.537 97.5738C179.07 98.2084 180.379 99.2831 181.3 100.662C182.222 102.041 182.714 103.662 182.714 105.32C182.711 107.543 181.827 109.675 180.255 111.247C178.683 112.819 176.552 113.703 174.329 113.705V113.705ZM174.329 97.3082C172.744 97.3082 171.195 97.7781 169.877 98.6585C168.56 99.5389 167.533 100.79 166.926 102.254C166.32 103.718 166.161 105.329 166.47 106.884C166.78 108.438 167.543 109.865 168.663 110.986C169.784 112.106 171.211 112.87 172.766 113.179C174.32 113.488 175.931 113.329 177.395 112.723C178.859 112.116 180.11 111.089 180.991 109.772C181.871 108.454 182.341 106.905 182.341 105.32C182.339 103.196 181.494 101.16 179.992 99.6576C178.489 98.1555 176.453 97.3106 174.329 97.3082V97.3082Z" fill="#CCCCCC"/>
<path d="M150.106 88.737C148.447 88.737 146.826 88.2452 145.447 87.3239C144.068 86.4025 142.994 85.093 142.359 83.5608C141.724 82.0287 141.558 80.3428 141.882 78.7162C142.205 77.0897 143.004 75.5957 144.177 74.423C145.349 73.2504 146.843 72.4518 148.47 72.1283C150.096 71.8047 151.782 71.9708 153.314 72.6054C154.847 73.24 156.156 74.3148 157.077 75.6937C157.999 77.0725 158.491 78.6937 158.491 80.3521C158.488 82.5751 157.604 84.7064 156.032 86.2783C154.46 87.8502 152.329 88.7344 150.106 88.737ZM150.106 72.3398C148.521 72.3398 146.972 72.8097 145.654 73.6901C144.337 74.5705 143.31 75.8219 142.703 77.2859C142.097 78.7499 141.938 80.3609 142.247 81.9152C142.556 83.4694 143.32 84.897 144.44 86.0176C145.561 87.1381 146.988 87.9012 148.543 88.2103C150.097 88.5195 151.708 88.3608 153.172 87.7544C154.636 87.148 155.887 86.121 156.768 84.8034C157.648 83.4858 158.118 81.9367 158.118 80.3521C158.115 78.2278 157.271 76.1913 155.768 74.6892C154.266 73.1871 152.23 72.3422 150.106 72.3398V72.3398Z" fill="#CCCCCC"/>
<path d="M172.652 63.7686C170.993 63.7686 169.372 63.2768 167.993 62.3555C166.614 61.4341 165.54 60.1246 164.905 58.5925C164.27 57.0603 164.104 55.3744 164.428 53.7479C164.751 52.1214 165.55 50.6273 166.723 49.4547C167.895 48.282 169.389 47.4834 171.016 47.1599C172.642 46.8364 174.328 47.0024 175.86 47.6371C177.393 48.2717 178.702 49.3464 179.623 50.7253C180.545 52.1042 181.037 53.7253 181.037 55.3837C181.034 57.6067 180.15 59.738 178.578 61.3099C177.006 62.8819 174.875 63.7661 172.652 63.7686V63.7686ZM172.652 47.3715C171.067 47.3715 169.518 47.8414 168.2 48.7218C166.883 49.6022 165.856 50.8535 165.249 52.3175C164.643 53.7816 164.484 55.3926 164.793 56.9468C165.103 58.501 165.866 59.9287 166.986 61.0492C168.107 62.1697 169.534 62.9328 171.089 63.242C172.643 63.5511 174.254 63.3925 175.718 62.786C177.182 62.1796 178.433 61.1527 179.314 59.8351C180.194 58.5174 180.664 56.9684 180.664 55.3837C180.662 53.2595 179.817 51.2229 178.315 49.7208C176.812 48.2188 174.776 47.3739 172.652 47.3715V47.3715Z" fill="#CCCCCC"/>
<path d="M150.292 38.2258C148.634 38.2258 147.012 37.734 145.634 36.8127C144.255 35.8913 143.18 34.5818 142.545 33.0496C141.911 31.5175 141.745 29.8316 142.068 28.2051C142.392 26.5786 143.19 25.0845 144.363 23.9119C145.536 22.7392 147.03 21.9406 148.656 21.6171C150.283 21.2936 151.969 21.4596 153.501 22.0942C155.033 22.7289 156.342 23.8036 157.264 25.1825C158.185 26.5614 158.677 28.1825 158.677 29.8409C158.674 32.0639 157.79 34.1952 156.218 35.7671C154.646 37.3391 152.515 38.2233 150.292 38.2258V38.2258ZM150.292 21.8286C148.707 21.8286 147.158 22.2986 145.841 23.1789C144.523 24.0593 143.496 25.3107 142.89 26.7747C142.283 28.2388 142.125 29.8498 142.434 31.404C142.743 32.9582 143.506 34.3859 144.626 35.5064C145.747 36.6269 147.175 37.39 148.729 37.6992C150.283 38.0083 151.894 37.8497 153.358 37.2432C154.822 36.6368 156.073 35.6099 156.954 34.2922C157.834 32.9746 158.304 31.4256 158.304 29.8409C158.302 27.7166 157.457 25.6801 155.955 24.178C154.453 22.676 152.416 21.831 150.292 21.8286Z" fill="#CCCCCC"/>
<path d="M85.6706 95.0376C85.4414 94.8628 85.2516 94.6417 85.1135 94.3887C84.9754 94.1357 84.8921 93.8564 84.869 93.5691C84.8639 93.5022 84.8623 93.435 84.8643 93.3679L76.1872 87.5241C75.9032 87.3309 75.6893 87.0511 75.5772 86.7264C75.4652 86.4017 75.4611 86.0495 75.5655 85.7223L79.7126 75.4189C79.8911 74.9754 80.238 74.6207 80.6775 74.4324C81.1169 74.2441 81.6131 74.2376 82.0573 74.4144C82.5015 74.5911 82.8576 74.9367 83.0475 75.3754C83.2375 75.8141 83.246 76.3102 83.0709 76.7551L79.7226 85.2687L86.4792 91.4056C86.5684 91.3853 86.6589 91.3713 86.75 91.3637C87.2718 91.3222 87.7897 91.4819 88.1976 91.8101C88.6054 92.1383 88.8722 92.6101 88.9433 93.1287C89.0144 93.6473 88.8844 94.1735 88.5799 94.5993C88.2755 95.0251 87.8196 95.3183 87.3059 95.4188C87.1741 95.4442 87.0401 95.457 86.9059 95.4572C86.4591 95.4575 86.0248 95.3099 85.6706 95.0376Z" fill="#A0616A"/>
<path d="M76.1907 81.4858C76.1399 81.3672 76.1153 81.2391 76.1186 81.1102C76.1219 80.9812 76.1529 80.8545 76.2096 80.7387L78.1893 76.6923C78.3891 76.0634 78.8301 75.5393 79.4156 75.2351C80.0012 74.9308 80.6835 74.8711 81.3129 75.0691C81.9424 75.2671 82.4677 75.7067 82.7736 76.2914C83.0795 76.8761 83.1411 77.5582 82.9448 78.1882L82.222 82.6494C82.2014 82.7767 82.1535 82.898 82.0818 83.0052C82.01 83.1124 81.916 83.2028 81.8061 83.2704C81.6962 83.3379 81.5731 83.381 81.4451 83.3966C81.317 83.4123 81.1871 83.4002 81.0642 83.3611L76.7441 81.9883C76.6211 81.9492 76.508 81.8842 76.4125 81.7975C76.317 81.7107 76.2414 81.6044 76.1907 81.4858V81.4858Z" fill="#FF6B6B"/>
<path d="M89.8455 131.441H92.1299L93.2166 122.63L89.8451 122.63L89.8455 131.441Z" fill="#A0616A"/>
<path d="M89.2628 130.695L93.7615 130.695H93.7617C94.1382 130.695 94.511 130.769 94.8588 130.913C95.2067 131.058 95.5227 131.269 95.789 131.535C96.0552 131.801 96.2664 132.117 96.4104 132.465C96.5545 132.813 96.6287 133.186 96.6287 133.562V133.655L89.2629 133.656L89.2628 130.695Z" fill="#2F2E41"/>
<path d="M67.5076 129.823L69.7201 130.391L72.966 122.128L69.7005 121.289L67.5076 129.823Z" fill="#A0616A"/>
<path d="M67.1288 128.955L71.486 130.075L71.4862 130.075C71.8508 130.169 72.1934 130.333 72.4945 130.559C72.7955 130.786 73.049 131.069 73.2406 131.393C73.4322 131.717 73.558 132.076 73.611 132.448C73.6639 132.821 73.643 133.201 73.5492 133.565L73.526 133.656L66.3921 131.822L67.1288 128.955Z" fill="#2F2E41"/>
<path d="M83.5301 70.9937C86.0576 70.9937 88.1066 68.9448 88.1066 66.4173C88.1066 63.8897 86.0576 61.8408 83.5301 61.8408C81.0026 61.8408 78.9536 63.8897 78.9536 66.4173C78.9536 68.9448 81.0026 70.9937 83.5301 70.9937Z" fill="#A0616A"/>
<path d="M81.2154 85.453C80.1266 84.3323 79.2022 83.0629 78.4697 81.6827C78.0801 80.926 77.8533 80.0961 77.8038 79.2464C77.7544 78.3967 77.8834 77.5461 78.1827 76.7493C78.4882 75.9347 78.9609 75.1932 79.5703 74.5724C80.1798 73.9516 80.9125 73.4653 81.7212 73.1448C83.1396 72.5692 84.722 72.5454 86.157 73.078C87.592 73.6107 88.7756 74.6612 89.4749 76.0229C90.62 78.2639 91.0688 80.455 90.8088 82.5356C90.3116 86.5129 90.0205 88.5687 89.9437 88.6455L89.9181 88.6712L81.4048 89.0495L81.2154 85.453Z" fill="#FF6B6B"/>
<path d="M81.7211 87.9488L89.3396 87.5696C89.532 87.56 89.7206 87.6253 89.8659 87.7517C90.0112 87.8781 90.1019 88.0559 90.119 88.2478L93.6237 127.532C93.633 127.637 93.6202 127.742 93.5861 127.841C93.552 127.94 93.4974 128.031 93.4259 128.107C93.3543 128.184 93.2674 128.245 93.1708 128.285C93.0743 128.326 92.9702 128.346 92.8654 128.344L89.889 128.28C89.7253 128.277 89.5673 128.22 89.4395 128.117C89.3116 128.015 89.2209 127.874 89.1815 127.715L83.4954 104.803C83.4582 104.653 83.3753 104.518 83.2583 104.418C83.1412 104.317 82.9958 104.255 82.842 104.24C82.6883 104.226 82.5338 104.26 82.4 104.337C82.2662 104.414 82.1596 104.531 82.095 104.671L71.3195 128.074C71.2463 128.233 71.1195 128.361 70.9613 128.436C70.8032 128.511 70.6237 128.527 70.4544 128.483L67.459 127.702C67.2736 127.654 67.1138 127.536 67.013 127.373C66.9122 127.21 66.8781 127.015 66.9177 126.827C67.9032 122.175 73.8067 95.5321 81.2394 88.1576C81.3687 88.031 81.5403 87.9566 81.7211 87.9488V87.9488Z" fill="#2F2E41"/>
<path d="M96.1482 92.3596C95.8727 92.2747 95.6182 92.1326 95.4012 91.9428C95.1843 91.753 95.0097 91.5196 94.889 91.2578C94.8611 91.1968 94.8364 91.1344 94.815 91.0708L84.6542 88.5808C84.321 88.4974 84.0236 88.3086 83.8064 88.0425C83.5892 87.7765 83.4638 87.4473 83.4489 87.1041L83.7851 76.0029C83.7996 75.525 84.0028 75.0724 84.3502 74.7441C84.6976 74.4157 85.161 74.2384 85.6389 74.2509C86.1168 74.2635 86.5702 74.4648 86.9 74.811C87.2297 75.1571 87.4089 75.6197 87.3982 76.0977L87.1939 85.2436L95.6535 88.6716C95.7302 88.6219 95.8102 88.5775 95.893 88.5387H95.8931C96.1952 88.3987 96.5269 88.3343 96.8594 88.3511C97.192 88.3679 97.5155 88.4654 97.802 88.6352C98.0884 88.805 98.3292 89.042 98.5036 89.3256C98.678 89.6093 98.7807 89.9312 98.8029 90.2634C98.8251 90.5957 98.7661 90.9284 98.6309 91.2327C98.4958 91.537 98.2886 91.8039 98.0273 92.0103C97.7659 92.2166 97.4583 92.3563 97.1309 92.4171C96.8035 92.478 96.4662 92.4583 96.1482 92.3596V92.3596Z" fill="#A0616A"/>
<path d="M82.7014 81.5345C82.6137 81.4399 82.5475 81.3275 82.5072 81.205C82.4669 81.0824 82.4535 80.9527 82.468 80.8245L82.9716 76.348C82.9482 75.6886 83.1873 75.0468 83.6364 74.5633C84.0855 74.0799 84.708 73.7942 85.3674 73.769C86.0268 73.7438 86.6692 73.9811 87.154 74.4288C87.6387 74.8766 87.9261 75.4983 87.9531 76.1576L88.7727 80.6019C88.7961 80.7288 88.7919 80.8592 88.7603 80.9842C88.7288 81.1093 88.6706 81.2261 88.5899 81.3266C88.5091 81.4272 88.4076 81.5092 88.2923 81.567C88.177 81.6248 88.0506 81.6571 87.9217 81.6616L83.3915 81.8215C83.2626 81.8262 83.1342 81.8029 83.0151 81.7534C82.896 81.7038 82.789 81.6292 82.7014 81.5345V81.5345Z" fill="#FF6B6B"/>
<path d="M76.9724 72.4593L77.4506 70.9139L77.7776 72.6484L80.4632 72.5772L80.4508 70.8671L81.4717 72.5548L83.9054 72.0169C83.3854 71.3241 82.8594 70.6206 82.5268 69.8039C82.1943 68.9873 82.0733 68.0297 82.384 67.203C83.1521 65.1593 86.0643 65.7312 87.6571 65.7139C88.1218 65.7088 88.6464 65.6753 88.9507 65.2954C89.1799 65.0094 89.2174 64.6001 89.2058 64.2218C89.146 62.2738 87.9765 60.4153 86.323 59.6408C85.5137 59.2681 84.6114 59.1459 83.7321 59.2899C83.2734 59.3623 82.8281 59.5026 82.4107 59.7061C82.0386 59.8879 81.6477 60.3208 81.247 60.3091C80.9103 60.2992 80.4645 59.9485 80.0981 59.8886C79.6567 59.8204 79.2064 59.8361 78.7708 59.9349C77.8954 60.13 77.1063 60.6023 76.5206 61.2814C75.2759 62.7278 74.906 64.8591 75.123 66.8212C75.3399 68.7833 76.0739 70.6286 76.7998 72.442" fill="#2F2E41"/>
<path d="M215.624 134H66.1863C66.1369 134 66.0895 133.98 66.0546 133.945C66.0196 133.91 66 133.863 66 133.814C66 133.764 66.0196 133.717 66.0546 133.682C66.0895 133.647 66.1369 133.627 66.1863 133.627H215.624C215.673 133.627 215.721 133.647 215.756 133.682C215.791 133.717 215.81 133.764 215.81 133.814C215.81 133.863 215.791 133.91 215.756 133.945C215.721 133.98 215.673 134 215.624 134Z" fill="#E6E6E6"/>
<path d="M210.103 131.691C210.672 131.229 211.086 130.606 211.291 129.903C211.442 129.191 211.139 128.356 210.462 128.08C209.701 127.787 208.887 128.316 208.271 128.848C207.656 129.38 206.947 129.989 206.14 129.875C206.554 129.498 206.862 129.02 207.036 128.488C207.21 127.956 207.244 127.388 207.133 126.84C207.1 126.612 207.003 126.397 206.855 126.221C206.434 125.77 205.667 125.964 205.159 126.32C203.551 127.452 203.102 129.637 203.096 131.604C202.932 130.893 203.068 130.153 203.065 129.439C203.062 128.724 202.861 127.892 202.248 127.514C201.868 127.31 201.442 127.209 201.011 127.22C200.287 127.196 199.482 127.267 198.988 127.796C198.369 128.452 198.533 129.556 199.068 130.271C199.603 130.985 200.414 131.446 201.159 131.947C201.76 132.304 202.272 132.791 202.657 133.374C202.702 133.454 202.739 133.539 202.768 133.627H207.3C208.318 133.112 209.26 132.46 210.103 131.691Z" fill="#F2F2F2"/>
<path d="M169.949 60.3097C169.865 60.3093 169.782 60.2879 169.708 60.2474C169.634 60.2069 169.572 60.1487 169.526 60.0779C169.48 60.0072 169.453 59.9261 169.446 59.8421C169.44 59.7581 169.454 59.6738 169.489 59.5969L170.072 58.2961C169.268 57.5825 168.757 56.5975 168.635 55.5299C168.513 54.4623 168.789 53.3873 169.411 52.511C170.033 51.6347 170.957 51.0189 172.005 50.7815C173.053 50.5442 174.151 50.7021 175.09 51.2249C176.029 51.7478 176.742 52.5987 177.092 53.6147C177.442 54.6306 177.404 55.74 176.987 56.7301C176.569 57.7202 175.801 58.5213 174.829 58.9797C173.857 59.4382 172.75 59.5218 171.721 59.2144L170.233 60.2218C170.149 60.2788 170.05 60.3094 169.949 60.3097V60.3097ZM172.958 51.316C172.182 51.3156 171.426 51.5563 170.794 52.0047C170.162 52.4532 169.685 53.0872 169.429 53.819C169.174 54.5507 169.152 55.3438 169.367 56.0884C169.582 56.833 170.024 57.4922 170.631 57.9746L170.814 58.1211L170.187 59.5208L171.627 58.5463L171.769 58.594C172.282 58.7665 172.827 58.8253 173.366 58.7663C173.904 58.7073 174.423 58.5319 174.887 58.2523C175.351 57.9727 175.749 57.5955 176.052 57.147C176.356 56.6984 176.559 56.1892 176.646 55.6546C176.733 55.12 176.703 54.5728 176.558 54.0509C176.413 53.529 176.156 53.045 175.805 52.6322C175.454 52.2195 175.018 51.8881 174.526 51.6608C174.034 51.4335 173.499 51.3159 172.958 51.316V51.316Z" fill="#3F3D56"/>
<path d="M172.958 55.4573C173.292 55.4573 173.564 55.186 173.564 54.8513C173.564 54.5166 173.292 54.2452 172.958 54.2452C172.623 54.2452 172.351 54.5166 172.351 54.8513C172.351 55.186 172.623 55.4573 172.958 55.4573Z" fill="#3F3D56"/>
<path d="M171.24 55.4573C171.575 55.4573 171.846 55.186 171.846 54.8513C171.846 54.5166 171.575 54.2452 171.24 54.2452C170.906 54.2452 170.634 54.5166 170.634 54.8513C170.634 55.186 170.906 55.4573 171.24 55.4573Z" fill="#3F3D56"/>
<path d="M174.675 55.4573C175.009 55.4573 175.281 55.186 175.281 54.8513C175.281 54.5166 175.009 54.2452 174.675 54.2452C174.34 54.2452 174.069 54.5166 174.069 54.8513C174.069 55.186 174.34 55.4573 174.675 55.4573Z" fill="#3F3D56"/>
</g>
<defs>
<clipPath id="clip0">
<rect width="149.81" height="130" fill="white" transform="translate(66 4)"/>
</clipPath>
</defs>
</svg>
