<svg width="282" height="138" viewBox="0 0 282 138" fill="none" xmlns="http://www.w3.org/2000/svg">
<rect width="282" height="138" fill="#1A535C"/>
<path d="M67.3113 70.2596L65.8263 68.8L66.7302 67.8711L61.7585 62.7623L56.6577 67.8711L61.7585 72.9798L62.6625 72.051L64.1475 73.5106L62.2105 75.5011C61.807 75.6877 61.5808 75.7169 61.1774 75.5011L54.1395 68.3355C54.0254 67.899 54.015 67.7309 54.1395 67.3402L61.1129 60.3074C61.5667 60.0691 61.8212 60.0738 62.2751 60.3074L69.3129 67.3402C69.5485 67.7421 69.5428 67.9598 69.3129 68.3355L67.3113 70.2596Z" fill="white" fill-opacity="0.08"/>
<path d="M56.2122 72.2095L57.7056 73.6601L56.8071 74.5944L61.8081 79.6729L66.8794 74.5331L61.7493 69.4554L60.8507 70.3898L59.3572 68.9392L61.2828 66.9369C61.6851 66.7479 61.9111 66.7173 62.3158 66.9307L69.3949 74.0533C69.5115 74.4892 69.523 74.6572 69.4006 75.0486L62.468 82.1239C62.0155 82.3649 61.761 82.3617 61.3058 82.1309L54.2274 75.141C53.9896 74.7405 53.994 74.5229 54.2217 74.1457L56.2122 72.2095Z" fill="white" fill-opacity="0.08"/>
<path d="M221.686 70.2596L220.201 68.8L221.105 67.8711L216.134 62.7623L211.033 67.8711L216.134 72.9798L217.037 72.051L218.523 73.5106L216.585 75.5011C216.182 75.6877 215.956 75.7169 215.552 75.5011L208.515 68.3355C208.4 67.899 208.39 67.7309 208.515 67.3402L215.488 60.3074C215.942 60.0691 216.196 60.0738 216.65 60.3074L223.688 67.3402C223.924 67.7421 223.918 67.9598 223.688 68.3355L221.686 70.2596Z" fill="white" fill-opacity="0.08"/>
<path d="M210.587 72.2095L212.081 73.6601L211.182 74.5944L216.183 79.6729L221.254 74.5331L216.124 69.4554L215.226 70.3898L213.732 68.9392L215.658 66.9369C216.06 66.7479 216.286 66.7173 216.691 66.9307L223.77 74.0533C223.887 74.4892 223.898 74.6572 223.776 75.0486L216.843 82.1239C216.39 82.3649 216.136 82.3617 215.681 82.1309L208.602 75.141C208.365 74.7405 208.369 74.5229 208.597 74.1457L210.587 72.2095Z" fill="white" fill-opacity="0.08"/>
<path d="M261.824 107.955L260.339 106.496L261.243 105.567L256.271 100.458L251.17 105.567L256.271 110.675L257.175 109.747L258.66 111.206L256.723 113.197C256.32 113.383 256.093 113.413 255.69 113.197L248.652 106.031C248.538 105.595 248.527 105.427 248.652 105.036L255.625 98.003C256.079 97.7647 256.334 97.7695 256.788 98.003L263.825 105.036C264.061 105.438 264.055 105.655 263.825 106.031L261.824 107.955Z" fill="white" fill-opacity="0.08"/>
<path d="M250.725 109.905L252.218 111.356L251.32 112.29L256.321 117.369L261.392 112.229L256.262 107.151L255.363 108.085L253.87 106.635L255.795 104.633C256.198 104.444 256.424 104.413 256.828 104.626L263.907 111.749C264.024 112.185 264.035 112.353 263.913 112.744L256.98 119.82C256.528 120.061 256.274 120.057 255.818 119.827L248.74 112.837C248.502 112.436 248.507 112.219 248.734 111.841L250.725 109.905Z" fill="white" fill-opacity="0.08"/>
<path d="M261.824 28.1292L260.339 26.6695L261.243 25.7406L256.271 20.6318L251.17 25.7406L256.271 30.8494L257.175 29.9206L258.66 31.3802L256.723 33.3707C256.32 33.5572 256.093 33.5864 255.69 33.3707L248.652 26.2051C248.538 25.7685 248.527 25.6005 248.652 25.2098L255.625 18.1769C256.079 17.9386 256.334 17.9434 256.788 18.1769L263.825 25.2098C264.061 25.6117 264.055 25.8294 263.825 26.2051L261.824 28.1292Z" fill="white" fill-opacity="0.08"/>
<path d="M250.725 30.079L252.218 31.5297L251.32 32.464L256.321 37.5425L261.392 32.4027L256.262 27.325L255.363 28.2593L253.87 26.8087L255.795 24.8065C256.198 24.6175 256.424 24.5869 256.828 24.8002L263.907 31.9229C264.024 32.3588 264.035 32.5268 263.913 32.9181L256.98 39.9934C256.528 40.2345 256.274 40.2313 255.818 40.0005L248.74 33.0105C248.502 32.6101 248.507 32.3924 248.734 32.0153L250.725 30.079Z" fill="white" fill-opacity="0.08"/>
<path d="M184.636 28.1292L183.151 26.6695L184.055 25.7406L179.084 20.6318L173.983 25.7406L179.084 30.8494L179.987 29.9206L181.473 31.3802L179.535 33.3707C179.132 33.5572 178.906 33.5864 178.502 33.3707L171.465 26.2051C171.35 25.7685 171.34 25.6005 171.465 25.2098L178.438 18.1769C178.892 17.9386 179.146 17.9434 179.6 18.1769L186.638 25.2098C186.874 25.6117 186.868 25.8294 186.638 26.2051L184.636 28.1292Z" fill="white" fill-opacity="0.08"/>
<path d="M173.537 30.079L175.031 31.5297L174.132 32.464L179.133 37.5425L184.204 32.4027L179.074 27.325L178.176 28.2593L176.682 26.8087L178.608 24.8065C179.01 24.6175 179.236 24.5869 179.641 24.8002L186.72 31.9229C186.837 32.3588 186.848 32.5268 186.726 32.9181L179.793 39.9934C179.34 40.2345 179.086 40.2313 178.631 40.0005L171.552 33.0105C171.315 32.6101 171.319 32.3924 171.547 32.0153L173.537 30.079Z" fill="white" fill-opacity="0.08"/>
<path d="M144.499 70.2596L143.014 68.8L143.918 67.8711L138.946 62.7623L133.845 67.8711L138.946 72.9798L139.85 72.051L141.335 73.5106L139.398 75.5011C138.995 75.6877 138.768 75.7169 138.365 75.5011L131.327 68.3355C131.213 67.899 131.202 67.7309 131.327 67.3402L138.3 60.3074C138.754 60.0691 139.009 60.0738 139.463 60.3074L146.5 67.3402C146.736 67.7421 146.73 67.9598 146.5 68.3355L144.499 70.2596Z" fill="white" fill-opacity="0.08"/>
<path d="M133.4 72.2095L134.893 73.6601L133.995 74.5944L138.996 79.6729L144.067 74.5331L138.937 69.4554L138.038 70.3898L136.545 68.9392L138.47 66.9369C138.873 66.7479 139.099 66.7173 139.503 66.9307L146.582 74.0533C146.699 74.4892 146.71 74.6572 146.588 75.0486L139.655 82.1239C139.203 82.3649 138.948 82.3617 138.493 82.1309L131.415 75.141C131.177 74.7405 131.182 74.5229 131.409 74.1457L133.4 72.2095Z" fill="white" fill-opacity="0.08"/>
<path d="M184.636 107.955L183.151 106.496L184.055 105.567L179.084 100.458L173.983 105.567L179.084 110.675L179.987 109.747L181.473 111.206L179.535 113.197C179.132 113.383 178.906 113.413 178.502 113.197L171.465 106.031C171.35 105.595 171.34 105.427 171.465 105.036L178.438 98.003C178.892 97.7647 179.146 97.7695 179.6 98.003L186.638 105.036C186.874 105.438 186.868 105.655 186.638 106.031L184.636 107.955Z" fill="white" fill-opacity="0.08"/>
<path d="M173.537 109.905L175.031 111.356L174.132 112.29L179.133 117.369L184.204 112.229L179.074 107.151L178.176 108.085L176.682 106.635L178.608 104.633C179.01 104.444 179.236 104.413 179.641 104.626L186.72 111.749C186.837 112.185 186.848 112.353 186.726 112.744L179.793 119.82C179.34 120.061 179.086 120.057 178.631 119.827L171.552 112.837C171.315 112.436 171.319 112.219 171.547 111.841L173.537 109.905Z" fill="white" fill-opacity="0.08"/>
<path d="M107.449 107.955L105.964 106.496L106.868 105.567L101.896 100.458L96.7952 105.567L101.896 110.675L102.8 109.747L104.285 111.206L102.348 113.197C101.945 113.383 101.718 113.413 101.315 113.197L94.277 106.031C94.163 105.595 94.1525 105.427 94.277 105.036L101.25 98.003C101.704 97.7647 101.959 97.7695 102.413 98.003L109.45 105.036C109.686 105.438 109.68 105.655 109.45 106.031L107.449 107.955Z" fill="white" fill-opacity="0.08"/>
<path d="M96.3497 109.905L97.8432 111.356L96.9446 112.29L101.946 117.369L107.017 112.229L101.887 107.151L100.988 108.085L99.4947 106.635L101.42 104.633C101.823 104.444 102.049 104.413 102.453 104.626L109.532 111.749C109.649 112.185 109.66 112.353 109.538 112.744L102.605 119.82C102.153 120.061 101.899 120.057 101.443 119.827L94.365 112.837C94.1271 112.436 94.1315 112.219 94.3592 111.841L96.3497 109.905Z" fill="white" fill-opacity="0.08"/>
<path d="M107.449 28.1292L105.964 26.6695L106.868 25.7406L101.896 20.6318L96.7952 25.7406L101.896 30.8494L102.8 29.9206L104.285 31.3802L102.348 33.3707C101.945 33.5572 101.718 33.5864 101.315 33.3707L94.277 26.2051C94.163 25.7685 94.1525 25.6005 94.277 25.2098L101.25 18.1769C101.704 17.9386 101.959 17.9434 102.413 18.1769L109.45 25.2098C109.686 25.6117 109.68 25.8294 109.45 26.2051L107.449 28.1292Z" fill="white" fill-opacity="0.08"/>
<path d="M96.3497 30.079L97.8432 31.5297L96.9446 32.464L101.946 37.5425L107.017 32.4027L101.887 27.325L100.988 28.2593L99.4947 26.8087L101.42 24.8065C101.823 24.6175 102.049 24.5869 102.453 24.8002L109.532 31.9229C109.649 32.3588 109.66 32.5268 109.538 32.9181L102.605 39.9934C102.153 40.2345 101.899 40.2313 101.443 40.0005L94.365 33.0105C94.1271 32.6101 94.1315 32.3924 94.3592 32.0153L96.3497 30.079Z" fill="white" fill-opacity="0.08"/>
<path d="M30.2613 107.955L28.7763 106.496L29.6802 105.567L24.7085 100.458L19.6077 105.567L24.7085 110.675L25.6125 109.747L27.0975 111.206L25.1605 113.197C24.757 113.383 24.5308 113.413 24.1274 113.197L17.0895 106.031C16.9755 105.595 16.965 105.427 17.0895 105.036L24.0629 98.003C24.5168 97.7647 24.7712 97.7695 25.2251 98.003L32.2629 105.036C32.4985 105.438 32.4928 105.655 32.2629 106.031L30.2613 107.955Z" fill="white" fill-opacity="0.08"/>
<path d="M19.1622 109.905L20.6557 111.356L19.7571 112.29L24.7582 117.369L29.8295 112.229L24.6993 107.151L23.8007 108.085L22.3072 106.635L24.2328 104.633C24.6351 104.444 24.8611 104.413 25.2658 104.626L32.3449 111.749C32.4616 112.185 32.473 112.353 32.3506 112.744L25.418 119.82C24.9655 120.061 24.711 120.057 24.2558 119.827L17.1775 112.837C16.9396 112.436 16.944 112.219 17.1717 111.841L19.1622 109.905Z" fill="white" fill-opacity="0.08"/>
<path d="M30.2613 28.1292L28.7763 26.6695L29.6802 25.7406L24.7085 20.6318L19.6077 25.7406L24.7085 30.8494L25.6125 29.9206L27.0975 31.3802L25.1605 33.3707C24.757 33.5572 24.5308 33.5864 24.1274 33.3707L17.0895 26.2051C16.9755 25.7685 16.965 25.6005 17.0895 25.2098L24.0629 18.1769C24.5168 17.9386 24.7712 17.9434 25.2251 18.1769L32.2629 25.2098C32.4985 25.6117 32.4928 25.8294 32.2629 26.2051L30.2613 28.1292Z" fill="white" fill-opacity="0.08"/>
<path d="M19.1622 30.079L20.6557 31.5297L19.7571 32.464L24.7582 37.5425L29.8295 32.4027L24.6993 27.325L23.8007 28.2593L22.3072 26.8087L24.2328 24.8065C24.6351 24.6175 24.8611 24.5869 25.2658 24.8002L32.3449 31.9229C32.4616 32.3588 32.473 32.5268 32.3506 32.9181L25.418 39.9934C24.9655 40.2345 24.711 40.2313 24.2558 40.0005L17.1775 33.0105C16.9396 32.6101 16.944 32.3924 17.1717 32.0153L19.1622 30.079Z" fill="white" fill-opacity="0.08"/>
<g clip-path="url(#clip0)">
<path d="M202.005 86.5207C202.166 86.186 202.251 85.82 202.255 85.4485C202.26 85.0771 202.182 84.7093 202.029 84.3709C201.876 84.0326 201.65 83.7319 201.368 83.4902C201.086 83.2485 200.754 83.0716 200.397 82.9719L199.834 73.96L196.086 76.782L197.194 84.9072C197.067 85.5195 197.168 86.1573 197.479 86.6997C197.791 87.2422 198.29 87.6517 198.883 87.8506C199.476 88.0495 200.121 88.0239 200.696 87.7788C201.272 87.5337 201.737 87.0861 202.005 86.5207V86.5207Z" fill="#FFB8B8"/>
<path d="M218.346 121.945L221.324 122.799L226.034 111.719L221.64 110.459L218.346 121.945Z" fill="#FFB8B8"/>
<path d="M226.274 127.211L216.915 124.527L217.952 120.911L223.695 122.558C224.654 122.833 225.464 123.478 225.948 124.35C226.432 125.223 226.549 126.252 226.274 127.211V127.211V127.211Z" fill="#2F2E41"/>
<path d="M213.575 132.123L210.477 132.123L209.003 120.175L213.575 120.175L213.575 132.123Z" fill="#FFB8B8"/>
<path d="M208.264 131.238H214.239V135H204.503C204.503 134.506 204.6 134.017 204.789 133.56C204.978 133.104 205.255 132.689 205.604 132.34C205.954 131.991 206.368 131.714 206.825 131.525C207.281 131.335 207.77 131.238 208.264 131.238Z" fill="#2F2E41"/>
<path d="M205.007 83.4073C205.007 83.4073 203.239 90.4823 206.271 104.885L208.545 129.648L214.356 129.9L213.598 103.116L215.62 91.9984L220.673 107.412L218.905 118.277L223.2 120.298L228.001 105.39C228.001 105.39 227.496 84.6707 225.474 82.1439L205.007 83.4073Z" fill="#2F2E41"/>
<path d="M212.346 43.1055C215.774 43.1055 218.552 40.327 218.552 36.8994C218.552 33.4719 215.774 30.6934 212.346 30.6934C208.918 30.6934 206.14 33.4719 206.14 36.8994C206.14 40.327 208.918 43.1055 212.346 43.1055Z" fill="#FFB8B8"/>
<path d="M209.05 46.324C209.05 46.324 208.671 47.1574 213.219 46.6425C217.768 46.1276 218.778 44.6211 218.778 44.6211L226.738 79.5359L226.232 82.6254L204.502 83.9127V79.5359L208.292 56.3648L209.05 46.324Z" fill="#E6E6E6"/>
<path d="M210.911 83.03L204.022 82.9L204 82.804C203.111 78.0164 203.196 73.0986 204.252 68.345C205.644 62.1842 202.482 53.829 201.059 50.5228C200.891 50.1295 200.871 49.6889 201.002 49.2821C201.134 48.8753 201.408 48.5297 201.774 48.3089L206.65 45.3833C206.982 45.1842 207.356 45.0654 207.741 45.0364C208.127 45.0074 208.515 45.069 208.872 45.2162C209.23 45.3635 209.549 45.5923 209.802 45.8845C210.056 46.1767 210.238 46.5242 210.334 46.8991L211.186 50.2437C215.113 54.4659 214.837 63.1261 213.913 69.654C213.252 74.1504 212.258 78.5914 210.939 82.9404L210.911 83.03Z" fill="#2F2E41"/>
<path d="M203.112 47.6532L202.516 48.0609C201.17 48.976 200.159 50.3051 199.637 51.8466C199.334 52.7454 199.102 53.6667 198.943 54.6019C198.438 57.6341 196.164 70.5207 196.164 70.5207L195.153 83.1546L200.712 81.8912L203.239 67.2359L205.765 58.1394L203.112 47.6532Z" fill="#2F2E41"/>
<path d="M222.881 83.0902L222.829 82.9449C222.467 81.9433 214.035 58.3504 218.017 50.031L217.627 46.1293C217.585 45.7113 217.648 45.2895 217.81 44.9018C217.971 44.514 218.226 44.1725 218.553 43.9078C218.879 43.6431 219.266 43.4636 219.678 43.3853C220.091 43.3071 220.517 43.3326 220.917 43.4596L227.011 45.3917C227.263 45.4702 227.482 45.6279 227.637 45.8413C227.791 46.0547 227.873 46.3124 227.869 46.5759C227.844 48.8187 227.72 54.5348 227.116 59.1664C226.369 64.8924 228.858 79.1989 228.884 79.3427L228.899 79.4276L222.881 83.0902Z" fill="#2F2E41"/>
<path d="M220.195 76.8172C220.203 76.4458 220.291 76.0805 220.455 75.747C220.618 75.4136 220.853 75.12 221.142 74.8871C221.432 74.6542 221.769 74.4875 222.129 74.3989C222.49 74.3103 222.866 74.3018 223.23 74.3741L227.794 66.583L229.869 70.7918L225.217 77.5451C225.055 78.1491 224.677 78.6727 224.154 79.0167C223.632 79.3607 223.002 79.5011 222.383 79.4114C221.764 79.3217 221.199 79.008 220.796 78.5299C220.393 78.0518 220.179 77.4424 220.195 76.8172V76.8172Z" fill="#FFB8B8"/>
<path d="M226.106 45.3791L226.433 45.4545C226.837 45.5478 227.212 45.7402 227.523 46.0143C227.834 46.2884 228.072 46.6356 228.216 47.0247L233.813 62.1823L227.243 76.585L224.843 70.647L227.875 64.0774L222.442 57.1287L226.106 45.3791Z" fill="#2F2E41"/>
<path d="M218.636 37.7574C218.993 36.8373 219.26 35.8849 219.433 34.9136C219.605 33.9367 219.49 32.9308 219.102 32.018C218.685 31.2196 218.102 30.5201 217.391 29.9665C216.904 29.5523 216.393 29.1675 215.86 28.8141C214.358 27.8183 214.032 28.7244 212.231 28.5206C210.43 28.3168 208.411 27.7988 206.968 28.8738C206.034 29.5829 205.333 30.5544 204.955 31.6641C204.576 32.7737 204.537 33.971 204.843 35.1029C205.245 36.4723 204.925 36.9237 206.168 37.6638C206.167 36.4314 206.636 35.245 207.479 34.3459C208.34 33.4438 209.505 32.8928 210.748 32.7995C211.706 32.7301 212.66 32.9344 213.598 33.1375C214.507 33.3346 215.442 33.5417 216.213 34.0542C217.491 34.9034 218.09 36.42 218.617 37.8426" fill="#2F2E41"/>
<path d="M159.168 61.8742H49V62.3796H159.168V61.8742Z" fill="#E6E6E6"/>
<path d="M159.168 42.1652H49V42.6706H159.168V42.1652Z" fill="#E6E6E6"/>
<path d="M159.168 22.4563H49V22.9616H159.168V22.4563Z" fill="#E6E6E6"/>
<path d="M137.387 3H136.882V81.8358H137.387V3Z" fill="#E6E6E6"/>
<path d="M115.354 3H114.848V81.8358H115.354V3Z" fill="#E6E6E6"/>
<path d="M93.3199 3H92.8145V81.8358H93.3199V3Z" fill="#E6E6E6"/>
<path d="M71.2863 3H70.7809V81.8358H71.2863V3Z" fill="#E6E6E6"/>
<path d="M115.202 22.709H70.9831V42.4179H115.202V22.709Z" fill="#FF6B6B"/>
<path d="M70.9831 40.9018V62.1269L93.9768 41.6599L70.9831 40.9018Z" fill="#FF6B6B"/>
<path d="M115.202 41.6599V42.4179L114.914 42.6731L114.333 43.1886C103.03 43.5297 93.9011 51.6255 93.4891 61.6645L92.9712 62.1244L92.9661 62.1269V40.9019L115.202 41.6599Z" fill="#FF6B6B"/>
<path d="M115.076 42.6706C115.022 42.6706 114.967 42.6706 114.914 42.6731C102.891 42.7489 93.1202 51.4209 92.9712 62.1244C92.9661 62.2103 92.9661 62.2937 92.9661 62.3796C92.9661 73.2473 102.884 82.0885 115.076 82.0885C127.267 82.0885 137.185 73.2473 137.185 62.3796C137.185 51.5118 127.267 42.6706 115.076 42.6706ZM115.076 81.5832C103.164 81.5832 93.4715 72.9693 93.4715 62.3796C93.4715 62.1395 93.4765 61.902 93.4891 61.6645C93.9011 51.6255 103.03 43.5297 114.333 43.1886C114.578 43.1785 114.825 43.176 115.076 43.176C126.987 43.176 136.68 51.7898 136.68 62.3796C136.68 72.9693 126.987 81.5832 115.076 81.5832Z" fill="#E6E6E6"/>
<path d="M102.947 62.131L101.684 62.1239C101.684 62.0115 101.886 50.8846 114.811 50.1129L114.886 51.3741C103.165 52.074 102.95 61.7207 102.947 62.131Z" fill="#E6E6E6"/>
<path d="M127.831 61.8742C127.782 60.434 127.444 59.0183 126.837 57.7113C126.231 56.4043 125.367 55.2326 124.298 54.266C121.786 51.9749 118.501 50.7161 115.101 50.7412H115.076C108.135 50.7412 102.469 55.7114 102.32 61.8742C102.315 61.9576 102.315 62.0435 102.315 62.1269C102.315 65.3511 103.824 68.2644 106.244 70.3364C108.716 72.413 111.848 73.5393 115.076 73.5126H115.101C122.125 73.5 127.836 68.3984 127.836 62.1269C127.836 62.0435 127.836 61.9576 127.831 61.8742Z" fill="#E6E6E6"/>
<path d="M124.298 54.266L123.919 54.6021L106.623 70.0004L106.244 70.3364C103.824 68.2644 102.315 65.3511 102.315 62.1269C102.315 62.0435 102.315 61.9576 102.32 61.8742C102.469 55.7114 108.135 50.7412 115.076 50.7412H115.101C118.501 50.7161 121.786 51.9749 124.298 54.266V54.266Z" fill="#FF6B6B"/>
</g>
<defs>
<clipPath id="clip0">
<rect width="184.813" height="132" fill="white" transform="translate(49 3)"/>
</clipPath>
</defs>
</svg>
