<svg width="282" height="143" viewBox="0 0 282 143" fill="none" xmlns="http://www.w3.org/2000/svg">
<rect width="282" height="138" fill="#1A535C"/>
<path d="M67.3113 70.2596L65.8263 68.8L66.7302 67.8711L61.7585 62.7623L56.6577 67.8711L61.7585 72.9798L62.6625 72.051L64.1475 73.5106L62.2105 75.5011C61.807 75.6877 61.5808 75.7169 61.1774 75.5011L54.1395 68.3355C54.0254 67.899 54.015 67.7309 54.1395 67.3402L61.1129 60.3074C61.5667 60.0691 61.8212 60.0738 62.2751 60.3074L69.3129 67.3402C69.5485 67.7421 69.5428 67.9598 69.3129 68.3355L67.3113 70.2596Z" fill="white" fill-opacity="0.08"/>
<path d="M56.2122 72.2095L57.7056 73.6601L56.8071 74.5944L61.8081 79.6729L66.8794 74.5331L61.7493 69.4554L60.8507 70.3898L59.3572 68.9392L61.2828 66.9369C61.6851 66.7479 61.9111 66.7173 62.3158 66.9307L69.3949 74.0533C69.5115 74.4892 69.523 74.6572 69.4006 75.0486L62.468 82.1239C62.0155 82.3649 61.761 82.3617 61.3058 82.1309L54.2274 75.141C53.9896 74.7405 53.994 74.5229 54.2217 74.1457L56.2122 72.2095Z" fill="white" fill-opacity="0.08"/>
<path d="M221.686 70.2596L220.201 68.8L221.105 67.8711L216.134 62.7623L211.033 67.8711L216.134 72.9798L217.037 72.051L218.523 73.5106L216.585 75.5011C216.182 75.6877 215.956 75.7169 215.552 75.5011L208.515 68.3355C208.4 67.899 208.39 67.7309 208.515 67.3402L215.488 60.3074C215.942 60.0691 216.196 60.0738 216.65 60.3074L223.688 67.3402C223.924 67.7421 223.918 67.9598 223.688 68.3355L221.686 70.2596Z" fill="white" fill-opacity="0.08"/>
<path d="M210.587 72.2095L212.081 73.6601L211.182 74.5944L216.183 79.6729L221.254 74.5331L216.124 69.4554L215.226 70.3898L213.732 68.9392L215.658 66.9369C216.06 66.7479 216.286 66.7173 216.691 66.9307L223.77 74.0533C223.887 74.4892 223.898 74.6572 223.776 75.0486L216.843 82.1239C216.39 82.3649 216.136 82.3617 215.681 82.1309L208.602 75.141C208.365 74.7405 208.369 74.5229 208.597 74.1457L210.587 72.2095Z" fill="white" fill-opacity="0.08"/>
<path d="M261.824 107.955L260.339 106.496L261.243 105.567L256.271 100.458L251.17 105.567L256.271 110.675L257.175 109.747L258.66 111.206L256.723 113.197C256.32 113.383 256.093 113.413 255.69 113.197L248.652 106.031C248.538 105.595 248.527 105.427 248.652 105.036L255.625 98.003C256.079 97.7647 256.334 97.7695 256.788 98.003L263.825 105.036C264.061 105.438 264.055 105.655 263.825 106.031L261.824 107.955Z" fill="white" fill-opacity="0.08"/>
<path d="M250.725 109.905L252.218 111.356L251.32 112.29L256.321 117.369L261.392 112.229L256.262 107.151L255.363 108.085L253.87 106.635L255.795 104.633C256.198 104.444 256.424 104.413 256.828 104.626L263.907 111.749C264.024 112.185 264.035 112.353 263.913 112.744L256.98 119.82C256.528 120.061 256.274 120.057 255.818 119.827L248.74 112.837C248.502 112.436 248.507 112.219 248.734 111.841L250.725 109.905Z" fill="white" fill-opacity="0.08"/>
<path d="M261.824 28.1292L260.339 26.6695L261.243 25.7406L256.271 20.6318L251.17 25.7406L256.271 30.8494L257.175 29.9206L258.66 31.3802L256.723 33.3707C256.32 33.5572 256.093 33.5864 255.69 33.3707L248.652 26.2051C248.538 25.7685 248.527 25.6005 248.652 25.2098L255.625 18.1769C256.079 17.9386 256.334 17.9434 256.788 18.1769L263.825 25.2098C264.061 25.6117 264.055 25.8294 263.825 26.2051L261.824 28.1292Z" fill="white" fill-opacity="0.08"/>
<path d="M250.725 30.079L252.218 31.5297L251.32 32.464L256.321 37.5425L261.392 32.4027L256.262 27.325L255.363 28.2593L253.87 26.8087L255.795 24.8065C256.198 24.6175 256.424 24.5869 256.828 24.8002L263.907 31.9229C264.024 32.3588 264.035 32.5268 263.913 32.9181L256.98 39.9934C256.528 40.2345 256.274 40.2313 255.818 40.0005L248.74 33.0105C248.502 32.6101 248.507 32.3924 248.734 32.0153L250.725 30.079Z" fill="white" fill-opacity="0.08"/>
<path d="M184.636 28.1292L183.151 26.6695L184.055 25.7406L179.084 20.6318L173.983 25.7406L179.084 30.8494L179.987 29.9206L181.473 31.3802L179.535 33.3707C179.132 33.5572 178.906 33.5864 178.502 33.3707L171.465 26.2051C171.35 25.7685 171.34 25.6005 171.465 25.2098L178.438 18.1769C178.892 17.9386 179.146 17.9434 179.6 18.1769L186.638 25.2098C186.874 25.6117 186.868 25.8294 186.638 26.2051L184.636 28.1292Z" fill="white" fill-opacity="0.08"/>
<path d="M173.537 30.079L175.031 31.5297L174.132 32.464L179.133 37.5425L184.204 32.4027L179.074 27.325L178.176 28.2593L176.682 26.8087L178.608 24.8065C179.01 24.6175 179.236 24.5869 179.641 24.8002L186.72 31.9229C186.837 32.3588 186.848 32.5268 186.726 32.9181L179.793 39.9934C179.34 40.2345 179.086 40.2313 178.631 40.0005L171.552 33.0105C171.315 32.6101 171.319 32.3924 171.547 32.0153L173.537 30.079Z" fill="white" fill-opacity="0.08"/>
<path d="M144.499 70.2596L143.014 68.8L143.918 67.8711L138.946 62.7623L133.845 67.8711L138.946 72.9798L139.85 72.051L141.335 73.5106L139.398 75.5011C138.995 75.6877 138.768 75.7169 138.365 75.5011L131.327 68.3355C131.213 67.899 131.202 67.7309 131.327 67.3402L138.3 60.3074C138.754 60.0691 139.009 60.0738 139.463 60.3074L146.5 67.3402C146.736 67.7421 146.73 67.9598 146.5 68.3355L144.499 70.2596Z" fill="white" fill-opacity="0.08"/>
<path d="M133.4 72.2095L134.893 73.6601L133.995 74.5944L138.996 79.6729L144.067 74.5331L138.937 69.4554L138.038 70.3898L136.545 68.9392L138.47 66.9369C138.873 66.7479 139.099 66.7173 139.503 66.9307L146.582 74.0533C146.699 74.4892 146.71 74.6572 146.588 75.0486L139.655 82.1239C139.203 82.3649 138.948 82.3617 138.493 82.1309L131.415 75.141C131.177 74.7405 131.182 74.5229 131.409 74.1457L133.4 72.2095Z" fill="white" fill-opacity="0.08"/>
<path d="M184.636 107.955L183.151 106.496L184.055 105.567L179.084 100.458L173.983 105.567L179.084 110.675L179.987 109.747L181.473 111.206L179.535 113.197C179.132 113.383 178.906 113.413 178.502 113.197L171.465 106.031C171.35 105.595 171.34 105.427 171.465 105.036L178.438 98.003C178.892 97.7647 179.146 97.7695 179.6 98.003L186.638 105.036C186.874 105.438 186.868 105.655 186.638 106.031L184.636 107.955Z" fill="white" fill-opacity="0.08"/>
<path d="M173.537 109.905L175.031 111.356L174.132 112.29L179.133 117.369L184.204 112.229L179.074 107.151L178.176 108.085L176.682 106.635L178.608 104.633C179.01 104.444 179.236 104.413 179.641 104.626L186.72 111.749C186.837 112.185 186.848 112.353 186.726 112.744L179.793 119.82C179.34 120.061 179.086 120.057 178.631 119.827L171.552 112.837C171.315 112.436 171.319 112.219 171.547 111.841L173.537 109.905Z" fill="white" fill-opacity="0.08"/>
<path d="M107.449 107.955L105.964 106.496L106.868 105.567L101.896 100.458L96.7952 105.567L101.896 110.675L102.8 109.747L104.285 111.206L102.348 113.197C101.945 113.383 101.718 113.413 101.315 113.197L94.277 106.031C94.163 105.595 94.1525 105.427 94.277 105.036L101.25 98.003C101.704 97.7647 101.959 97.7695 102.413 98.003L109.45 105.036C109.686 105.438 109.68 105.655 109.45 106.031L107.449 107.955Z" fill="white" fill-opacity="0.08"/>
<path d="M96.3497 109.905L97.8432 111.356L96.9446 112.29L101.946 117.369L107.017 112.229L101.887 107.151L100.988 108.085L99.4947 106.635L101.42 104.633C101.823 104.444 102.049 104.413 102.453 104.626L109.532 111.749C109.649 112.185 109.66 112.353 109.538 112.744L102.605 119.82C102.153 120.061 101.899 120.057 101.443 119.827L94.365 112.837C94.1271 112.436 94.1315 112.219 94.3592 111.841L96.3497 109.905Z" fill="white" fill-opacity="0.08"/>
<path d="M107.449 28.1292L105.964 26.6695L106.868 25.7406L101.896 20.6318L96.7952 25.7406L101.896 30.8494L102.8 29.9206L104.285 31.3802L102.348 33.3707C101.945 33.5572 101.718 33.5864 101.315 33.3707L94.277 26.2051C94.163 25.7685 94.1525 25.6005 94.277 25.2098L101.25 18.1769C101.704 17.9386 101.959 17.9434 102.413 18.1769L109.45 25.2098C109.686 25.6117 109.68 25.8294 109.45 26.2051L107.449 28.1292Z" fill="white" fill-opacity="0.08"/>
<path d="M96.3497 30.079L97.8432 31.5297L96.9446 32.464L101.946 37.5425L107.017 32.4027L101.887 27.325L100.988 28.2593L99.4947 26.8087L101.42 24.8065C101.823 24.6175 102.049 24.5869 102.453 24.8002L109.532 31.9229C109.649 32.3588 109.66 32.5268 109.538 32.9181L102.605 39.9934C102.153 40.2345 101.899 40.2313 101.443 40.0005L94.365 33.0105C94.1271 32.6101 94.1315 32.3924 94.3592 32.0153L96.3497 30.079Z" fill="white" fill-opacity="0.08"/>
<path d="M30.2613 107.955L28.7763 106.496L29.6802 105.567L24.7085 100.458L19.6077 105.567L24.7085 110.675L25.6125 109.747L27.0975 111.206L25.1605 113.197C24.757 113.383 24.5308 113.413 24.1274 113.197L17.0895 106.031C16.9755 105.595 16.965 105.427 17.0895 105.036L24.0629 98.003C24.5168 97.7647 24.7712 97.7695 25.2251 98.003L32.2629 105.036C32.4985 105.438 32.4928 105.655 32.2629 106.031L30.2613 107.955Z" fill="white" fill-opacity="0.08"/>
<path d="M19.1622 109.905L20.6557 111.356L19.7571 112.29L24.7582 117.369L29.8295 112.229L24.6993 107.151L23.8007 108.085L22.3072 106.635L24.2328 104.633C24.6351 104.444 24.8611 104.413 25.2658 104.626L32.3449 111.749C32.4616 112.185 32.473 112.353 32.3506 112.744L25.418 119.82C24.9655 120.061 24.711 120.057 24.2558 119.827L17.1775 112.837C16.9396 112.436 16.944 112.219 17.1717 111.841L19.1622 109.905Z" fill="white" fill-opacity="0.08"/>
<path d="M30.2613 28.1292L28.7763 26.6695L29.6802 25.7406L24.7085 20.6318L19.6077 25.7406L24.7085 30.8494L25.6125 29.9206L27.0975 31.3802L25.1605 33.3707C24.757 33.5572 24.5308 33.5864 24.1274 33.3707L17.0895 26.2051C16.9755 25.7685 16.965 25.6005 17.0895 25.2098L24.0629 18.1769C24.5168 17.9386 24.7712 17.9434 25.2251 18.1769L32.2629 25.2098C32.4985 25.6117 32.4928 25.8294 32.2629 26.2051L30.2613 28.1292Z" fill="white" fill-opacity="0.08"/>
<path d="M19.1622 30.079L20.6557 31.5297L19.7571 32.464L24.7582 37.5425L29.8295 32.4027L24.6993 27.325L23.8007 28.2593L22.3072 26.8087L24.2328 24.8065C24.6351 24.6175 24.8611 24.5869 25.2658 24.8002L32.3449 31.9229C32.4616 32.3588 32.473 32.5268 32.3506 32.9181L25.418 39.9934C24.9655 40.2345 24.711 40.2313 24.2558 40.0005L17.1775 33.0105C16.9396 32.6101 16.944 32.3924 17.1717 32.0153L19.1622 30.079Z" fill="white" fill-opacity="0.08"/>
<g clip-path="url(#clip0)">
<rect x="115.25" y="12.25" width="120.5" height="74.5" fill="white" stroke="#2F2E41" stroke-width="0.5"/>
<path d="M68.8718 105.576H75.4574L91.686 99.2253C91.686 99.2253 103.211 94.5213 102.27 103.459C101.329 112.396 99.6828 124.391 99.6828 124.391C99.6828 124.391 94.5084 122.04 91.686 122.745C88.8636 123.451 90.7452 108.398 90.7452 108.398C90.7452 108.398 67.6958 119.452 65.579 118.041C63.4622 116.63 62.9919 106.752 62.9919 106.752L68.8718 105.576Z" fill="#2F2E41"/>
<path opacity="0.1" d="M68.8718 105.576H75.4574L91.686 99.2253C91.686 99.2253 103.211 94.5213 102.27 103.459C101.329 112.396 99.6828 124.391 99.6828 124.391C99.6828 124.391 94.5084 122.04 91.686 122.745C88.8636 123.451 90.7452 108.398 90.7452 108.398C90.7452 108.398 67.6958 119.452 65.579 118.041C63.4622 116.63 62.9919 106.752 62.9919 106.752L68.8718 105.576Z" fill="black"/>
<path d="M79.2474 84.9521L87.2172 96.4029L105.798 111.926C105.798 111.926 122.967 115.924 120.615 118.747C118.263 121.569 103.916 115.924 103.916 115.924C103.916 115.924 82.5133 100.401 81.8077 99.2253C81.1021 98.0493 73.3405 86.995 73.3405 86.995L79.2474 84.9521Z" fill="#A0616A"/>
<path opacity="0.1" d="M79.2474 84.9521L87.2172 96.4029L105.798 111.926C105.798 111.926 122.967 115.924 120.615 118.747C118.263 121.569 103.916 115.924 103.916 115.924C103.916 115.924 82.5133 100.401 81.8077 99.2253C81.1021 98.0493 73.3405 86.995 73.3405 86.995L79.2474 84.9521Z" fill="black"/>
<path d="M74.5165 75.7055L79.6909 85.819C79.6909 85.819 78.5149 90.7582 76.6333 91.2286C74.7517 91.6989 66.755 85.1134 66.755 85.1134L74.5165 75.7055Z" fill="#D0CDE1"/>
<path opacity="0.1" d="M74.5165 75.7055L79.6909 85.819C79.6909 85.819 78.5149 90.7582 76.6333 91.2286C74.7517 91.6989 66.755 85.1134 66.755 85.1134L74.5165 75.7055Z" fill="black"/>
<path d="M137.642 100.339L139.17 106.644C139.187 106.714 139.184 106.788 139.162 106.857L132.229 128.524C132.201 128.61 132.145 128.684 132.07 128.733C131.995 128.783 131.905 128.805 131.815 128.796C131.726 128.787 131.642 128.748 131.577 128.684C131.513 128.621 131.473 128.538 131.463 128.448L130.503 120.008C130.497 119.952 130.503 119.895 130.52 119.841L136.884 100.31C136.911 100.229 136.963 100.158 137.034 100.109C137.104 100.06 137.188 100.035 137.274 100.039C137.36 100.042 137.442 100.073 137.508 100.127C137.575 100.182 137.621 100.256 137.642 100.339Z" fill="#2F2E41"/>
<path d="M137.079 100.872L138.49 106.281L132.375 126.038L130.964 119.923L137.079 100.872Z" fill="#F2F2F2"/>
<path d="M106.268 130.271C106.503 130.977 130.729 130.036 130.964 129.801C131.169 129.507 131.343 129.191 131.482 128.86C131.703 128.39 131.905 127.919 131.905 127.919L130.964 120.304L106.974 119.452C106.974 119.452 106.374 125.906 106.252 128.86C106.221 129.606 106.221 130.13 106.268 130.271Z" fill="#2F2E41"/>
<path opacity="0.1" d="M127.907 121.334L128.377 127.919H117.793V121.334H127.907Z" fill="black"/>
<path opacity="0.1" d="M114.265 123.451L114.328 123.438L114.03 126.273H108.15V123.451H114.265Z" fill="black"/>
<path opacity="0.1" d="M106.268 130.271C106.503 130.977 130.729 130.036 130.964 129.801C131.169 129.507 131.343 129.191 131.482 128.86H106.252C106.221 129.606 106.221 130.13 106.268 130.271Z" fill="black"/>
<path d="M78.0445 72.4127C83.8899 72.4127 88.6284 67.6741 88.6284 61.8288C88.6284 55.9835 83.8899 51.2449 78.0445 51.2449C72.1992 51.2449 67.4606 55.9835 67.4606 61.8288C67.4606 67.6741 72.1992 72.4127 78.0445 72.4127Z" fill="#A0616A"/>
<path d="M77.3389 71.2367C77.3389 71.2367 73.8109 77.3519 73.1053 80.6447C72.3998 83.9374 62.5214 74.0591 62.5214 74.0591L61.2278 70.6487C61.2278 70.6487 70.5182 66.2976 69.8126 62.7696C69.107 59.2416 77.3389 71.2367 77.3389 71.2367Z" fill="#A0616A"/>
<path d="M79.2205 89.5822L88.8636 102.283L111.913 119.452C111.913 119.452 128.612 122.98 124.849 125.567C121.086 128.155 110.267 123.216 110.267 123.216C110.267 123.216 86.9821 110.75 82.0429 105.576C77.1037 100.401 67.931 91.6989 67.931 91.6989L79.2205 89.5822Z" fill="#A0616A"/>
<path d="M66.2846 109.339L69.107 113.808L85.9512 108.508C89.6471 107.346 93.6998 107.773 96.978 109.839C99.9179 111.691 101.8 114.631 97.566 118.982C89.0988 127.684 83.4541 122.98 83.4541 122.98C83.4541 122.98 54.9951 136.387 50.2911 129.801C45.5872 123.215 45.352 119.923 45.352 119.923C45.352 119.923 63.4622 108.633 66.2846 109.339Z" fill="#2F2E41"/>
<path d="M101.564 124.862C101.564 124.862 109.091 129.801 100.153 132.153C91.2156 134.505 84.6301 131.212 84.6301 131.212C84.6301 131.212 76.8685 131.212 76.8685 127.214C76.8685 123.215 79.4557 122.745 79.4557 122.745L87.4524 123.921C87.4524 123.921 97.0956 121.334 101.564 124.862Z" fill="#D0CDE1"/>
<path d="M86.727 59.1664C87.4474 59.4875 88.1617 59.8676 88.9449 59.9608C89.7281 60.054 90.6199 59.7806 90.9905 59.0844C91.1907 58.7083 91.2136 58.266 91.2229 57.8401C91.2512 56.5486 91.1578 55.1524 90.3394 54.1529C89.8185 53.5168 89.0582 53.1158 88.519 52.4951C88.1327 52.0504 87.8756 51.5114 87.5988 50.9915C86.5502 49.0221 84.9977 47.1294 82.84 46.5617C81.939 46.3246 80.9939 46.3362 80.0623 46.3493L74.6286 46.426C73.7493 46.4384 72.8565 46.4528 72.0147 46.7073C70.2658 47.2361 68.9924 48.7068 67.8261 50.1133C66.9536 51.1656 66.0788 52.2288 65.4239 53.4287C64.4851 55.1797 64.0103 57.142 64.045 59.1286C64.0377 59.638 64.1035 60.1459 64.2403 60.6368C64.4004 61.0869 64.5987 61.5225 64.8331 61.9388C65.8521 63.9403 66.4571 66.4403 65.3096 68.3709C67.303 67.5566 69.2754 66.4889 70.5904 64.7837C71.1786 64.0209 71.64 63.1279 72.424 62.5681C73.2079 62.0083 74.4854 61.9597 74.9884 62.7813C75.1612 63.1136 75.2503 63.4832 75.2477 63.8578C75.2844 64.4745 75.2834 65.1149 75.5449 65.6746C75.8063 66.2343 76.4292 66.686 77.0238 66.5185C78.0478 66.23 77.9497 64.6584 78.7385 63.9444C79.3375 63.4022 80.2616 63.5059 81.0311 63.2597C81.9277 62.973 82.6005 62.1962 82.9838 61.3365C83.2752 60.6829 83.271 58.9728 83.8223 58.6189C84.5137 58.1751 86.0861 58.8807 86.727 59.1664Z" fill="#2F2E41"/>
<path d="M60.3877 69.5331C60.8638 69.406 61.3651 69.4073 61.8406 69.5368C63.3504 69.9421 66.7349 71.0151 67.4606 72.6479C68.4014 74.7647 71.6942 78.0575 71.6942 78.0575C71.6942 78.0575 76.1629 82.5262 75.2221 85.5838C74.2813 88.6414 70.7534 92.1693 70.7534 92.1693C70.7534 92.1693 71.6942 106.752 66.9902 110.515C62.2862 114.278 60.4047 111.691 60.4047 115.219C60.4047 118.747 45.8224 129.801 43 122.98C43 122.98 44.4112 110.28 43.9408 105.811C43.4772 101.407 44.1559 73.9274 60.3877 69.5331Z" fill="#D0CDE1"/>
<path d="M67.931 75.4703C67.931 75.4703 82.2781 86.0542 79.6909 90.523C79.6909 90.523 70.9886 94.7565 69.107 94.5213C67.2254 94.2861 59.9343 86.0542 58.0527 85.3486C56.1711 84.643 55.2303 71.9423 67.931 75.4703Z" fill="#D0CDE1"/>
<path d="M133.031 62.0656C139.448 62.0656 144.65 56.8636 144.65 50.4466C144.65 44.0296 139.448 38.8275 133.031 38.8275C126.614 38.8275 121.412 44.0296 121.412 50.4466C121.412 56.8636 126.614 62.0656 133.031 62.0656Z" fill="#FF6B6B"/>
<path d="M228.998 35.3566H163.887V21.7321H228.998V35.3566ZM164.174 35.0698H228.711V22.0189H164.174V35.0698Z" fill="#2F2E41"/>
<path d="M224.265 24.457H159.441V37.7947H224.265V24.457Z" fill="#FF6B6B"/>
<path d="M118.463 11.7288C119.017 11.7288 119.467 11.2793 119.467 10.7249C119.467 10.1704 119.017 9.72096 118.463 9.72096C117.908 9.72096 117.459 10.1704 117.459 10.7249C117.459 11.2793 117.908 11.7288 118.463 11.7288Z" fill="#FF6B6B"/>
<path d="M121.905 11.7288C122.459 11.7288 122.909 11.2793 122.909 10.7249C122.909 10.1704 122.459 9.72096 121.905 9.72096C121.35 9.72096 120.901 10.1704 120.901 10.7249C120.901 11.2793 121.35 11.7288 121.905 11.7288Z" fill="#FF6B6B"/>
<path d="M125.347 11.7288C125.901 11.7288 126.351 11.2793 126.351 10.7249C126.351 10.1704 125.901 9.72096 125.347 9.72096C124.792 9.72096 124.343 10.1704 124.343 10.7249C124.343 11.2793 124.792 11.7288 125.347 11.7288Z" fill="#FF6B6B"/>
<path d="M236 87H115V8H236V87ZM115.287 86.7117H235.713V8.28832H115.287V86.7117Z" fill="#2F2E41"/>
<path d="M236 13H115V12H236V13Z" fill="#2F2E41"/>
<path d="M118.75 11.442C118.523 11.442 118.301 11.3747 118.112 11.2486C117.923 11.1226 117.776 10.9434 117.69 10.7337C117.603 10.5241 117.58 10.2934 117.624 10.0708C117.668 9.84826 117.778 9.64383 117.938 9.48337C118.099 9.32291 118.303 9.21364 118.526 9.16937C118.748 9.1251 118.979 9.14782 119.189 9.23466C119.398 9.3215 119.577 9.46856 119.703 9.65723C119.83 9.84591 119.897 10.0677 119.897 10.2947C119.896 10.5988 119.775 10.8905 119.56 11.1055C119.345 11.3206 119.054 11.4416 118.75 11.442ZM118.75 9.43416C118.579 9.43416 118.413 9.48462 118.271 9.57918C118.13 9.67373 118.02 9.80812 117.955 9.96536C117.889 10.1226 117.872 10.2956 117.906 10.4625C117.939 10.6294 118.021 10.7828 118.141 10.9031C118.261 11.0235 118.415 11.1054 118.582 11.1386C118.749 11.1718 118.922 11.1548 119.079 11.0896C119.236 11.0245 119.37 10.9142 119.465 10.7727C119.56 10.6312 119.61 10.4648 119.61 10.2947C119.61 10.0665 119.519 9.8478 119.358 9.68648C119.196 9.52517 118.978 9.43442 118.75 9.43416Z" fill="white"/>
<path d="M122.191 11.442C121.965 11.442 121.743 11.3747 121.554 11.2486C121.365 11.1226 121.218 10.9434 121.131 10.7337C121.045 10.5241 121.022 10.2934 121.066 10.0708C121.11 9.84826 121.22 9.64383 121.38 9.48337C121.541 9.32291 121.745 9.21364 121.968 9.16937C122.19 9.1251 122.421 9.14782 122.631 9.23466C122.84 9.3215 123.019 9.46856 123.145 9.65723C123.272 9.84591 123.339 10.0677 123.339 10.2947C123.338 10.5988 123.217 10.8905 123.002 11.1055C122.787 11.3206 122.496 11.4416 122.191 11.442ZM122.191 9.43416C122.021 9.43416 121.855 9.48462 121.713 9.57918C121.572 9.67373 121.462 9.80812 121.396 9.96536C121.331 10.1226 121.314 10.2956 121.348 10.4625C121.381 10.6294 121.463 10.7828 121.583 10.9031C121.703 11.0235 121.857 11.1054 122.024 11.1386C122.191 11.1718 122.364 11.1548 122.521 11.0896C122.678 11.0245 122.812 10.9142 122.907 10.7727C123.002 10.6312 123.052 10.4648 123.052 10.2947C123.052 10.0665 122.961 9.8478 122.8 9.68648C122.638 9.52517 122.42 9.43442 122.191 9.43416Z" fill="white"/>
<path d="M125.633 11.442C125.407 11.442 125.185 11.3747 124.996 11.2486C124.807 11.1226 124.66 10.9434 124.573 10.7337C124.487 10.5241 124.464 10.2934 124.508 10.0708C124.552 9.84826 124.662 9.64383 124.822 9.48337C124.983 9.32291 125.187 9.21364 125.41 9.16937C125.632 9.1251 125.863 9.14782 126.073 9.23466C126.282 9.3215 126.461 9.46855 126.587 9.65723C126.714 9.84591 126.781 10.0677 126.781 10.2947C126.78 10.5988 126.659 10.8905 126.444 11.1055C126.229 11.3206 125.938 11.4416 125.633 11.442ZM125.633 9.43416C125.463 9.43416 125.297 9.48462 125.155 9.57918C125.014 9.67373 124.904 9.80812 124.838 9.96535C124.773 10.1226 124.756 10.2956 124.79 10.4625C124.823 10.6294 124.905 10.7828 125.025 10.9031C125.145 11.0235 125.299 11.1054 125.466 11.1386C125.633 11.1718 125.806 11.1548 125.963 11.0896C126.12 11.0245 126.254 10.9142 126.349 10.7727C126.444 10.6312 126.494 10.4648 126.494 10.2947C126.494 10.0665 126.403 9.8478 126.242 9.68648C126.08 9.52517 125.862 9.43442 125.633 9.43416Z" fill="white"/>
<path d="M153.704 12.4939H153.417V86.5599H153.704V12.4939Z" fill="#2F2E41"/>
<path d="M188.196 48.9094H167.114V51.7778H188.196V48.9094Z" fill="#F2F2F2"/>
<path d="M221.325 48.9094H200.243V51.7778H221.325V48.9094Z" fill="#F2F2F2"/>
<path d="M189.487 50.487H168.118V47.3319H189.487V50.487ZM168.405 50.2002H189.2V47.6187H168.405V50.2002Z" fill="#2F2E41"/>
<path d="M188.196 71.1389H167.114V74.0073H188.196V71.1389Z" fill="#F2F2F2"/>
<path d="M189.487 72.7165H168.118V69.5614H189.487V72.7165ZM168.405 72.4297H189.2V69.8482H168.405V72.4297Z" fill="#2F2E41"/>
<path d="M221.397 59.7374H167.185V62.6057H221.397V59.7374Z" fill="#F2F2F2"/>
<path d="M222.687 61.6018H168.189V58.4466H222.687V61.6018ZM168.476 61.3149H222.401V58.7334H168.476V61.3149Z" fill="#2F2E41"/>
<path d="M222.616 50.487H201.247V47.3319H222.616V50.487ZM201.534 50.2002H222.329V47.6187H201.534V50.2002Z" fill="#2F2E41"/>
<path d="M134.997 59.0267C132.664 59.0267 130.383 58.3348 128.443 57.0385C126.503 55.7421 124.99 53.8996 124.097 51.7438C123.205 49.588 122.971 47.2159 123.426 44.9274C123.881 42.6388 125.005 40.5367 126.655 38.8867C128.305 37.2368 130.407 36.1131 132.696 35.6579C134.984 35.2027 137.356 35.4363 139.512 36.3293C141.668 37.2222 143.51 38.7344 144.807 40.6745C146.103 42.6146 146.795 44.8956 146.795 47.229C146.791 50.3569 145.547 53.3556 143.336 55.5674C141.124 57.7791 138.125 59.0232 134.997 59.0267ZM134.997 35.7887C132.735 35.7887 130.523 36.4597 128.641 37.7168C126.76 38.9738 125.294 40.7606 124.428 42.851C123.562 44.9414 123.335 47.2417 123.777 49.4609C124.218 51.6801 125.308 53.7185 126.908 55.3185C128.508 56.9184 130.546 58.008 132.765 58.4494C134.984 58.8908 137.285 58.6643 139.375 57.7984C141.466 56.9325 143.252 55.4662 144.509 53.5848C145.766 51.7035 146.437 49.4917 146.437 47.229C146.434 44.1959 145.228 41.288 143.083 39.1433C140.938 36.9986 138.03 35.7922 134.997 35.7887Z" fill="#2F2E41"/>
</g>
<defs>
<clipPath id="clip0">
<rect width="192.351" height="135" fill="white" transform="translate(44 8)"/>
</clipPath>
</defs>
</svg>
