<svg width="1909" height="333" viewBox="0 0 1909 333" fill="none" xmlns="http://www.w3.org/2000/svg">
<path d="M207.309 152.051L184.318 130.14L198.313 116.196L121.342 39.5069L42.3716 116.196L121.342 192.885L135.337 178.942L158.328 200.853L128.339 230.732C122.093 233.533 118.591 233.971 112.345 230.732L3.38633 123.168C1.6199 116.615 1.45757 114.092 3.38634 108.228L111.346 2.65621C118.373 -0.921196 122.312 -0.849429 129.339 2.65621L238.298 108.228C241.945 114.261 241.857 117.528 238.298 123.168L207.309 152.051Z" fill="#1A936F"/>
<path d="M34.2264 180.604L57.3849 202.401L43.4509 216.44L121.001 292.748L199.64 215.519L120.088 139.223L106.154 153.262L82.9952 131.466L112.854 101.381C119.093 98.5409 122.598 98.0816 128.873 101.287L238.646 208.31C240.455 214.859 240.632 217.384 238.735 223.264L131.233 329.575C124.216 333.197 120.27 333.149 113.211 329.681L3.44979 224.652C-0.238792 218.635 -0.170162 215.365 3.3608 209.698L34.2264 180.604Z" fill="#1A936F"/>
<path d="M418.95 104.762C418.125 106.137 417.208 107.192 416.2 107.925C415.283 108.567 414.138 108.887 412.763 108.887C411.204 108.887 409.371 108.108 407.263 106.55C405.154 104.992 402.496 103.296 399.288 101.462C396.171 99.5375 392.367 97.7958 387.875 96.2375C383.475 94.6792 378.113 93.9 371.788 93.9C365.829 93.9 360.558 94.725 355.975 96.375C351.483 97.9333 347.679 100.087 344.563 102.837C341.538 105.587 339.246 108.842 337.688 112.6C336.129 116.267 335.35 120.254 335.35 124.562C335.35 130.062 336.679 134.646 339.338 138.312C342.088 141.887 345.663 144.958 350.063 147.525C354.554 150.092 359.596 152.337 365.188 154.262C370.871 156.096 376.646 158.021 382.513 160.037C388.471 162.054 394.246 164.346 399.838 166.912C405.521 169.387 410.563 172.55 414.963 176.4C419.454 180.25 423.029 184.971 425.688 190.562C428.438 196.154 429.813 203.029 429.813 211.187C429.813 219.804 428.346 227.917 425.413 235.525C422.479 243.042 418.171 249.596 412.488 255.187C406.896 260.779 399.975 265.179 391.725 268.387C383.567 271.596 374.263 273.2 363.813 273.2C350.979 273.2 339.338 270.908 328.888 266.325C318.438 261.65 309.5 255.371 302.075 247.487L309.775 234.837C310.508 233.829 311.379 233.004 312.388 232.362C313.488 231.629 314.679 231.262 315.963 231.262C317.154 231.262 318.483 231.767 319.95 232.775C321.508 233.692 323.25 234.883 325.175 236.35C327.1 237.817 329.3 239.421 331.775 241.162C334.25 242.904 337.046 244.508 340.163 245.975C343.371 247.442 346.992 248.679 351.025 249.687C355.058 250.604 359.596 251.062 364.638 251.062C370.963 251.062 376.6 250.192 381.55 248.45C386.5 246.708 390.671 244.279 394.063 241.162C397.546 237.954 400.204 234.15 402.038 229.75C403.871 225.35 404.788 220.446 404.788 215.037C404.788 209.079 403.413 204.221 400.663 200.462C398.004 196.612 394.475 193.404 390.075 190.837C385.675 188.271 380.633 186.117 374.95 184.375C369.267 182.542 363.492 180.708 357.625 178.875C351.758 176.95 345.983 174.75 340.3 172.275C334.617 169.8 329.575 166.592 325.175 162.65C320.775 158.708 317.2 153.804 314.45 147.937C311.792 141.979 310.463 134.646 310.463 125.937C310.463 118.971 311.792 112.233 314.45 105.725C317.2 99.2167 321.142 93.4417 326.275 88.4C331.5 83.3583 337.871 79.325 345.388 76.3C352.996 73.275 361.704 71.7625 371.513 71.7625C382.513 71.7625 392.504 73.5042 401.488 76.9875C410.563 80.4708 418.538 85.5125 425.413 92.1125L418.95 104.762ZM494.016 160.312H504.054C507.537 160.312 510.333 159.9 512.441 159.075C514.55 158.158 516.475 156.646 518.216 154.537L583.804 80.2875C585.637 77.9042 587.562 76.2542 589.579 75.3375C591.596 74.4208 594.071 73.9625 597.004 73.9625H619.554L544.479 158.8C542.646 161 540.858 162.833 539.116 164.3C537.466 165.675 535.679 166.821 533.754 167.737C536.229 168.562 538.475 169.8 540.491 171.45C542.508 173.008 544.479 175.071 546.404 177.637L624.779 271H601.679C599.937 271 598.425 270.908 597.141 270.725C595.95 270.45 594.896 270.083 593.979 269.625C593.062 269.075 592.237 268.479 591.504 267.837C590.862 267.104 590.221 266.279 589.579 265.362L521.654 187.125C519.821 184.833 517.85 183.229 515.741 182.312C513.633 181.304 510.425 180.8 506.116 180.8H494.016V271H467.479V73.9625H494.016V160.312ZM676.234 271H649.559V73.9625H676.234V271ZM838.422 248.587V271H726.634V73.9625H753.172V248.587H838.422ZM979.681 248.587V271H867.894V73.9625H894.431V248.587H979.681ZM1113.79 197.85L1082.85 117.687C1081.94 115.304 1080.97 112.554 1079.97 109.437C1078.96 106.229 1078 102.837 1077.08 99.2625C1075.15 106.687 1073.18 112.875 1071.17 117.825L1040.23 197.85H1113.79ZM1169.34 271H1148.72C1146.33 271 1144.41 270.404 1142.94 269.212C1141.47 268.021 1140.37 266.508 1139.64 264.675L1121.22 217.1H1032.8L1014.38 264.675C1013.83 266.325 1012.77 267.792 1011.22 269.075C1009.66 270.358 1007.73 271 1005.44 271H984.816L1063.6 73.9625H1090.55L1169.34 271ZM1354.9 73.9625V271H1341.56C1339.45 271 1337.67 270.633 1336.2 269.9C1334.82 269.167 1333.45 267.929 1332.07 266.187L1218.09 117.687C1218.27 119.979 1218.41 122.225 1218.5 124.425C1218.59 126.625 1218.64 128.687 1218.64 130.612V271H1195.26V73.9625H1209.01C1210.2 73.9625 1211.21 74.0542 1212.04 74.2375C1212.86 74.3292 1213.6 74.5583 1214.24 74.925C1214.88 75.2 1215.52 75.6583 1216.16 76.3C1216.8 76.85 1217.49 77.5833 1218.22 78.5L1332.21 226.862C1332.03 224.479 1331.85 222.187 1331.66 219.987C1331.57 217.696 1331.52 215.542 1331.52 213.525V73.9625H1354.9ZM1543.6 230.3C1545.06 230.3 1546.35 230.896 1547.45 232.087L1558.03 243.5C1549.97 252.85 1540.16 260.137 1528.61 265.362C1517.15 270.588 1503.26 273.2 1486.95 273.2C1472.83 273.2 1460 270.771 1448.45 265.912C1436.9 260.962 1427.04 254.087 1418.88 245.287C1410.73 236.396 1404.4 225.762 1399.91 213.387C1395.42 201.012 1393.17 187.4 1393.17 172.55C1393.17 157.7 1395.51 144.087 1400.18 131.712C1404.86 119.337 1411.41 108.704 1419.85 99.8125C1428.37 90.9208 1438.55 84.0458 1450.37 79.1875C1462.2 74.2375 1475.26 71.7625 1489.56 71.7625C1503.58 71.7625 1515.96 74.0083 1526.68 78.5C1537.41 82.9917 1546.85 89.0875 1555.01 96.7875L1546.21 109.025C1545.66 109.942 1544.93 110.721 1544.01 111.362C1543.18 111.912 1542.04 112.187 1540.57 112.187C1538.92 112.187 1536.91 111.317 1534.52 109.575C1532.14 107.742 1529.02 105.725 1525.17 103.525C1521.32 101.325 1516.51 99.3542 1510.73 97.6125C1504.96 95.7792 1497.86 94.8625 1489.42 94.8625C1479.25 94.8625 1469.94 96.65 1461.51 100.225C1453.08 103.708 1445.79 108.796 1439.65 115.487C1433.6 122.179 1428.88 130.337 1425.48 139.962C1422.09 149.587 1420.4 160.45 1420.4 172.55C1420.4 184.833 1422.14 195.787 1425.62 205.412C1429.2 215.037 1434.01 223.196 1440.06 229.887C1446.2 236.487 1453.4 241.529 1461.65 245.012C1469.99 248.496 1478.97 250.237 1488.6 250.237C1494.46 250.237 1499.73 249.917 1504.41 249.275C1509.18 248.542 1513.53 247.442 1517.47 245.975C1521.51 244.508 1525.22 242.675 1528.61 240.475C1532.09 238.183 1535.53 235.479 1538.92 232.362C1540.48 230.987 1542.04 230.3 1543.6 230.3ZM1710.51 249.275L1710.38 271H1588.96V73.9625H1710.38V95.6875H1615.64V161.137H1692.36V182.037H1615.64V249.275H1710.51ZM1802.27 169.387C1809.97 169.387 1816.75 168.471 1822.62 166.637C1828.57 164.712 1833.52 162.054 1837.47 158.662C1841.5 155.179 1844.52 151.054 1846.54 146.287C1848.56 141.521 1849.57 136.25 1849.57 130.475C1849.57 118.742 1845.72 109.896 1838.02 103.937C1830.32 97.9792 1818.77 95 1803.37 95H1774.22V169.387H1802.27ZM1893.29 271H1869.64C1864.78 271 1861.21 269.121 1858.92 265.362L1807.77 194.962C1806.21 192.762 1804.51 191.204 1802.68 190.287C1800.94 189.279 1798.19 188.775 1794.43 188.775H1774.22V271H1747.68V73.9625H1803.37C1815.83 73.9625 1826.6 75.2458 1835.68 77.8125C1844.75 80.2875 1852.22 83.9083 1858.09 88.675C1864.05 93.4417 1868.45 99.2167 1871.29 106C1874.13 112.692 1875.55 120.208 1875.55 128.55C1875.55 135.517 1874.45 142.025 1872.25 148.075C1870.05 154.125 1866.85 159.579 1862.63 164.437C1858.5 169.204 1853.42 173.283 1847.37 176.675C1841.41 180.067 1834.62 182.633 1827.02 184.375C1830.41 186.3 1833.34 189.096 1835.82 192.762L1893.29 271Z" fill="white"/>
</svg>
