<svg width="2288" height="1034" viewBox="0 0 2288 1034" fill="none" xmlns="http://www.w3.org/2000/svg">
<path d="M661.5 985.634C269.1 1137.95 97.8333 884.911 0 768.5V0H2288V926.5C2226 955.077 2043.24 1053.2 1859.5 985.634C1620 897.559 1398 853.956 1338 846.448C1278 838.939 1152 795.239 661.5 985.634Z" fill="#FF6B6B"/>
<path d="M1874.09 746.273C1882.89 727.266 1891.68 707.979 1895.5 687.385C1899.32 666.792 1897.72 644.443 1886.78 626.581C1875.84 608.72 1854.31 596.607 1833.75 600.645C1816.87 603.961 1803.32 617.256 1795.39 632.518C1787.45 647.78 1784.26 664.994 1781.18 681.917C1780.18 662.691 1779.12 643.156 1772.74 624.995C1766.35 606.834 1753.78 589.909 1735.85 582.881C1717.93 575.854 1694.61 581.38 1685.17 598.155C1671.86 621.787 1689.51 654.937 1674.2 677.33C1671.58 654.868 1648.09 637.121 1625.76 640.734C1603.44 644.346 1586.75 668.594 1591.34 690.738C1594.07 703.914 1603.06 715.121 1613.81 723.218C1624.56 731.314 1637.06 740.698 1649.42 746.005L1874.09 746.273Z" fill="#F2F2F2"/>
<path d="M1603.06 656.603C1620.79 662.802 1638.69 669.07 1654.88 678.761C1669.39 687.446 1682.31 699.14 1690.47 714.115C1694.94 722.149 1697.59 731.065 1698.25 740.236C1698.36 742.154 1701.36 742.168 1701.25 740.236C1700.2 723.158 1691.87 707.529 1680.35 695.168C1667.71 681.616 1651.34 672.361 1634.43 665.179C1624.41 660.921 1614.13 657.302 1603.86 653.71C1602.03 653.072 1601.25 655.969 1603.06 656.603Z" fill="white"/>
<path d="M1705.35 585.859C1716.24 604.01 1724.97 623.378 1731.34 643.565C1737.73 663.745 1741.75 684.598 1743.33 705.706C1744.2 717.522 1744.3 729.382 1743.62 741.211C1743.5 743.139 1746.5 743.133 1746.62 741.211C1747.83 719.884 1746.53 698.49 1742.77 677.464C1739.01 656.44 1732.83 635.922 1724.36 616.319C1719.6 605.308 1714.11 594.626 1707.94 584.345C1707.73 584.016 1707.4 583.78 1707.02 583.688C1706.64 583.596 1706.25 583.654 1705.91 583.85C1705.57 584.047 1705.33 584.366 1705.22 584.741C1705.12 585.116 1705.16 585.516 1705.35 585.859Z" fill="white"/>
<path d="M1852.18 603.091C1836.77 637.717 1825.92 674.198 1819.91 711.619C1818.23 722.13 1816.92 732.692 1816 743.307C1815.83 745.23 1818.83 745.218 1819 743.307C1822.27 705.969 1830.33 669.209 1843.01 633.937C1846.57 624.02 1850.49 614.243 1854.77 604.606C1855.54 602.857 1852.96 601.329 1852.18 603.091Z" fill="white"/>
<path d="M1423.07 744.029C1392.33 736.029 1365.17 717.942 1345.94 692.666C1326.71 667.391 1316.53 636.39 1317.02 604.635C1317.14 596.723 1317.97 588.645 1321.3 581.465C1324.62 574.285 1330.8 568.074 1338.53 566.373C1346.96 564.516 1355.86 568.312 1362.15 574.234C1368.43 580.156 1372.55 587.97 1376.34 595.729C1399.18 642.463 1416.53 692.609 1423.03 744.217L1423.07 744.029Z" fill="#F2F2F2"/>
<path d="M1334.7 567.932L1350.71 604.299L1366.71 640.667C1371.78 652.184 1376.84 663.707 1382.08 675.148C1387.28 686.489 1392.65 697.751 1398.38 708.832C1404.1 719.897 1410.18 730.781 1416.78 741.347C1417.6 742.663 1418.43 743.974 1419.27 745.279C1419.85 746.184 1421.3 745.345 1420.72 744.434C1413.99 733.946 1407.79 723.129 1401.98 712.11C1396.16 701.08 1390.72 689.853 1385.48 678.536C1380.21 667.159 1375.14 655.689 1370.09 644.215C1364.78 632.137 1359.46 620.059 1354.15 607.98L1338.14 571.613L1336.15 567.087C1335.71 566.103 1334.27 566.954 1334.7 567.932Z" fill="white"/>
<path d="M1416.39 744.281C1398.28 748.426 1379.29 746.367 1362.48 738.436C1345.68 730.505 1332.02 717.16 1323.7 700.541C1321.63 696.4 1319.88 691.981 1319.67 687.356C1319.46 682.73 1320.99 677.838 1324.54 674.869C1328.42 671.628 1334.06 671.196 1338.92 672.574C1343.79 673.952 1348.04 676.896 1352.1 679.901C1376.57 697.999 1399.12 719.349 1416.42 744.39L1416.39 744.281Z" fill="#F2F2F2"/>
<path d="M1322.97 676.711L1341.1 691.271L1359.23 705.831C1364.97 710.443 1370.71 715.059 1376.52 719.585C1382.28 724.071 1388.1 728.468 1394.07 732.674C1400.03 736.874 1406.12 740.883 1412.4 744.586C1413.19 745.048 1413.97 745.504 1414.76 745.955C1415.3 746.268 1415.83 745.441 1415.28 745.126C1408.96 741.498 1402.82 737.555 1396.82 733.404C1390.82 729.248 1384.97 724.888 1379.19 720.427C1373.39 715.942 1367.66 711.355 1361.94 706.761C1355.92 701.926 1349.9 697.09 1343.88 692.254L1325.75 677.694L1323.5 675.882C1323.01 675.488 1322.49 676.319 1322.97 676.711Z" fill="white"/>
<path d="M2187.97 746.616H1360.67C1360.52 746.616 1360.36 746.586 1360.22 746.526C1360.07 746.467 1359.94 746.379 1359.83 746.268C1359.72 746.158 1359.63 746.026 1359.57 745.882C1359.51 745.737 1359.48 745.582 1359.48 745.425C1359.48 745.269 1359.51 745.113 1359.57 744.969C1359.63 744.824 1359.72 744.693 1359.83 744.582C1359.94 744.471 1360.07 744.384 1360.22 744.324C1360.36 744.265 1360.52 744.234 1360.67 744.235H2187.97C2188.28 744.235 2188.58 744.36 2188.81 744.583C2189.03 744.807 2189.16 745.109 2189.16 745.425C2189.16 745.741 2189.03 746.044 2188.81 746.267C2188.58 746.49 2188.28 746.616 2187.97 746.616Z" fill="#3F3D56"/>
<path d="M2166.23 627.323H2110.22C2110.22 627.986 2109.96 628.622 2109.49 629.091C2109.02 629.56 2108.39 629.823 2107.72 629.823H2052.74C2051.97 630.408 2051.26 631.079 2050.63 631.823C2048.75 634.065 2047.73 636.898 2047.73 639.823V641.823C2047.73 645.138 2049.05 648.317 2051.4 650.661C2053.74 653.005 2056.92 654.322 2060.23 654.323H2166.23C2169.55 654.32 2172.73 653.003 2175.07 650.659C2177.41 648.315 2178.73 645.138 2178.73 641.823V639.823C2178.73 636.51 2177.41 633.333 2175.07 630.99C2172.72 628.646 2169.55 627.328 2166.23 627.323Z" fill="#3F3D56"/>
<path d="M2120.23 653.827H2107.23V745.827H2120.23V653.827Z" fill="#3F3D56"/>
<path d="M2157.23 745.37C2157.23 746.775 2137.53 745.913 2113.23 745.913C2088.93 745.913 2069.23 746.775 2069.23 745.37C2069.23 743.965 2088.93 732.827 2113.23 732.827C2137.53 732.827 2157.23 743.965 2157.23 745.37Z" fill="#3F3D56"/>
<path d="M2163.78 630.203L2161.6 616.563C2161.33 614.844 2160.38 613.305 2158.97 612.283C2157.56 611.262 2155.8 610.841 2154.08 611.113L2131.59 614.703L2093.07 620.853L2080.54 622.853H2107.72C2108.39 622.854 2109.02 623.117 2109.49 623.586C2109.96 624.055 2110.22 624.69 2110.22 625.353V627.323C2110.22 627.986 2109.96 628.622 2109.49 629.091C2109.02 629.56 2108.39 629.823 2107.72 629.823H2038.55C2037.59 630.275 2036.75 630.963 2036.12 631.823C2035.59 632.523 2035.21 633.323 2034.99 634.176C2034.78 635.029 2034.74 635.916 2034.88 636.783L2035.5 640.663L2036.25 645.373L2037.06 650.433C2037.34 652.148 2038.28 653.684 2039.69 654.704C2041.09 655.723 2042.85 656.144 2044.56 655.873L2062.43 653.023L2113.97 644.793L2158.33 637.713C2160.05 637.434 2161.58 636.488 2162.61 635.081C2163.63 633.674 2164.05 631.921 2163.78 630.203Z" fill="white"/>
<path d="M2061.06 631.823C2060.41 630.95 2059.53 630.261 2058.53 629.823H2039.41C2038.41 630.259 2037.53 630.948 2036.87 631.823C2035.98 632.963 2035.5 634.368 2035.5 635.813V712.023C2035.51 713.76 2036.2 715.424 2037.42 716.652C2038.65 717.88 2040.32 718.571 2042.05 718.573H2055.88C2057.62 718.571 2059.28 717.88 2060.51 716.652C2061.74 715.424 2062.43 713.76 2062.43 712.023V635.813C2062.43 634.368 2061.95 632.963 2061.06 631.823Z" fill="white"/>
<path d="M2102.68 502.023L2102.55 501.853L2093.97 491.283C2093.52 490.716 2092.97 490.232 2092.34 489.853C2092.01 489.63 2091.66 489.449 2091.28 489.313C2090.74 489.094 2090.16 488.953 2089.57 488.893C2089.18 488.852 2088.79 488.845 2088.39 488.873C2088.39 488.874 2088.38 488.878 2088.37 488.883C2087.05 488.981 2085.78 489.484 2084.75 490.323L2067.14 504.603L2044.51 522.963L2010.74 550.363L2008.28 552.363H2051.01L2053.48 550.363L2061.65 543.733L2062.23 543.273L2101.69 511.263L2101.72 511.243C2102.54 510.59 2103.18 509.749 2103.59 508.793C2103.87 508.168 2104.04 507.503 2104.11 506.823C2104.2 505.968 2104.12 505.104 2103.88 504.28C2103.63 503.456 2103.23 502.689 2102.68 502.023Z" fill="white"/>
<path d="M2102.55 501.853C2102 499.159 2100.78 496.647 2098.99 494.553C2097.22 492.443 2094.93 490.825 2092.34 489.853C2091.94 489.703 2091.55 489.563 2091.15 489.453C2090.25 489.185 2089.33 488.991 2088.39 488.873C2088.39 488.874 2088.38 488.878 2088.37 488.883C2084.17 488.397 2079.93 489.566 2076.57 492.143L2046.11 515.423C2045.47 516.002 2044.94 516.705 2044.57 517.49C2044.2 518.275 2044 519.126 2043.96 519.993C2043.92 521.013 2044.1 522.029 2044.51 522.963C2044.61 523.173 2044.72 523.383 2044.84 523.583C2045.08 523.99 2045.36 524.366 2045.68 524.703L2050.56 530.183L2061.91 542.913L2062.23 543.273L2062.96 544.103C2063.54 544.74 2064.25 545.256 2065.03 545.622C2065.81 545.987 2066.65 546.195 2067.51 546.233C2068.37 546.271 2069.23 546.139 2070.04 545.844C2070.85 545.549 2071.6 545.097 2072.23 544.513L2098.5 516.293C2099.87 514.828 2100.95 513.123 2101.69 511.263C2102.89 508.278 2103.19 505.007 2102.55 501.853Z" fill="#18204B"/>
<path d="M2114.17 465.643C2141.85 465.643 2164.29 443.202 2164.29 415.521C2164.29 387.839 2141.85 365.398 2114.17 365.398C2086.49 365.398 2064.04 387.839 2064.04 415.521C2064.04 443.202 2086.49 465.643 2114.17 465.643Z" fill="white"/>
<path d="M2132.96 623.303L2131.59 614.703L2130.78 609.653C2130.51 607.937 2129.56 606.4 2128.15 605.38C2126.75 604.36 2124.99 603.941 2123.27 604.213L2086.84 610.023L2076.96 611.603L2074.96 611.923V622.853H2107.72C2108.39 622.854 2109.02 623.117 2109.49 623.586C2109.96 624.055 2110.22 624.69 2110.22 625.353V627.323C2110.22 627.986 2109.96 628.622 2109.49 629.091C2109.02 629.56 2108.39 629.823 2107.72 629.823H2004.05C2004.05 629.843 2004.06 629.863 2004.06 629.883L2004.68 633.763L2006.24 643.523C2006.52 645.238 2007.46 646.774 2008.87 647.794C2010.27 648.813 2012.03 649.234 2013.74 648.963L2031.61 646.113L2035.5 645.493L2036.25 645.373L2062.43 641.193L2080.24 638.343L2108.5 633.833L2108.92 633.763L2127.51 630.803C2129.23 630.529 2130.77 629.585 2131.79 628.179C2132.81 626.773 2133.23 625.02 2132.96 623.303Z" fill="white"/>
<path d="M2182.38 586.523C2182.38 627.383 2178.23 651.823 2114.23 644.823C2114.14 644.813 2114.06 644.803 2113.97 644.793C2102.56 643.666 2091.27 641.507 2080.24 638.343C2074.51 636.67 2068.94 634.488 2063.6 631.823C2062.34 631.183 2061.13 630.513 2059.94 629.823H2107.72C2108.39 629.823 2109.02 629.56 2109.49 629.091C2109.96 628.622 2110.22 627.986 2110.22 627.323V625.353C2110.22 624.69 2109.96 624.055 2109.49 623.586C2109.02 623.117 2108.39 622.854 2107.72 622.853H2074.96V559.693C2074.96 557.75 2074.19 555.887 2072.81 554.513C2071.44 553.139 2069.58 552.366 2067.63 552.363H2040.98C2041.21 551.703 2041.44 551.033 2041.69 550.363C2044.19 543.445 2047.16 536.703 2050.56 530.183C2055.23 521.129 2060.78 512.56 2067.14 504.603C2071.57 499.058 2076.54 493.97 2081.98 489.413C2092.01 481.133 2102.93 476.013 2114.01 476.013C2154.87 476.013 2182.38 545.663 2182.38 586.523Z" fill="#18204B"/>
<path d="M2115.22 434.097L2115.27 432.224C2111.79 432.128 2108.72 431.909 2106.41 430.222C2105.75 429.717 2105.21 429.077 2104.83 428.345C2104.45 427.613 2104.22 426.807 2104.18 425.982C2104.14 425.477 2104.21 424.97 2104.4 424.5C2104.59 424.03 2104.88 423.609 2105.26 423.271C2106.79 421.977 2109.25 422.396 2111.05 423.22L2112.6 423.93L2109.63 402.212L2107.77 402.466L2110.3 420.94C2109.27 420.557 2108.15 420.438 2107.06 420.595C2105.97 420.752 2104.93 421.18 2104.05 421.84C2103.45 422.36 2102.99 423.01 2102.68 423.74C2102.38 424.47 2102.25 425.259 2102.31 426.047C2102.36 427.157 2102.66 428.241 2103.17 429.223C2103.69 430.206 2104.42 431.063 2105.3 431.735C2108.27 433.903 2112.12 434.011 2115.22 434.097Z" fill="#2F2E41"/>
<path d="M2098.6 404.059H2088.51V405.932H2098.6V404.059Z" fill="#2F2E41"/>
<path d="M2130.44 404.059H2120.35V405.932H2130.44V404.059Z" fill="#2F2E41"/>
<path d="M2154.17 401.749C2150.27 395.881 2143.41 393.394 2136.65 392.789C2129.03 392.108 2121.68 393.576 2114.24 395.002C2106.06 396.572 2097.41 398.041 2089.16 396.056C2085.52 395.212 2082.11 393.552 2079.2 391.2C2076.29 388.848 2073.95 385.866 2072.36 382.478C2069.34 375.869 2068.69 368.422 2070.52 361.39C2072.45 353.91 2077.24 347.329 2083.05 342.358C2094.92 332.213 2110.97 327.654 2126.41 328.083C2141.79 328.48 2156.66 333.708 2168.9 343.025C2181.17 352.678 2189.8 366.205 2193.39 381.396C2197.14 396.462 2195.92 412.338 2189.91 426.653C2186.53 434.491 2181.64 441.557 2177.87 449.198C2174.36 456.312 2171.65 464.583 2173.84 472.518C2175.76 479.481 2181.38 485.667 2188.45 487.557C2191.66 488.4 2195.06 488.177 2198.14 486.921C2201.22 485.665 2203.8 483.444 2205.51 480.592C2209.04 475.023 2209.13 467.729 2203.82 463.232C2202.49 462.08 2200.93 461.211 2199.25 460.68C2197.56 460.148 2195.79 459.964 2194.03 460.14C2192.28 460.315 2190.57 460.845 2189.03 461.699C2187.48 462.553 2186.13 463.712 2185.05 465.106C2182.89 467.9 2181.93 471.43 2182.37 474.929C2182.63 476.698 2179.92 477.461 2179.66 475.676C2179.02 471.975 2179.73 468.17 2181.64 464.938C2183.55 461.706 2186.54 459.258 2190.09 458.029C2193.64 456.801 2197.51 456.871 2201.01 458.229C2204.51 459.587 2207.41 462.143 2209.21 465.443C2212.4 471.455 2210.68 478.707 2206.62 483.846C2204.53 486.584 2201.69 488.66 2198.44 489.826C2195.2 490.993 2191.69 491.2 2188.33 490.423C2180.94 488.717 2174.9 482.844 2172.05 475.943C2168.89 468.259 2170.34 459.686 2173.42 452.23C2176.76 444.171 2181.71 436.943 2185.63 429.177C2189.17 422.159 2191.43 414.561 2192.29 406.745C2194.01 391.049 2190.45 375.228 2182.17 361.785C2173.73 348.55 2160.84 338.758 2145.83 334.169C2130.93 329.381 2114.84 329.806 2100.21 335.376C2085.93 341.001 2072.15 353.259 2072.31 369.723C2072.39 376.756 2075 383.928 2080.38 388.619C2086.82 394.225 2095.78 394.704 2103.88 393.829C2112.02 392.949 2119.93 390.57 2128.11 389.963C2135.22 389.436 2142.9 389.984 2149.25 393.519C2152.21 395.168 2154.73 397.505 2156.59 400.331C2157.6 401.841 2155.17 403.25 2154.17 401.749Z" fill="#2F2E41"/>
<path d="M2143.96 516.353L2139.99 513.593L2132.6 508.463C2131.17 507.475 2129.41 507.094 2127.7 507.404C2125.99 507.713 2124.48 508.687 2123.48 510.113L2099.39 544.783L2076.96 577.063L2074.96 579.943V622.853H2075.14C2076.7 622.699 2078.15 621.989 2079.23 620.853C2079.46 620.615 2079.68 620.358 2079.86 620.083L2086.84 610.023L2104.09 585.193L2121.97 559.473L2123.67 557.023L2145.59 525.473C2145.71 525.306 2145.82 525.133 2145.92 524.953C2146.02 524.782 2146.11 524.605 2146.19 524.423C2146.82 523.03 2146.94 521.46 2146.54 519.986C2146.13 518.512 2145.22 517.227 2143.96 516.353Z" fill="white"/>
<path d="M2144.03 502.633C2143.33 502.169 2142.58 501.761 2141.81 501.413C2138.4 499.848 2134.55 499.506 2130.91 500.446C2127.27 501.385 2124.06 503.549 2121.83 506.573L2099.07 537.433C2098.62 538.168 2098.31 538.987 2098.17 539.841C2098.03 540.695 2098.07 541.568 2098.27 542.41C2098.47 543.251 2098.84 544.044 2099.35 544.741C2099.87 545.439 2100.51 546.028 2101.25 546.473L2121.97 559.473L2122.23 559.633L2123.27 560.283C2124.76 561.182 2126.54 561.456 2128.23 561.044C2129.92 560.631 2131.38 559.567 2132.28 558.083L2148.35 526.183L2148.62 525.653L2148.63 525.643L2149.62 523.653C2151.43 520.073 2151.86 515.955 2150.83 512.08C2149.8 508.205 2147.38 504.844 2144.03 502.633Z" fill="#18204B"/>
<path d="M2004.68 629.823V705.113C2004.69 706.85 2005.38 708.514 2006.6 709.742C2007.83 710.97 2009.5 711.661 2011.23 711.663H2025.06C2026.8 711.661 2028.46 710.97 2029.69 709.742C2030.92 708.514 2031.61 706.85 2031.61 705.113V629.823H2004.68Z" fill="white"/>
<path d="M2107.72 620.853H2076.96V559.693C2076.96 557.22 2075.98 554.848 2074.23 553.099C2072.48 551.35 2070.11 550.366 2067.63 550.363H1953.56C1951.09 550.364 1948.71 551.347 1946.96 553.096C1945.21 554.845 1944.23 557.218 1944.22 559.693V622.493C1944.23 624.969 1945.21 627.341 1946.96 629.091C1948.71 630.84 1951.09 631.823 1953.56 631.823H2107.72C2107.88 631.823 2108.03 631.813 2108.18 631.803C2108.32 631.793 2108.46 631.763 2108.6 631.743C2109.62 631.537 2110.54 630.984 2111.2 630.179C2111.86 629.373 2112.22 628.365 2112.22 627.323V625.353C2112.22 624.16 2111.75 623.015 2110.91 622.171C2110.06 621.328 2108.92 620.853 2107.72 620.853ZM2107.72 629.823H1953.56C1951.62 629.823 1949.75 629.05 1948.38 627.676C1947 626.302 1946.23 624.438 1946.22 622.493V559.693C1946.23 557.749 1947 555.885 1948.38 554.511C1949.75 553.136 1951.62 552.364 1953.56 552.363H2067.63C2069.58 552.366 2071.44 553.139 2072.81 554.513C2074.19 555.887 2074.96 557.75 2074.96 559.693V622.853H2107.72C2108.39 622.854 2109.02 623.117 2109.49 623.586C2109.96 624.055 2110.22 624.69 2110.22 625.353V627.323C2110.22 627.986 2109.96 628.622 2109.49 629.091C2109.02 629.56 2108.39 629.823 2107.72 629.823Z" fill="#3F3D56"/>
<path d="M2010.59 598.785C2014.84 598.785 2018.28 595.342 2018.28 591.094C2018.28 586.847 2014.84 583.404 2010.59 583.404C2006.35 583.404 2002.9 586.847 2002.9 591.094C2002.9 595.342 2006.35 598.785 2010.59 598.785Z" fill="white"/>
<path d="M1439 462.34C1468.55 462.34 1492.52 438.379 1492.52 408.821C1492.52 379.263 1468.55 355.302 1439 355.302C1409.44 355.302 1385.48 379.263 1385.48 408.821C1385.48 438.379 1409.44 462.34 1439 462.34Z" fill="white"/>
<path d="M1428.56 610.153H1413.8C1412.08 610.155 1410.43 610.84 1409.21 612.059C1407.99 613.278 1407.31 614.93 1407.3 616.653V739.663C1407.31 741.387 1407.99 743.039 1409.21 744.258C1410.43 745.476 1412.08 746.162 1413.8 746.163H1428.56C1430.29 746.162 1431.94 745.476 1433.16 744.258C1434.38 743.039 1435.06 741.387 1435.06 739.663V616.653C1435.06 614.93 1434.38 613.278 1433.16 612.059C1431.94 610.84 1430.29 610.155 1428.56 610.153Z" fill="#18204B"/>
<path d="M1459.75 610.153H1444.99C1443.27 610.155 1441.62 610.84 1440.4 612.059C1439.18 613.278 1438.5 614.93 1438.49 616.653V739.663C1438.5 741.387 1439.18 743.039 1440.4 744.258C1441.62 745.476 1443.27 746.162 1444.99 746.163H1459.75C1460.61 746.163 1461.45 745.995 1462.24 745.669C1463.03 745.342 1463.75 744.863 1464.35 744.26C1464.95 743.656 1465.43 742.94 1465.76 742.151C1466.09 741.362 1466.25 740.517 1466.25 739.663V616.653C1466.25 615.8 1466.09 614.955 1465.76 614.166C1465.43 613.377 1464.95 612.661 1464.35 612.057C1463.75 611.454 1463.03 610.975 1462.24 610.648C1461.45 610.321 1460.61 610.153 1459.75 610.153Z" fill="#18204B"/>
<path d="M1470.44 490.403C1465.27 483.719 1458.14 478.818 1450.04 476.388C1441.95 473.957 1433.3 474.118 1425.3 476.847C1417.3 479.577 1410.35 484.739 1405.43 491.611C1400.51 498.483 1397.86 506.721 1397.85 515.173V624.113C1397.85 624.445 1397.88 624.777 1397.93 625.103C1398.17 626.77 1399 628.295 1400.27 629.399C1401.54 630.503 1403.17 631.112 1404.85 631.113H1471.92C1473.78 631.11 1475.56 630.371 1476.87 629.059C1478.18 627.747 1478.92 625.969 1478.92 624.113V515.173C1478.94 506.202 1475.95 497.484 1470.44 490.403Z" fill="#18204B"/>
<path d="M1484.19 432.479L1484.14 430.479C1487.86 430.376 1491.14 430.142 1493.6 428.342C1494.3 427.802 1494.88 427.118 1495.29 426.337C1495.7 425.556 1495.93 424.695 1495.98 423.813C1496.03 423.275 1495.95 422.733 1495.75 422.231C1495.55 421.729 1495.23 421.28 1494.83 420.919C1493.19 419.537 1490.56 419.984 1488.64 420.864L1486.99 421.623L1490.16 398.432L1492.14 398.704L1489.44 418.431C1492.05 417.664 1494.47 417.994 1496.12 419.391C1496.76 419.946 1497.26 420.64 1497.58 421.42C1497.9 422.199 1498.04 423.042 1497.98 423.884C1497.92 425.068 1497.61 426.225 1497.05 427.274C1496.5 428.324 1495.73 429.239 1494.78 429.957C1491.61 432.271 1487.5 432.387 1484.19 432.479Z" fill="#2F2E41"/>
<path d="M1478.71 400.405H1467.94V402.405H1478.71V400.405Z" fill="#2F2E41"/>
<path d="M1423.3 491.943C1422.73 491.313 1422.03 490.803 1421.25 490.445C1420.48 490.086 1419.64 489.885 1418.78 489.853L1407.15 489.373L1404.04 489.243C1402.32 489.173 1400.64 489.788 1399.37 490.954C1398.1 492.12 1397.35 493.742 1397.27 495.463L1395.43 539.783L1392.18 618.373C1392.12 620.013 1392.67 621.618 1393.74 622.866C1394.8 624.114 1396.3 624.913 1397.93 625.103C1398.09 625.123 1398.24 625.133 1398.4 625.143L1407.3 625.513L1413.15 625.753C1413.62 625.774 1414.09 625.744 1414.55 625.663C1415.78 625.445 1416.91 624.883 1417.82 624.043C1418.45 623.466 1418.96 622.769 1419.32 621.993C1419.68 621.217 1419.88 620.378 1419.91 619.523L1420.3 610.153L1423.17 540.843L1425.01 496.613C1425.09 494.892 1424.47 493.212 1423.3 491.943Z" fill="white"/>
<path d="M1414.78 482.243C1413.54 481.981 1412.27 481.85 1411 481.853C1406.1 481.859 1401.4 483.81 1397.93 487.278C1394.46 490.747 1392.51 495.449 1392.5 500.353V534.353C1392.51 535.43 1392.77 536.489 1393.29 537.436C1393.8 538.384 1394.54 539.19 1395.43 539.783C1396.17 540.266 1396.99 540.592 1397.85 540.743C1398.23 540.816 1398.62 540.852 1399 540.853H1423C1423.06 540.855 1423.12 540.852 1423.17 540.843C1424.87 540.8 1426.48 540.097 1427.66 538.885C1428.84 537.673 1429.5 536.047 1429.5 534.353V500.353C1429.5 496.105 1428.03 491.987 1425.35 488.69C1422.67 485.393 1418.94 483.117 1414.78 482.243Z" fill="#18204B"/>
<path d="M1542.96 579.073C1541.4 578.263 1540.16 576.925 1539.49 575.294C1538.81 573.664 1538.73 571.846 1539.26 570.163L1544.95 552.053L1543.29 550.673L1499.62 514.543L1470.44 490.403L1466.89 487.463C1465.57 486.364 1463.86 485.837 1462.14 485.999C1460.42 486.16 1458.84 486.996 1457.74 488.323L1448.33 499.703C1447.79 500.36 1447.38 501.118 1447.12 501.934C1446.87 502.749 1446.78 503.607 1446.86 504.457C1446.94 505.307 1447.19 506.133 1447.59 506.887C1447.99 507.642 1448.53 508.31 1449.19 508.853L1478.92 533.453L1482.3 536.243L1543.97 587.263C1545.11 588.211 1546.54 588.74 1548.03 588.761C1549.51 588.783 1550.96 588.297 1552.12 587.383C1552.45 587.131 1552.74 586.846 1553 586.533C1553.05 586.493 1553.09 586.449 1553.12 586.403L1554.31 584.963L1542.96 579.073Z" fill="white"/>
<path d="M1497.52 507.603L1471.21 486.073C1469.33 484.534 1467.17 483.381 1464.84 482.678C1462.52 481.975 1460.08 481.738 1457.66 481.979C1455.24 482.22 1452.89 482.934 1450.75 484.082C1448.61 485.23 1446.72 486.788 1445.18 488.668C1443.64 490.548 1442.49 492.713 1441.78 495.038C1441.08 497.364 1440.84 499.806 1441.08 502.223C1441.57 507.106 1443.98 511.595 1447.77 514.703L1474.08 536.233C1475.24 537.183 1476.69 537.702 1478.19 537.704C1479.69 537.706 1481.14 537.19 1482.3 536.243C1482.65 535.976 1482.96 535.667 1483.23 535.323L1498.43 516.753C1498.97 516.102 1499.38 515.351 1499.62 514.543C1500 513.309 1500 511.99 1499.62 510.755C1499.25 509.52 1498.52 508.424 1497.52 507.603Z" fill="#18204B"/>
<path d="M1425.58 417.882C1422.79 413.227 1420.61 408.097 1421.65 402.58C1422.57 397.654 1426.12 393.818 1431.21 393.315C1434.28 393.011 1437.34 393.831 1440.34 394.365C1442.79 394.796 1445.29 394.958 1447.78 394.847C1452.8 394.619 1457.72 393.372 1462.23 391.183C1466.82 389.037 1470.89 385.933 1474.18 382.081C1477.47 378.23 1479.89 373.718 1481.29 368.852C1484.33 357.778 1482.07 345.203 1474.85 336.189L1477.36 335.527L1474.09 346.251C1474.03 346.471 1473.92 346.674 1473.76 346.844C1473.61 347.014 1473.42 347.147 1473.21 347.234C1473 347.32 1472.77 347.357 1472.54 347.342C1472.31 347.327 1472.09 347.261 1471.89 347.148C1465.97 343.41 1459.36 340.912 1452.45 339.808C1445.54 338.703 1438.48 339.013 1431.69 340.721C1427.85 341.684 1424.15 343.109 1420.66 344.963C1418.95 345.869 1417.44 343.281 1419.14 342.373C1425.7 338.951 1432.89 336.896 1440.26 336.331C1447.64 335.766 1455.06 336.703 1462.06 339.085C1466.05 340.445 1469.86 342.282 1473.4 344.557L1471.2 345.454L1474.46 334.73C1474.54 334.479 1474.67 334.251 1474.86 334.069C1475.05 333.886 1475.28 333.756 1475.53 333.689C1475.78 333.622 1476.05 333.622 1476.3 333.689C1476.55 333.755 1476.78 333.885 1476.97 334.068C1480.33 338.329 1482.79 343.227 1484.21 348.466C1485.63 353.705 1485.97 359.176 1485.21 364.551C1484.48 369.847 1482.64 374.93 1479.81 379.466C1476.98 384.002 1473.22 387.888 1468.78 390.869C1464.35 393.862 1459.37 395.946 1454.12 397C1448.88 398.055 1443.48 398.058 1438.23 397.011C1435.3 396.447 1431.97 395.639 1429.08 396.868C1428.04 397.372 1427.12 398.1 1426.39 399C1425.66 399.9 1425.13 400.95 1424.85 402.076C1423.22 407.607 1426 412.86 1428.83 417.459L1425.58 417.882Z" fill="#2F2E41"/>
<path d="M1620.82 528.683L1571.35 500.053C1570.12 499.341 1568.74 498.915 1567.33 498.806C1565.91 498.696 1564.48 498.907 1563.16 499.423C1561.83 499.938 1560.63 500.745 1559.66 501.784C1558.69 502.822 1557.96 504.066 1557.53 505.423L1543.29 550.673L1537.35 569.563C1536.68 571.695 1536.78 573.995 1537.64 576.059C1538.5 578.123 1540.06 579.817 1542.04 580.843L1553 586.533L1588.76 605.083C1590.12 605.787 1591.62 606.154 1593.14 606.153C1594.27 606.151 1595.39 605.951 1596.44 605.563L1596.51 605.533C1597.76 605.056 1598.9 604.322 1599.85 603.378C1600.79 602.433 1601.53 601.301 1602.01 600.053L1624.93 540.303C1625.75 538.195 1625.78 535.864 1625.03 533.732C1624.28 531.6 1622.78 529.809 1620.82 528.683ZM1623.06 539.593L1600.14 599.343C1599.76 600.328 1599.18 601.222 1598.43 601.966C1597.68 602.711 1596.78 603.289 1595.79 603.663L1595.74 603.683C1594.76 604.046 1593.72 604.2 1592.67 604.136C1591.63 604.072 1590.61 603.792 1589.68 603.313L1554.31 584.963L1542.96 579.073C1541.4 578.263 1540.16 576.925 1539.49 575.294C1538.81 573.664 1538.73 571.846 1539.26 570.163L1544.95 552.053L1559.43 506.023C1559.77 504.953 1560.35 503.973 1561.12 503.155C1561.89 502.336 1562.83 501.701 1563.87 501.294C1564.92 500.887 1566.05 500.72 1567.16 500.805C1568.28 500.89 1569.37 501.224 1570.34 501.783L1619.81 530.413C1621.36 531.302 1622.54 532.717 1623.14 534.401C1623.74 536.085 1623.71 537.927 1623.06 539.593Z" fill="#3F3D56"/>
<path d="M1604.23 547.827C1603.72 547.827 1603.23 547.701 1602.79 547.461L1569.79 529.461C1569.1 529.078 1568.58 528.435 1568.36 527.673C1568.13 526.911 1568.22 526.092 1568.6 525.395C1568.98 524.698 1569.62 524.18 1570.39 523.955C1571.15 523.729 1571.97 523.815 1572.66 524.193L1605.66 542.193C1606.25 542.512 1606.71 543.018 1606.98 543.629C1607.25 544.241 1607.3 544.923 1607.13 545.569C1606.97 546.216 1606.59 546.788 1606.07 547.197C1605.54 547.606 1604.89 547.828 1604.23 547.827Z" fill="#18204B"/>
<path d="M1598.23 560.827C1597.72 560.827 1597.23 560.701 1596.79 560.461L1563.79 542.461C1563.1 542.078 1562.58 541.435 1562.36 540.673C1562.13 539.911 1562.22 539.092 1562.6 538.395C1562.98 537.698 1563.62 537.18 1564.39 536.955C1565.15 536.729 1565.97 536.815 1566.66 537.193L1599.66 555.193C1600.25 555.512 1600.71 556.018 1600.98 556.629C1601.25 557.241 1601.3 557.923 1601.13 558.569C1600.97 559.216 1600.59 559.788 1600.07 560.197C1599.54 560.606 1598.89 560.828 1598.23 560.827Z" fill="#18204B"/>
<path d="M1593.23 574.827C1592.72 574.827 1592.23 574.701 1591.79 574.461L1558.79 556.461C1558.1 556.078 1557.58 555.435 1557.36 554.673C1557.13 553.911 1557.22 553.092 1557.6 552.395C1557.98 551.698 1558.62 551.18 1559.39 550.955C1560.15 550.729 1560.97 550.815 1561.66 551.193L1594.66 569.193C1595.25 569.512 1595.71 570.018 1595.98 570.629C1596.25 571.241 1596.3 571.923 1596.13 572.569C1595.97 573.216 1595.59 573.788 1595.07 574.197C1594.54 574.606 1593.89 574.828 1593.23 574.827Z" fill="#18204B"/>
<path d="M1942.2 291.543H1803.47C1801.48 291.541 1799.56 290.747 1798.15 289.337C1796.74 287.927 1795.95 286.016 1795.95 284.021V108.521C1795.95 106.527 1796.74 104.616 1798.15 103.205C1799.56 101.795 1801.48 101.002 1803.47 101H1942.2C1944.19 101.002 1946.1 101.795 1947.51 103.205C1948.92 104.616 1949.72 106.527 1949.72 108.521V284.021C1949.72 286.016 1948.92 287.927 1947.51 289.337C1946.1 290.747 1944.19 291.541 1942.2 291.543ZM1803.47 102.671C1801.92 102.673 1800.43 103.29 1799.34 104.387C1798.24 105.483 1797.62 106.97 1797.62 108.521V284.021C1797.62 285.572 1798.24 287.059 1799.34 288.156C1800.43 289.253 1801.92 289.87 1803.47 289.871H1942.2C1943.75 289.87 1945.24 289.253 1946.33 288.156C1947.43 287.059 1948.05 285.572 1948.05 284.021V108.521C1948.05 106.97 1947.43 105.483 1946.33 104.387C1945.24 103.29 1943.75 102.673 1942.2 102.671H1803.47Z" fill="#3F3D56"/>
<path d="M1861.29 185.358H1830.76C1829.76 185.357 1828.8 184.961 1828.1 184.256C1827.39 183.551 1827 182.595 1827 181.598V145.562C1827 144.565 1827.39 143.609 1828.1 142.904C1828.8 142.199 1829.76 141.802 1830.76 141.801H1861.29C1862.29 141.802 1863.25 142.199 1863.95 142.904C1864.66 143.609 1865.05 144.565 1865.06 145.562V181.598C1865.05 182.595 1864.66 183.551 1863.95 184.256C1863.25 184.961 1862.29 185.357 1861.29 185.358Z" fill="#18204B"/>
<path d="M1920.63 202.073H1890.09C1889.1 202.072 1888.14 201.675 1887.44 200.97C1886.73 200.265 1886.33 199.309 1886.33 198.312V162.276C1886.33 161.279 1886.73 160.323 1887.44 159.618C1888.14 158.913 1889.1 158.517 1890.09 158.516H1920.63C1921.63 158.517 1922.58 158.913 1923.29 159.618C1923.99 160.323 1924.39 161.279 1924.39 162.276V198.312C1924.39 199.309 1923.99 200.265 1923.29 200.97C1922.58 201.675 1921.63 202.072 1920.63 202.073Z" fill="#FADC32"/>
<path d="M1872.99 253.051H1842.46C1841.46 253.05 1840.5 252.654 1839.8 251.949C1839.09 251.244 1838.7 250.288 1838.7 249.291V213.255C1838.7 212.258 1839.09 211.302 1839.8 210.597C1840.5 209.892 1841.46 209.495 1842.46 209.494H1872.99C1873.99 209.495 1874.95 209.892 1875.65 210.597C1876.36 211.302 1876.75 212.258 1876.76 213.255V249.291C1876.75 250.288 1876.36 251.244 1875.65 251.949C1874.95 252.654 1873.99 253.05 1872.99 253.051Z" fill="#1A936F"/>
<path d="M1761.24 244.107C1760.66 242.737 1759.7 241.567 1758.46 240.74C1757.22 239.914 1755.77 239.468 1754.29 239.457H1615.56C1613.56 239.458 1611.65 240.251 1610.24 241.661C1608.83 243.071 1608.04 244.983 1608.04 246.977V422.477C1608.04 424.471 1608.83 426.383 1610.24 427.793C1611.65 429.203 1613.56 429.996 1615.56 429.997H1754.29C1756.28 429.994 1758.19 429.201 1759.6 427.791C1761.01 426.381 1761.81 424.47 1761.81 422.477V246.977C1761.81 245.992 1761.62 245.016 1761.24 244.107ZM1760.14 422.477C1760.14 424.028 1759.52 425.515 1758.42 426.611C1757.33 427.708 1755.84 428.325 1754.29 428.327H1615.56C1614.01 428.326 1612.52 427.71 1611.42 426.613C1610.33 425.516 1609.71 424.028 1609.71 422.477V246.977C1609.71 245.426 1610.33 243.939 1611.42 242.842C1612.52 241.746 1614.01 241.129 1615.56 241.127H1754.29C1755.46 241.131 1756.6 241.484 1757.56 242.139C1758.53 242.795 1759.28 243.723 1759.72 244.807C1759.8 245.023 1759.88 245.243 1759.94 245.467C1760.07 245.959 1760.14 246.467 1760.14 246.977V422.477Z" fill="#3F3D56"/>
<path d="M1732.28 280.893H1690.5C1689.61 280.893 1688.76 280.541 1688.13 279.914C1687.51 279.287 1687.15 278.436 1687.15 277.55C1687.15 276.663 1687.51 275.813 1688.13 275.186C1688.76 274.559 1689.61 274.207 1690.5 274.207H1732.28C1733.17 274.207 1734.02 274.559 1734.65 275.186C1735.27 275.813 1735.63 276.663 1735.63 277.55C1735.63 278.436 1735.27 279.287 1734.65 279.914C1734.02 280.541 1733.17 280.893 1732.28 280.893Z" fill="#1A936F"/>
<path d="M1732.28 298.443H1690.5C1689.61 298.443 1688.76 298.091 1688.13 297.464C1687.51 296.837 1687.15 295.986 1687.15 295.1C1687.15 294.213 1687.51 293.363 1688.13 292.736C1688.76 292.109 1689.61 291.757 1690.5 291.757H1732.28C1733.17 291.757 1734.02 292.109 1734.65 292.736C1735.27 293.363 1735.63 294.213 1735.63 295.1C1735.63 295.986 1735.27 296.837 1734.65 297.464C1734.02 298.091 1733.17 298.443 1732.28 298.443Z" fill="#1A936F"/>
<path d="M1669.06 308.436H1638.52C1637.52 308.435 1636.57 308.038 1635.86 307.333C1635.16 306.628 1634.76 305.672 1634.76 304.675V268.639C1634.76 267.642 1635.16 266.686 1635.86 265.981C1636.57 265.276 1637.52 264.88 1638.52 264.879H1669.06C1670.05 264.88 1671.01 265.276 1671.71 265.981C1672.42 266.686 1672.82 267.642 1672.82 268.639V304.675C1672.82 305.672 1672.42 306.628 1671.71 307.333C1671.01 308.038 1670.05 308.435 1669.06 308.436Z" fill="#18204B"/>
<path d="M1731.99 334.378H1637.56C1637.12 334.379 1636.68 334.293 1636.28 334.126C1635.87 333.958 1635.5 333.712 1635.19 333.401C1634.88 333.091 1634.63 332.722 1634.46 332.316C1634.3 331.91 1634.21 331.475 1634.21 331.036C1634.21 330.596 1634.3 330.161 1634.46 329.755C1634.63 329.349 1634.88 328.98 1635.19 328.67C1635.5 328.359 1635.87 328.113 1636.28 327.946C1636.68 327.778 1637.12 327.692 1637.56 327.693H1731.99C1732.88 327.694 1733.73 328.047 1734.35 328.674C1734.98 329.301 1735.33 330.15 1735.33 331.036C1735.33 331.921 1734.98 332.771 1734.35 333.397C1733.73 334.024 1732.88 334.377 1731.99 334.378Z" fill="white"/>
<path d="M1731.99 351.928H1637.56C1637.12 351.929 1636.68 351.843 1636.28 351.676C1635.87 351.508 1635.5 351.262 1635.19 350.951C1634.88 350.641 1634.63 350.272 1634.46 349.866C1634.3 349.46 1634.21 349.025 1634.21 348.586C1634.21 348.146 1634.3 347.711 1634.46 347.305C1634.63 346.899 1634.88 346.53 1635.19 346.22C1635.5 345.909 1635.87 345.663 1636.28 345.496C1636.68 345.328 1637.12 345.242 1637.56 345.243H1731.99C1732.88 345.243 1733.73 345.595 1734.36 346.222C1734.98 346.849 1735.34 347.699 1735.34 348.586C1735.34 349.472 1734.98 350.322 1734.36 350.949C1733.73 351.576 1732.88 351.928 1731.99 351.928Z" fill="white"/>
<path d="M1731.99 369.478H1637.56C1637.12 369.479 1636.68 369.393 1636.28 369.226C1635.87 369.058 1635.5 368.812 1635.19 368.501C1634.88 368.191 1634.63 367.822 1634.46 367.416C1634.3 367.01 1634.21 366.575 1634.21 366.136C1634.21 365.696 1634.3 365.261 1634.46 364.855C1634.63 364.449 1634.88 364.08 1635.19 363.77C1635.5 363.459 1635.87 363.213 1636.28 363.046C1636.68 362.878 1637.12 362.792 1637.56 362.793H1731.99C1732.88 362.793 1733.73 363.145 1734.36 363.772C1734.98 364.399 1735.34 365.249 1735.34 366.136C1735.34 367.022 1734.98 367.872 1734.36 368.499C1733.73 369.126 1732.88 369.478 1731.99 369.478Z" fill="white"/>
<path d="M1731.99 387.029H1637.56C1637.12 387.029 1636.68 386.943 1636.28 386.776C1635.87 386.608 1635.5 386.362 1635.19 386.051C1634.88 385.741 1634.63 385.372 1634.46 384.966C1634.3 384.56 1634.21 384.125 1634.21 383.686C1634.21 383.246 1634.3 382.811 1634.46 382.405C1634.63 381.999 1634.88 381.63 1635.19 381.32C1635.5 381.009 1635.87 380.763 1636.28 380.596C1636.68 380.428 1637.12 380.342 1637.56 380.343H1731.99C1732.88 380.343 1733.73 380.695 1734.36 381.322C1734.98 381.949 1735.34 382.799 1735.34 383.686C1735.34 384.572 1734.98 385.423 1734.36 386.049C1733.73 386.676 1732.88 387.029 1731.99 387.029Z" fill="white"/>
<path d="M1731.99 404.578H1637.56C1637.12 404.579 1636.68 404.493 1636.28 404.326C1635.87 404.158 1635.5 403.912 1635.19 403.601C1634.88 403.291 1634.63 402.922 1634.46 402.516C1634.3 402.11 1634.21 401.675 1634.21 401.236C1634.21 400.796 1634.3 400.361 1634.46 399.955C1634.63 399.549 1634.88 399.18 1635.19 398.87C1635.5 398.559 1635.87 398.313 1636.28 398.146C1636.68 397.978 1637.12 397.892 1637.56 397.893H1731.99C1732.88 397.894 1733.73 398.247 1734.35 398.874C1734.98 399.501 1735.33 400.35 1735.33 401.236C1735.33 402.121 1734.98 402.971 1734.35 403.597C1733.73 404.224 1732.88 404.577 1731.99 404.578Z" fill="white"/>
<path d="M1866.39 310.709L1787.31 386.004L1788.46 387.215L1867.55 311.92L1866.39 310.709Z" fill="white"/>
<path d="M1786.57 387.858L1796.61 387.74L1796.59 386.067L1788.35 386.166L1788.85 377.94L1787.18 377.839L1786.57 387.858Z" fill="white"/>
<path d="M1868.28 310.063L1867.67 320.083L1866 319.983L1866.5 311.756L1858.26 311.855L1858.24 310.183L1868.28 310.063Z" fill="white"/>
<path d="M1827.43 358.155C1832.5 358.155 1836.62 354.039 1836.62 348.962C1836.62 343.885 1832.5 339.769 1827.43 339.769C1822.35 339.769 1818.23 343.885 1818.23 348.962C1818.23 354.039 1822.35 358.155 1827.43 358.155Z" fill="white"/>
<path d="M1760.39 132.709L1681.31 208.004L1682.46 209.215L1761.55 133.92L1760.39 132.709Z" fill="white"/>
<path d="M1680.57 209.858L1690.61 209.74L1690.59 208.067L1682.35 208.166L1682.85 199.94L1681.18 199.839L1680.57 209.858Z" fill="white"/>
<path d="M1762.28 132.063L1761.67 142.083L1760 141.983L1760.5 133.756L1752.26 133.855L1752.24 132.183L1762.28 132.063Z" fill="white"/>
<path d="M1721.43 180.155C1726.5 180.155 1730.62 176.039 1730.62 170.962C1730.62 165.885 1726.5 161.769 1721.43 161.769C1716.35 161.769 1712.23 165.885 1712.23 170.962C1712.23 176.039 1716.35 180.155 1721.43 180.155Z" fill="white"/>
<path d="M2076.93 621.913H2074.93V630.913H2076.93V621.913Z" fill="#3F3D56"/>
</svg>
