<svg width="1001" height="558" viewBox="0 0 1001 558" fill="none" xmlns="http://www.w3.org/2000/svg">
<rect width="1001" height="558" fill="#FF6B6B"/>
<path d="M471.835 169C469.766 73 544.612 16.3333 581 0H0V558H551.889C567.253 527 595.165 445.266 565.109 372C527.369 280 474.443 289.971 471.835 169Z" fill="#18204B"/>
<g clip-path="url(#clip0)">
<path opacity="0.1" d="M831.407 216.498C815.383 216.52 799.958 211.977 785.205 206.93C770.451 201.884 755.812 196.233 740.085 193.838C729.971 192.299 718.469 192.441 710.563 198.03C702.953 203.406 700.749 212.305 699.686 220.526C698.886 226.711 698.517 233.202 701.512 238.86C703.591 242.787 707.15 246.024 709.658 249.767C718.414 262.789 713.148 279.422 704.64 292.746C700.65 298.997 695.977 304.989 692.961 311.598C689.944 318.207 688.707 325.702 691.784 332.225C694.832 338.691 701.718 343.384 709.107 346.588C724.114 353.11 741.586 354.508 758.588 355.046C796.224 356.24 833.933 353.804 871.541 351.369C885.458 350.469 899.438 349.562 913.068 346.953C920.635 345.506 928.428 343.358 933.794 338.65C940.605 332.673 941.998 322.915 937.042 315.9C928.73 304.135 906.814 301.917 900.855 289.187C897.568 282.179 900.402 274.142 904.576 267.387C913.529 252.893 928.938 239.91 929.197 223.699C929.375 212.566 921.362 201.706 909.393 196.868C896.848 191.8 879.743 193.103 870.953 202.549C861.915 212.279 845.556 216.483 831.407 216.498Z" fill="#18204B"/>
<path d="M902.776 331.35C902.776 331.35 900.141 329.612 897.53 330.849C897.53 330.849 898.334 332.396 901.639 332.251L902.776 331.35Z" fill="#18204B"/>
<path d="M903.11 331.443C903.11 331.443 903.912 334.495 901.901 336.573C901.901 336.573 900.692 335.314 901.901 332.231L903.11 331.443Z" fill="#18204B"/>
<path d="M906.386 328.512C906.386 328.512 906.191 325.916 900.327 326.778C900.327 326.778 900.3 328.452 902.358 329.245C904.416 330.038 905.359 329.369 906.386 328.512Z" fill="#18204B"/>
<path d="M906.754 328.495C906.754 328.495 909.233 329.29 907.022 334.789C907.022 334.789 905.387 334.424 905.093 332.236C904.799 330.047 905.67 329.292 906.754 328.495Z" fill="#18204B"/>
<path d="M910.064 324.812C910.064 324.812 910.401 320.539 904.409 320.977C904.409 320.977 903.98 324.835 909.007 325.839L910.064 324.812Z" fill="#18204B"/>
<path d="M914.024 319.988C914.024 319.988 913.203 315.146 907.213 316.588C907.213 316.588 907.192 320.775 913.046 321.142L914.024 319.988Z" fill="#18204B"/>
<path d="M916.918 315.002C916.918 315.002 915.542 310.286 909.608 311.696C909.608 311.696 911.021 315.939 916.524 315.872L916.918 315.002Z" fill="#18204B"/>
<path d="M919.666 310.131C919.666 310.131 918.322 305.237 912.592 306.701C912.592 306.701 914.504 311.351 919.287 310.959L919.666 310.131Z" fill="#18204B"/>
<path d="M921.437 305.505C921.437 305.505 920.404 299.52 915.062 300.844C915.062 300.844 916.614 306.29 921.045 306.378L921.437 305.505Z" fill="#18204B"/>
<path d="M923.099 299.916C923.099 299.916 921.857 293.884 916.453 295.629C916.453 295.629 918.571 301.331 922.715 300.742L923.099 299.916Z" fill="#18204B"/>
<path d="M924.119 294.715C924.119 294.715 922.149 288.681 917.971 288.844C917.971 288.844 919.984 295.217 923.769 295.918L924.119 294.715Z" fill="#18204B"/>
<path d="M924.779 289.639C924.779 289.639 922.635 282.376 919.235 282.935C919.235 282.935 920.719 288.488 924.659 290.771L924.779 289.639Z" fill="#18204B"/>
<path d="M925.152 283.583C925.152 283.583 923.141 277.531 919.793 277.289C919.793 277.289 921.161 283.244 925.086 285.156L925.152 283.583Z" fill="#18204B"/>
<path d="M925.557 277.932C925.557 277.932 923.051 271.874 920.841 271.736C920.841 271.736 921.93 277.702 925.343 278.927L925.557 277.932Z" fill="#18204B"/>
<path d="M925.834 272.675C925.834 272.675 924.293 266.096 922.078 265.549C922.078 265.549 922.38 270.932 925.611 273.168L925.834 272.675Z" fill="#18204B"/>
<path d="M926.67 265.79C926.67 265.79 925.049 260.544 923.255 259.744C923.255 259.744 923.609 265.929 926.256 267.072L926.67 265.79Z" fill="#18204B"/>
<path d="M927.362 261.288L927.688 252.039C927.688 252.039 924.333 259.011 927.12 262.91L927.362 261.288Z" fill="#18204B"/>
<path d="M929.952 252.089C929.952 252.089 932.368 245.336 932.953 244.959C932.953 244.959 928.216 249.34 928.679 254.976L929.952 252.089Z" fill="#18204B"/>
<path d="M910.227 324.78C910.227 324.78 914.476 324.224 914.35 330.229C914.35 330.229 910.51 330.855 909.256 325.888L910.227 324.78Z" fill="#18204B"/>
<path d="M914.225 319.825C914.225 319.825 919.135 319.81 918.727 325.957C918.727 325.957 914.605 326.694 913.246 320.987L914.225 319.825Z" fill="#18204B"/>
<path d="M916.965 315.399C916.965 315.399 921.422 313.308 924.273 318.704C924.273 318.704 920.157 320.445 916.571 316.271L916.965 315.399Z" fill="#18204B"/>
<path d="M919.765 310.176C919.765 310.176 924.329 307.953 927.009 313.223C927.009 313.223 922.254 314.86 919.388 311.01L919.765 310.176Z" fill="#18204B"/>
<path d="M921.379 305.636C921.379 305.636 925.772 301.44 929.277 305.683C929.277 305.683 924.79 309.137 921.178 306.57L921.379 305.636Z" fill="#18204B"/>
<path d="M922.85 299.773C922.85 299.773 927.268 295.485 930.745 299.97C930.745 299.97 925.787 303.492 922.691 300.673L922.85 299.773Z" fill="#18204B"/>
<path d="M923.675 294.544C923.675 294.544 927.079 289.185 931.088 290.381C931.088 290.381 927.555 296.055 923.714 295.802L923.675 294.544Z" fill="#18204B"/>
<path d="M924.678 289.605C924.678 289.605 928.109 282.856 931.354 284.031C931.354 284.031 928.88 289.219 924.591 290.743L924.678 289.605Z" fill="#18204B"/>
<path d="M924.916 283.231C924.916 283.231 928.443 277.919 931.746 278.569C931.746 278.569 928.863 283.956 924.573 284.768L924.916 283.231Z" fill="#18204B"/>
<path d="M925.191 277.814C925.191 277.814 927.924 271.852 930.145 271.811C930.145 271.811 928.833 277.73 925.375 278.826L925.191 277.814Z" fill="#18204B"/>
<path d="M925.727 272.547C925.727 272.547 928.764 266.51 931.048 266.497C931.048 266.497 929.493 271.659 925.827 273.076L925.727 272.547Z" fill="#18204B"/>
<path d="M926.183 266.167C926.183 266.167 928.456 261.172 930.338 260.606C930.338 260.606 929.202 266.694 926.434 267.492L926.183 266.167Z" fill="#18204B"/>
<path d="M927.633 261.105L932.711 253.369C932.711 253.369 931.41 261 926.891 262.587L927.633 261.105Z" fill="#18204B"/>
<path d="M931.118 252.713C931.118 252.713 937.02 248.639 937.235 247.981C937.235 247.981 934.233 253.686 928.659 254.693L931.118 252.713Z" fill="#18204B"/>
<path d="M931.472 250.88C931.472 250.88 938.249 244.365 939.979 244.371C939.979 244.371 934.39 244.626 931.309 250.532L931.472 250.88Z" fill="#18204B"/>
<path d="M926.25 267.134L926.496 267.166C927.77 257.199 929.626 251.302 931.723 250.579L931.641 250.344C929.418 251.115 927.549 256.923 926.25 267.134Z" fill="#444053"/>
<path d="M924.376 290.968L924.749 290.998C924.828 290.068 924.889 289.116 924.929 288.166C925.285 279.917 925.836 272.341 926.561 266.662L926.346 266.394C925.62 272.086 924.912 279.889 924.556 288.151C924.516 289.094 924.455 290.042 924.376 290.968Z" fill="#444053"/>
<path d="M895.821 336.105C895.886 336.077 902.452 333.145 909.267 326.152C913.26 322.056 916.577 317.353 919.096 312.217C922.248 305.801 924.168 297.916 924.811 290.256L924.423 290.439C922.976 307.632 915.149 319.379 908.926 325.779C902.178 332.709 895.684 335.612 895.62 335.64L895.821 336.105Z" fill="#444053"/>
<path d="M912.824 211.271H706.833C706.346 211.271 705.879 211.465 705.535 211.809C705.191 212.153 704.998 212.62 704.998 213.106V218.453H914.659V213.106C914.659 212.62 914.465 212.153 914.121 211.809C913.777 211.465 913.31 211.271 912.824 211.271Z" fill="#3F3D56"/>
<path d="M704.998 218.453V338.77C704.998 339.751 705.388 340.692 706.082 341.386C706.775 342.08 707.717 342.47 708.698 342.47H910.958C911.94 342.47 912.881 342.08 913.575 341.386C914.269 340.692 914.659 339.751 914.659 338.77V218.453H704.998Z" fill="white"/>
<path opacity="0.8" d="M708.319 215.666C708.792 215.666 709.176 215.282 709.176 214.809C709.176 214.335 708.792 213.951 708.319 213.951C707.845 213.951 707.461 214.335 707.461 214.809C707.461 215.282 707.845 215.666 708.319 215.666Z" fill="#FA5959"/>
<path opacity="0.8" d="M710.677 215.666C711.15 215.666 711.534 215.282 711.534 214.809C711.534 214.335 711.15 213.951 710.677 213.951C710.203 213.951 709.819 214.335 709.819 214.809C709.819 215.282 710.203 215.666 710.677 215.666Z" fill="#FED253"/>
<path opacity="0.8" d="M713.035 215.666C713.508 215.666 713.892 215.282 713.892 214.809C713.892 214.335 713.508 213.951 713.035 213.951C712.561 213.951 712.177 214.335 712.177 214.809C712.177 215.282 712.561 215.666 713.035 215.666Z" fill="#8CCF4D"/>
<path opacity="0.05" d="M892.987 238.514H724.487V312.607H892.987V238.514Z" fill="black"/>
<path d="M891.701 239.076H725.773V311.535H891.701V239.076Z" fill="#3F3D56"/>
<path d="M771.007 257.725C767.742 257.725 764.55 258.693 761.836 260.507C759.121 262.32 757.005 264.898 755.756 267.915C754.507 270.931 754.18 274.25 754.817 277.452C755.454 280.654 757.026 283.595 759.334 285.904C761.643 288.213 764.584 289.785 767.786 290.422C770.988 291.059 774.307 290.732 777.324 289.482C780.34 288.233 782.918 286.117 784.732 283.403C786.546 280.688 787.514 277.497 787.514 274.232C787.514 272.064 787.087 269.917 786.257 267.915C785.428 265.912 784.212 264.092 782.679 262.559C781.146 261.027 779.326 259.811 777.324 258.981C775.321 258.152 773.174 257.725 771.007 257.725ZM773.967 274.628V282.445H768.132V274.628C767.324 274.017 766.729 273.168 766.43 272.2C766.132 271.232 766.144 270.195 766.467 269.235C766.789 268.275 767.405 267.44 768.227 266.849C769.05 266.258 770.037 265.94 771.05 265.94C772.062 265.94 773.049 266.258 773.872 266.849C774.694 267.44 775.31 268.275 775.632 269.235C775.955 270.195 775.967 271.232 775.669 272.2C775.37 273.168 774.775 274.017 773.967 274.628Z" fill="#FF6B6B"/>
<path opacity="0.05" d="M771.007 257.725C767.742 257.725 764.55 258.693 761.836 260.507C759.121 262.32 757.005 264.898 755.756 267.915C754.507 270.931 754.18 274.25 754.817 277.452C755.454 280.654 757.026 283.595 759.334 285.904C761.643 288.213 764.584 289.785 767.786 290.422C770.988 291.059 774.307 290.732 777.324 289.482C780.34 288.233 782.918 286.117 784.732 283.403C786.546 280.688 787.514 277.497 787.514 274.232C787.514 272.064 787.087 269.917 786.257 267.915C785.428 265.912 784.212 264.092 782.679 262.559C781.146 261.027 779.326 259.811 777.324 258.981C775.321 258.152 773.174 257.725 771.007 257.725ZM773.967 274.628V282.445H768.132V274.628C767.324 274.017 766.729 273.168 766.43 272.2C766.132 271.232 766.144 270.195 766.467 269.235C766.789 268.275 767.405 267.44 768.227 266.849C769.05 266.258 770.037 265.94 771.05 265.94C772.062 265.94 773.049 266.258 773.872 266.849C774.694 267.44 775.31 268.275 775.632 269.235C775.955 270.195 775.967 271.232 775.669 272.2C775.37 273.168 774.775 274.017 773.967 274.628Z" fill="black"/>
<path d="M771.007 253.008C766.809 253.008 762.706 254.253 759.216 256.585C755.725 258.917 753.005 262.232 751.399 266.11C749.792 269.988 749.372 274.255 750.191 278.372C751.01 282.489 753.031 286.271 755.999 289.239C758.968 292.207 762.749 294.228 766.866 295.047C770.983 295.866 775.25 295.446 779.128 293.839C783.006 292.233 786.321 289.513 788.653 286.023C790.985 282.533 792.23 278.429 792.23 274.232C792.23 268.603 789.994 263.205 786.014 259.225C782.034 255.244 776.635 253.008 771.007 253.008ZM774.812 274.742V284.79H767.309V274.742C766.27 273.956 765.504 272.864 765.12 271.619C764.736 270.374 764.752 269.041 765.167 267.806C765.581 266.571 766.373 265.498 767.431 264.737C768.488 263.977 769.758 263.568 771.06 263.568C772.363 263.568 773.632 263.977 774.69 264.737C775.747 265.498 776.539 266.571 776.954 267.806C777.368 269.041 777.385 270.374 777 271.619C776.616 272.864 775.85 273.956 774.812 274.742Z" fill="#FF6B6B"/>
<path d="M869.62 271.447H801.019V278.736H869.62V271.447Z" fill="white"/>
<path d="M869.62 284.738H854.828V292.027H869.62V284.738Z" fill="#FF6B6B"/>
<path d="M807.772 274.982H806.531L807.635 273.88C807.655 273.86 807.666 273.832 807.666 273.804C807.666 273.776 807.655 273.748 807.635 273.728C807.625 273.718 807.613 273.71 807.6 273.704C807.587 273.699 807.573 273.696 807.559 273.696C807.545 273.696 807.531 273.699 807.518 273.704C807.505 273.71 807.493 273.718 807.483 273.728L806.379 274.832V273.589C806.379 273.56 806.368 273.533 806.347 273.513C806.327 273.493 806.3 273.481 806.272 273.481C806.243 273.482 806.216 273.493 806.196 273.513C806.176 273.533 806.165 273.56 806.164 273.589V274.832L805.063 273.721C805.053 273.711 805.041 273.703 805.028 273.698C805.015 273.693 805.001 273.69 804.986 273.69C804.972 273.69 804.958 273.693 804.945 273.698C804.932 273.703 804.92 273.711 804.91 273.721C804.891 273.742 804.88 273.769 804.88 273.798C804.88 273.826 804.891 273.853 804.91 273.874L806.014 274.976H804.771C804.743 274.976 804.716 274.988 804.696 275.008C804.676 275.028 804.664 275.055 804.664 275.083C804.664 275.111 804.675 275.138 804.695 275.159C804.715 275.179 804.743 275.19 804.771 275.19H806.014L804.91 276.294C804.891 276.314 804.88 276.342 804.88 276.37C804.88 276.399 804.891 276.426 804.91 276.446C804.931 276.466 804.958 276.476 804.986 276.476C805.015 276.476 805.042 276.466 805.063 276.446L806.164 275.342V276.583C806.164 276.612 806.176 276.639 806.196 276.659C806.216 276.679 806.243 276.691 806.272 276.691C806.3 276.691 806.327 276.679 806.347 276.659C806.368 276.639 806.379 276.612 806.379 276.583V275.342L807.483 276.446C807.503 276.466 807.531 276.476 807.559 276.476C807.587 276.476 807.614 276.466 807.635 276.446C807.655 276.426 807.666 276.399 807.666 276.37C807.666 276.342 807.655 276.314 807.635 276.294L806.531 275.19H807.772C807.801 275.19 807.828 275.179 807.848 275.159C807.868 275.138 807.879 275.111 807.879 275.083C807.878 275.055 807.866 275.03 807.846 275.011C807.826 274.992 807.8 274.982 807.772 274.982Z" fill="#FF6B6B"/>
<path d="M812.274 274.982H811.033L812.137 273.88C812.157 273.86 812.168 273.832 812.168 273.804C812.168 273.776 812.157 273.748 812.137 273.728C812.127 273.718 812.115 273.71 812.102 273.704C812.089 273.699 812.075 273.696 812.061 273.696C812.047 273.696 812.033 273.699 812.02 273.704C812.007 273.71 811.995 273.718 811.985 273.728L810.881 274.832V273.589C810.881 273.56 810.869 273.533 810.849 273.513C810.829 273.493 810.802 273.481 810.774 273.481C810.745 273.482 810.718 273.493 810.698 273.513C810.678 273.533 810.667 273.56 810.666 273.589V274.832L809.564 273.721C809.555 273.711 809.543 273.703 809.53 273.698C809.517 273.693 809.503 273.69 809.488 273.69C809.474 273.69 809.46 273.693 809.447 273.698C809.434 273.703 809.422 273.711 809.412 273.721C809.392 273.742 809.381 273.769 809.381 273.798C809.381 273.826 809.392 273.853 809.412 273.874L810.516 274.976H809.273C809.245 274.976 809.218 274.988 809.198 275.008C809.178 275.028 809.166 275.055 809.166 275.083C809.166 275.111 809.177 275.138 809.197 275.159C809.217 275.179 809.245 275.19 809.273 275.19H810.516L809.412 276.294C809.392 276.314 809.381 276.342 809.381 276.37C809.381 276.399 809.392 276.426 809.412 276.446C809.433 276.466 809.46 276.476 809.488 276.476C809.517 276.476 809.544 276.466 809.564 276.446L810.666 275.342V276.583C810.666 276.612 810.678 276.639 810.698 276.659C810.718 276.679 810.745 276.691 810.774 276.691C810.802 276.691 810.829 276.679 810.849 276.659C810.869 276.639 810.881 276.612 810.881 276.583V275.342L811.985 276.446C812.005 276.466 812.033 276.476 812.061 276.476C812.089 276.476 812.116 276.466 812.137 276.446C812.157 276.426 812.168 276.399 812.168 276.37C812.168 276.342 812.157 276.314 812.137 276.294L811.033 275.19H812.274C812.303 275.19 812.33 275.179 812.35 275.159C812.37 275.138 812.381 275.111 812.381 275.083C812.38 275.055 812.368 275.03 812.348 275.011C812.328 274.992 812.302 274.982 812.274 274.982Z" fill="#FF6B6B"/>
<path d="M816.776 274.982H815.535L816.639 273.88C816.659 273.86 816.67 273.832 816.67 273.804C816.67 273.776 816.659 273.748 816.639 273.728C816.629 273.718 816.617 273.71 816.604 273.704C816.591 273.699 816.577 273.696 816.563 273.696C816.549 273.696 816.535 273.699 816.522 273.704C816.509 273.71 816.497 273.718 816.487 273.728L815.383 274.832V273.589C815.383 273.56 815.371 273.533 815.351 273.513C815.331 273.493 815.304 273.481 815.275 273.481C815.247 273.482 815.22 273.493 815.2 273.513C815.18 273.533 815.169 273.56 815.168 273.589V274.832L814.066 273.721C814.056 273.711 814.045 273.703 814.032 273.698C814.018 273.693 814.004 273.69 813.99 273.69C813.976 273.69 813.962 273.693 813.949 273.698C813.936 273.703 813.924 273.711 813.914 273.721C813.894 273.742 813.883 273.769 813.883 273.798C813.883 273.826 813.894 273.853 813.914 273.874L815.018 274.976H813.775C813.747 274.976 813.72 274.988 813.7 275.008C813.68 275.028 813.668 275.055 813.668 275.083C813.668 275.111 813.679 275.138 813.699 275.159C813.719 275.179 813.746 275.19 813.775 275.19H815.018L813.914 276.294C813.894 276.314 813.883 276.342 813.883 276.37C813.883 276.399 813.894 276.426 813.914 276.446C813.935 276.466 813.962 276.476 813.99 276.476C814.019 276.476 814.046 276.466 814.066 276.446L815.168 275.342V276.583C815.168 276.612 815.18 276.639 815.2 276.659C815.22 276.679 815.247 276.691 815.275 276.691C815.304 276.691 815.331 276.679 815.351 276.659C815.371 276.639 815.383 276.612 815.383 276.583V275.342L816.487 276.446C816.507 276.466 816.535 276.476 816.563 276.476C816.591 276.476 816.618 276.466 816.639 276.446C816.659 276.426 816.67 276.399 816.67 276.37C816.67 276.342 816.659 276.314 816.639 276.294L815.535 275.19H816.776C816.805 275.19 816.832 275.179 816.852 275.159C816.872 275.138 816.883 275.111 816.883 275.083C816.882 275.055 816.87 275.03 816.85 275.011C816.83 274.992 816.803 274.982 816.776 274.982Z" fill="#FF6B6B"/>
<path d="M821.278 274.982H820.037L821.141 273.88C821.161 273.86 821.172 273.832 821.172 273.804C821.172 273.776 821.161 273.748 821.141 273.728C821.131 273.718 821.119 273.71 821.106 273.704C821.093 273.699 821.079 273.696 821.065 273.696C821.051 273.696 821.037 273.699 821.023 273.704C821.01 273.71 820.999 273.718 820.989 273.728L819.885 274.832V273.589C819.885 273.56 819.873 273.533 819.853 273.513C819.833 273.493 819.806 273.481 819.777 273.481C819.749 273.482 819.722 273.493 819.702 273.513C819.682 273.533 819.671 273.56 819.67 273.589V274.832L818.568 273.721C818.558 273.711 818.546 273.703 818.533 273.698C818.52 273.693 818.506 273.69 818.492 273.69C818.478 273.69 818.464 273.693 818.451 273.698C818.438 273.703 818.426 273.711 818.416 273.721C818.396 273.742 818.385 273.769 818.385 273.798C818.385 273.826 818.396 273.853 818.416 273.874L819.52 274.976H818.277C818.248 274.976 818.222 274.988 818.202 275.008C818.182 275.028 818.17 275.055 818.17 275.083C818.17 275.111 818.181 275.138 818.201 275.159C818.221 275.179 818.248 275.19 818.277 275.19H819.52L818.416 276.294C818.396 276.314 818.385 276.342 818.385 276.37C818.385 276.399 818.396 276.426 818.416 276.446C818.437 276.466 818.464 276.476 818.492 276.476C818.52 276.476 818.548 276.466 818.568 276.446L819.67 275.342V276.583C819.67 276.612 819.681 276.639 819.702 276.659C819.722 276.679 819.749 276.691 819.777 276.691C819.806 276.691 819.833 276.679 819.853 276.659C819.873 276.639 819.885 276.612 819.885 276.583V275.342L820.989 276.446C821.009 276.466 821.036 276.476 821.065 276.476C821.093 276.476 821.12 276.466 821.141 276.446C821.161 276.426 821.172 276.399 821.172 276.37C821.172 276.342 821.161 276.314 821.141 276.294L820.037 275.19H821.278C821.306 275.19 821.334 275.179 821.354 275.159C821.374 275.138 821.385 275.111 821.385 275.083C821.384 275.055 821.372 275.03 821.352 275.011C821.332 274.992 821.305 274.982 821.278 274.982Z" fill="#FF6B6B"/>
<path d="M825.78 274.982H824.539L825.643 273.88C825.663 273.86 825.674 273.832 825.674 273.804C825.674 273.776 825.663 273.748 825.643 273.728C825.633 273.718 825.621 273.71 825.608 273.704C825.595 273.699 825.581 273.696 825.567 273.696C825.553 273.696 825.539 273.699 825.525 273.704C825.512 273.71 825.501 273.718 825.491 273.728L824.387 274.832V273.589C824.387 273.56 824.375 273.533 824.355 273.513C824.335 273.493 824.308 273.481 824.279 273.481C824.251 273.482 824.224 273.493 824.204 273.513C824.184 273.533 824.173 273.56 824.172 273.589V274.832L823.07 273.721C823.06 273.711 823.048 273.703 823.035 273.698C823.022 273.693 823.008 273.69 822.994 273.69C822.98 273.69 822.966 273.693 822.953 273.698C822.94 273.703 822.928 273.711 822.918 273.721C822.898 273.742 822.887 273.769 822.887 273.798C822.887 273.826 822.898 273.853 822.918 273.874L824.022 274.976H822.779C822.75 274.976 822.723 274.988 822.704 275.008C822.684 275.028 822.672 275.055 822.672 275.083C822.672 275.111 822.683 275.138 822.703 275.159C822.723 275.179 822.75 275.19 822.779 275.19H824.022L822.918 276.294C822.898 276.314 822.887 276.342 822.887 276.37C822.887 276.399 822.898 276.426 822.918 276.446C822.939 276.466 822.966 276.476 822.994 276.476C823.022 276.476 823.05 276.466 823.07 276.446L824.172 275.342V276.583C824.172 276.612 824.183 276.639 824.204 276.659C824.224 276.679 824.251 276.691 824.279 276.691C824.308 276.691 824.335 276.679 824.355 276.659C824.375 276.639 824.387 276.612 824.387 276.583V275.342L825.491 276.446C825.511 276.466 825.538 276.476 825.567 276.476C825.595 276.476 825.622 276.466 825.643 276.446C825.663 276.426 825.674 276.399 825.674 276.37C825.674 276.342 825.663 276.314 825.643 276.294L824.539 275.19H825.78C825.808 275.19 825.836 275.179 825.856 275.159C825.876 275.138 825.887 275.111 825.887 275.083C825.886 275.055 825.874 275.03 825.854 275.011C825.834 274.992 825.807 274.982 825.78 274.982Z" fill="#FF6B6B"/>
<path d="M830.282 274.982H829.041L830.145 273.88C830.164 273.86 830.175 273.832 830.175 273.804C830.175 273.776 830.164 273.748 830.145 273.728C830.135 273.718 830.123 273.71 830.11 273.704C830.097 273.699 830.083 273.696 830.069 273.696C830.054 273.696 830.04 273.699 830.027 273.704C830.014 273.71 830.002 273.718 829.992 273.728L828.888 274.832V273.589C828.888 273.56 828.877 273.533 828.857 273.513C828.837 273.493 828.81 273.481 828.781 273.481C828.753 273.482 828.726 273.493 828.706 273.513C828.686 273.533 828.675 273.56 828.674 273.589V274.832L827.572 273.721C827.562 273.711 827.55 273.703 827.537 273.698C827.524 273.693 827.51 273.69 827.496 273.69C827.482 273.69 827.468 273.693 827.455 273.698C827.442 273.703 827.43 273.711 827.42 273.721C827.4 273.742 827.389 273.769 827.389 273.798C827.389 273.826 827.4 273.853 827.42 273.874L828.524 274.976H827.281C827.252 274.976 827.225 274.988 827.205 275.008C827.185 275.028 827.174 275.055 827.173 275.083C827.173 275.111 827.185 275.138 827.205 275.159C827.225 275.179 827.252 275.19 827.281 275.19H828.524L827.42 276.294C827.4 276.314 827.389 276.342 827.389 276.37C827.389 276.399 827.4 276.426 827.42 276.446C827.441 276.466 827.468 276.476 827.496 276.476C827.524 276.476 827.551 276.466 827.572 276.446L828.674 275.342V276.583C828.674 276.612 828.685 276.639 828.705 276.659C828.726 276.679 828.753 276.691 828.781 276.691C828.81 276.691 828.837 276.679 828.857 276.659C828.877 276.639 828.888 276.612 828.888 276.583V275.342L829.992 276.446C830.013 276.466 830.04 276.476 830.069 276.476C830.097 276.476 830.124 276.466 830.145 276.446C830.164 276.426 830.175 276.399 830.175 276.37C830.175 276.342 830.164 276.314 830.145 276.294L829.041 275.19H830.282C830.31 275.19 830.338 275.179 830.358 275.159C830.378 275.138 830.389 275.111 830.389 275.083C830.387 275.055 830.375 275.03 830.355 275.011C830.336 274.992 830.309 274.982 830.282 274.982Z" fill="#FF6B6B"/>
<path d="M834.784 274.982H833.543L834.647 273.88C834.666 273.86 834.677 273.832 834.677 273.804C834.677 273.776 834.666 273.748 834.647 273.728C834.637 273.718 834.625 273.71 834.612 273.704C834.599 273.699 834.585 273.696 834.57 273.696C834.556 273.696 834.542 273.699 834.529 273.704C834.516 273.71 834.504 273.718 834.494 273.728L833.39 274.832V273.589C833.39 273.56 833.379 273.533 833.359 273.513C833.339 273.493 833.312 273.481 833.283 273.481C833.255 273.482 833.228 273.493 833.208 273.513C833.188 273.533 833.177 273.56 833.176 273.589V274.832L832.074 273.721C832.064 273.711 832.052 273.703 832.039 273.698C832.026 273.693 832.012 273.69 831.998 273.69C831.984 273.69 831.97 273.693 831.957 273.698C831.944 273.703 831.932 273.711 831.922 273.721C831.902 273.742 831.891 273.769 831.891 273.798C831.891 273.826 831.902 273.853 831.922 273.874L833.026 274.976H831.783C831.754 274.976 831.727 274.988 831.707 275.008C831.687 275.028 831.676 275.055 831.675 275.083C831.675 275.111 831.687 275.138 831.707 275.159C831.727 275.179 831.754 275.19 831.783 275.19H833.026L831.922 276.294C831.902 276.314 831.891 276.342 831.891 276.37C831.891 276.399 831.902 276.426 831.922 276.446C831.942 276.466 831.97 276.476 831.998 276.476C832.026 276.476 832.053 276.466 832.074 276.446L833.176 275.342V276.583C833.176 276.612 833.187 276.639 833.207 276.659C833.227 276.679 833.255 276.691 833.283 276.691C833.312 276.691 833.339 276.679 833.359 276.659C833.379 276.639 833.39 276.612 833.39 276.583V275.342L834.494 276.446C834.515 276.466 834.542 276.476 834.57 276.476C834.599 276.476 834.626 276.466 834.647 276.446C834.666 276.426 834.677 276.399 834.677 276.37C834.677 276.342 834.666 276.314 834.647 276.294L833.543 275.19H834.784C834.812 275.19 834.839 275.179 834.86 275.159C834.88 275.138 834.891 275.111 834.891 275.083C834.889 275.055 834.877 275.03 834.857 275.011C834.837 274.992 834.811 274.982 834.784 274.982Z" fill="#FF6B6B"/>
<path d="M839.286 274.982H838.044L839.149 273.88C839.168 273.86 839.179 273.832 839.179 273.804C839.179 273.776 839.168 273.748 839.149 273.728C839.139 273.718 839.127 273.71 839.114 273.704C839.101 273.699 839.087 273.696 839.072 273.696C839.058 273.696 839.044 273.699 839.031 273.704C839.018 273.71 839.006 273.718 838.996 273.728L837.892 274.832V273.589C837.892 273.56 837.881 273.533 837.861 273.513C837.841 273.493 837.814 273.481 837.785 273.481C837.757 273.482 837.73 273.493 837.71 273.513C837.69 273.533 837.678 273.56 837.678 273.589V274.832L836.576 273.721C836.566 273.711 836.554 273.703 836.541 273.698C836.528 273.693 836.514 273.69 836.5 273.69C836.486 273.69 836.472 273.693 836.459 273.698C836.446 273.703 836.434 273.711 836.424 273.721C836.404 273.742 836.393 273.769 836.393 273.798C836.393 273.826 836.404 273.853 836.424 273.874L837.528 274.976H836.284C836.256 274.976 836.229 274.988 836.209 275.008C836.189 275.028 836.178 275.055 836.177 275.083C836.177 275.111 836.189 275.138 836.209 275.159C836.229 275.179 836.256 275.19 836.284 275.19H837.528L836.424 276.294C836.404 276.314 836.393 276.342 836.393 276.37C836.393 276.399 836.404 276.426 836.424 276.446C836.444 276.466 836.472 276.476 836.5 276.476C836.528 276.476 836.555 276.466 836.576 276.446L837.678 275.342V276.583C837.678 276.612 837.689 276.639 837.709 276.659C837.729 276.679 837.757 276.691 837.785 276.691C837.814 276.691 837.841 276.679 837.861 276.659C837.881 276.639 837.892 276.612 837.892 276.583V275.342L838.996 276.446C839.017 276.466 839.044 276.476 839.072 276.476C839.101 276.476 839.128 276.466 839.149 276.446C839.168 276.426 839.179 276.399 839.179 276.37C839.179 276.342 839.168 276.314 839.149 276.294L838.044 275.19H839.286C839.314 275.19 839.341 275.179 839.361 275.159C839.382 275.138 839.393 275.111 839.393 275.083C839.391 275.055 839.379 275.03 839.359 275.011C839.339 274.992 839.313 274.982 839.286 274.982Z" fill="#FF6B6B"/>
<path d="M843.788 274.982H842.546L843.65 273.88C843.67 273.86 843.681 273.832 843.681 273.804C843.681 273.776 843.67 273.748 843.65 273.728C843.64 273.718 843.629 273.71 843.616 273.704C843.602 273.699 843.588 273.696 843.574 273.696C843.56 273.696 843.546 273.699 843.533 273.704C843.52 273.71 843.508 273.718 843.498 273.728L842.394 274.832V273.589C842.394 273.56 842.383 273.533 842.363 273.513C842.343 273.493 842.315 273.481 842.287 273.481C842.259 273.482 842.232 273.493 842.212 273.513C842.192 273.533 842.18 273.56 842.18 273.589V274.832L841.078 273.721C841.068 273.711 841.056 273.703 841.043 273.698C841.03 273.693 841.016 273.69 841.002 273.69C840.988 273.69 840.974 273.693 840.961 273.698C840.948 273.703 840.936 273.711 840.926 273.721C840.906 273.742 840.895 273.769 840.895 273.798C840.895 273.826 840.906 273.853 840.926 273.874L842.03 274.976H840.786C840.758 274.976 840.731 274.988 840.711 275.008C840.691 275.028 840.68 275.055 840.679 275.083C840.679 275.111 840.69 275.138 840.711 275.159C840.731 275.179 840.758 275.19 840.786 275.19H842.03L840.926 276.294C840.906 276.314 840.895 276.342 840.895 276.37C840.895 276.399 840.906 276.426 840.926 276.446C840.946 276.466 840.974 276.476 841.002 276.476C841.03 276.476 841.057 276.466 841.078 276.446L842.18 275.342V276.583C842.18 276.612 842.191 276.639 842.211 276.659C842.231 276.679 842.259 276.691 842.287 276.691C842.315 276.691 842.343 276.679 842.363 276.659C842.383 276.639 842.394 276.612 842.394 276.583V275.342L843.498 276.446C843.519 276.466 843.546 276.476 843.574 276.476C843.603 276.476 843.63 276.466 843.65 276.446C843.67 276.426 843.681 276.399 843.681 276.37C843.681 276.342 843.67 276.314 843.65 276.294L842.546 275.19H843.788C843.816 275.19 843.843 275.179 843.863 275.159C843.884 275.138 843.895 275.111 843.895 275.083C843.893 275.055 843.881 275.03 843.861 275.011C843.841 274.992 843.815 274.982 843.788 274.982Z" fill="#FF6B6B"/>
<path d="M848.29 274.982H847.048L848.152 273.88C848.172 273.86 848.183 273.832 848.183 273.804C848.183 273.776 848.172 273.748 848.152 273.728C848.142 273.718 848.131 273.71 848.117 273.704C848.104 273.699 848.09 273.696 848.076 273.696C848.062 273.696 848.048 273.699 848.035 273.704C848.022 273.71 848.01 273.718 848 273.728L846.896 274.832V273.589C846.896 273.56 846.885 273.533 846.865 273.513C846.845 273.493 846.817 273.481 846.789 273.481C846.761 273.482 846.734 273.493 846.714 273.513C846.694 273.533 846.682 273.56 846.682 273.589V274.832L845.58 273.721C845.57 273.711 845.558 273.703 845.545 273.698C845.532 273.693 845.518 273.69 845.504 273.69C845.49 273.69 845.476 273.693 845.462 273.698C845.449 273.703 845.438 273.711 845.428 273.721C845.408 273.742 845.397 273.769 845.397 273.798C845.397 273.826 845.408 273.853 845.428 273.874L846.532 274.976H845.288C845.26 274.976 845.233 274.988 845.213 275.008C845.193 275.028 845.182 275.055 845.181 275.083C845.181 275.111 845.192 275.138 845.212 275.159C845.233 275.179 845.26 275.19 845.288 275.19H846.532L845.428 276.294C845.408 276.314 845.397 276.342 845.397 276.37C845.397 276.399 845.408 276.426 845.428 276.446C845.448 276.466 845.475 276.476 845.504 276.476C845.532 276.476 845.559 276.466 845.58 276.446L846.682 275.342V276.583C846.682 276.612 846.693 276.639 846.713 276.659C846.733 276.679 846.76 276.691 846.789 276.691C846.817 276.691 846.845 276.679 846.865 276.659C846.885 276.639 846.896 276.612 846.896 276.583V275.342L848 276.446C848.021 276.466 848.048 276.476 848.076 276.476C848.104 276.476 848.132 276.466 848.152 276.446C848.172 276.426 848.183 276.399 848.183 276.37C848.183 276.342 848.172 276.314 848.152 276.294L847.048 275.19H848.29C848.318 275.19 848.345 275.179 848.365 275.159C848.385 275.138 848.397 275.111 848.397 275.083C848.395 275.055 848.383 275.03 848.363 275.011C848.343 274.992 848.317 274.982 848.29 274.982Z" fill="#FF6B6B"/>
<path d="M852.791 274.982H851.55L852.654 273.88C852.674 273.86 852.685 273.832 852.685 273.804C852.685 273.776 852.674 273.748 852.654 273.728C852.644 273.718 852.632 273.71 852.619 273.704C852.606 273.699 852.592 273.696 852.578 273.696C852.564 273.696 852.55 273.699 852.537 273.704C852.524 273.71 852.512 273.718 852.502 273.728L851.398 274.832V273.589C851.398 273.56 851.387 273.533 851.367 273.513C851.347 273.493 851.319 273.481 851.291 273.481C851.263 273.482 851.236 273.493 851.216 273.513C851.196 273.533 851.184 273.56 851.184 273.589V274.832L850.082 273.721C850.072 273.711 850.06 273.703 850.047 273.698C850.034 273.693 850.02 273.69 850.006 273.69C849.991 273.69 849.977 273.693 849.964 273.698C849.951 273.703 849.939 273.711 849.93 273.721C849.91 273.742 849.899 273.769 849.899 273.798C849.899 273.826 849.91 273.853 849.93 273.874L851.034 274.976H849.79C849.762 274.976 849.735 274.988 849.715 275.008C849.695 275.028 849.684 275.055 849.683 275.083C849.683 275.111 849.694 275.138 849.714 275.159C849.734 275.179 849.762 275.19 849.79 275.19H851.034L849.93 276.294C849.91 276.314 849.899 276.342 849.899 276.37C849.899 276.399 849.91 276.426 849.93 276.446C849.95 276.466 849.977 276.476 850.006 276.476C850.034 276.476 850.061 276.466 850.082 276.446L851.184 275.342V276.583C851.184 276.612 851.195 276.639 851.215 276.659C851.235 276.679 851.262 276.691 851.291 276.691C851.319 276.691 851.347 276.679 851.367 276.659C851.387 276.639 851.398 276.612 851.398 276.583V275.342L852.502 276.446C852.523 276.466 852.55 276.476 852.578 276.476C852.606 276.476 852.634 276.466 852.654 276.446C852.674 276.426 852.685 276.399 852.685 276.37C852.685 276.342 852.674 276.314 852.654 276.294L851.55 275.19H852.791C852.82 275.19 852.847 275.179 852.867 275.159C852.887 275.138 852.899 275.111 852.899 275.083C852.897 275.055 852.885 275.03 852.865 275.011C852.845 274.992 852.819 274.982 852.791 274.982Z" fill="#FF6B6B"/>
<path d="M887.304 301.061C887.298 300.802 887.266 300.544 887.207 300.291C887.015 299.567 886.579 298.69 885.863 298.471C885.124 298.245 884.41 297.943 883.732 297.571C883.604 295.273 884.131 292.921 883.557 290.694C883.342 289.879 882.989 289.099 882.894 288.265C882.776 287.227 883.059 286.121 882.646 285.165C882.32 284.41 881.604 283.879 880.834 283.6C880.064 283.321 879.235 283.246 878.418 283.171C877.389 283.088 874.058 282.693 872.896 283.613C872.816 283.675 872.744 283.747 872.681 283.827C872.656 283.863 872.633 283.9 872.613 283.939L872.602 283.956C872.579 284.001 872.559 284.047 872.544 284.095C872.528 284.148 872.516 284.202 872.508 284.256C872.508 284.273 872.508 284.29 872.508 284.307C872.508 284.325 872.508 284.382 872.508 284.421V284.479C872.508 284.517 872.508 284.556 872.508 284.597C872.508 284.638 872.508 284.627 872.508 284.642C872.523 284.835 872.551 285.028 872.551 285.218C872.553 285.313 872.544 285.408 872.525 285.501C872.453 285.754 872.332 285.99 872.169 286.196L872.13 286.252C872.107 286.286 872.083 286.318 872.062 286.353C872.04 286.387 872.023 286.413 872.006 286.443C871.989 286.473 871.972 286.492 871.957 286.52C871.936 286.555 871.917 286.592 871.901 286.629C871.901 286.651 871.877 286.67 871.869 286.691C871.842 286.749 871.82 286.81 871.804 286.871C871.754 287.058 871.75 287.253 871.792 287.442C871.849 287.682 871.949 287.911 872.085 288.117C872.139 288.205 872.197 288.291 872.257 288.376L872.407 288.58C872.379 288.779 872.364 288.979 872.362 289.18C872.362 289.851 872.514 290.514 872.808 291.118C873.101 291.722 873.528 292.251 874.055 292.666C874.14 293.571 874.131 294.483 874.028 295.386C874.008 295.575 873.985 295.766 873.959 295.955C873.933 296.143 873.914 296.267 873.888 296.424C873.575 296.469 873.255 296.445 872.951 296.353C872.811 296.291 872.668 296.236 872.523 296.188C871.899 296.032 871.262 296.653 870.645 296.465C870.645 296.495 870.628 296.523 870.617 296.55C870.488 296.47 870.34 296.427 870.188 296.424C869.822 296.407 869.524 296.141 869.258 295.89L868.441 295.121C868.388 295.073 868.34 295.02 868.299 294.962C868.256 294.879 868.222 294.79 868.201 294.698C868.064 294.254 867.731 293.901 867.41 293.564C867.349 293.487 867.268 293.429 867.176 293.395C867.141 293.389 867.104 293.389 867.069 293.395C867.047 293.365 867.023 293.336 866.998 293.309C866.943 293.245 866.883 293.185 866.82 293.129C866.43 292.769 866.392 292.46 866.053 292.057C865.757 291.673 865.489 291.268 865.251 290.846C865.223 290.621 865.185 290.389 865.137 290.156C865.029 289.621 864.872 289.097 864.668 288.591L864.239 287.641L864.19 287.69C863.879 287.227 863.547 286.974 863.249 287.034C862.749 287.137 862.503 288.106 862.582 289.373L862.754 290.659C862.754 290.692 862.769 290.724 862.777 290.756C862.746 290.908 862.73 291.063 862.73 291.219C862.73 291.399 862.897 291.532 862.985 291.693C863.126 291.91 863.2 292.164 863.199 292.424C863.189 292.516 863.161 292.604 863.157 292.694C863.168 292.895 863.238 293.089 863.358 293.251L864.43 295.052L864.644 295.429L864.657 295.446C864.725 295.578 864.823 295.691 864.944 295.777C864.986 296.227 865.106 296.668 865.298 297.078C865.335 297.159 865.375 297.236 865.418 297.314C865.706 297.787 866.046 298.228 866.43 298.628L866.94 299.2C867.444 299.762 867.948 300.326 868.495 300.844C868.69 301.053 868.927 301.218 869.189 301.331C869.318 301.382 869.458 301.399 869.595 301.379C869.732 301.359 869.861 301.303 869.969 301.217C869.969 301.483 869.969 301.749 869.969 302.015C870.049 302.02 870.126 302.046 870.192 302.09C870.258 302.135 870.311 302.196 870.346 302.268C870.38 302.34 870.395 302.42 870.388 302.499C870.382 302.579 870.354 302.655 870.308 302.72C869.858 303.876 869.403 305.042 868.722 306.077C869.203 306.362 869.649 306.703 870.051 307.091C870.312 307.38 870.544 307.694 870.743 308.028C870.763 308.187 870.778 308.343 870.786 308.5C870.945 311.055 869.957 313.591 869.071 316.027C868.816 316.717 868.537 317.439 868.559 318.158C868.391 318.261 868.23 318.376 868.079 318.503C868.254 318.961 868.186 319.371 868.167 319.862C868.16 320.156 868.1 320.447 867.989 320.719C867.895 320.908 867.792 321.092 867.68 321.27C867.125 322.25 867.002 323.414 866.891 324.533C866.825 325.208 867.086 326.034 866.78 326.638C866.25 327.676 865.781 328.782 865.708 329.935C865.705 330.195 865.672 330.453 865.609 330.705C865.543 330.919 865.425 331.102 865.365 331.312C865.303 331.593 865.288 331.883 865.322 332.169C865.363 333.197 865.21 334.223 864.872 335.194C864.604 335.959 864.308 336.778 864.518 337.565C864.001 338.108 863.681 338.81 863.611 339.557C863.606 339.748 863.583 339.938 863.542 340.125C863.477 340.316 863.391 340.499 863.285 340.671C862.854 341.457 862.652 342.349 862.702 343.244C862.059 344.116 861.737 345.193 861.547 346.262C861.356 347.332 861.272 348.421 861.028 349.478C860.702 350.876 860.112 352.288 859.997 353.721C859.302 354.164 859.002 355.024 858.869 355.836C858.736 356.649 858.715 357.502 858.374 358.252C858.198 358.643 857.945 358.992 857.778 359.391C857.661 359.708 857.574 360.036 857.521 360.371C857.418 360.894 857.328 361.477 857.454 361.978C857.272 362.171 857.06 362.332 856.826 362.456C856.86 362.323 856.888 362.191 856.912 362.056C856.359 362.557 855.355 362.381 854.914 362.984C854.781 363.178 854.729 363.416 854.769 363.648C854.809 363.88 854.938 364.087 855.128 364.225C855.266 364.309 855.416 364.373 855.572 364.416C856.644 364.759 857.746 365.104 858.848 364.922C858.978 364.908 859.104 364.868 859.218 364.804C859.362 364.698 859.48 364.562 859.564 364.405C859.729 364.144 859.894 363.882 860.057 363.62C860.452 363.738 860.853 363.832 861.259 363.901C861.3 364.244 861.33 364.587 861.345 364.93C861.559 364.973 861.847 364.986 861.947 364.787C861.978 364.711 861.991 364.63 861.984 364.549C861.984 364.396 862.005 364.195 862.018 363.989H862.061C862.715 364.016 863.366 363.884 863.958 363.605C863.729 361.706 864.486 359.85 865.142 358.053C865.834 356.162 866.428 354.237 867.026 352.312C867.455 350.957 867.929 349.645 868.349 348.288C868.878 346.573 869.408 344.858 869.942 343.143C870.173 342.389 870.407 341.643 870.673 340.892C871.232 339.374 871.896 337.896 872.66 336.47C872.874 336.064 873.089 335.664 873.264 335.243C873.479 334.731 873.631 334.195 873.802 333.666C874.176 332.579 874.626 331.52 875.149 330.497C875.164 330.469 875.175 330.443 875.19 330.418C875.363 331.127 875.537 331.848 875.653 332.562C875.809 333.437 875.822 334.332 875.689 335.211C875.586 335.809 875.391 336.401 875.415 337.008C875.447 337.846 875.895 338.607 876.116 339.415C876.258 340.02 876.338 340.638 876.356 341.259C876.416 342.223 876.939 343.306 876.57 344.2C875.423 347.032 875.978 350.23 875.325 353.204C874.988 354.73 873.957 356.164 874.038 357.725C874.095 358.833 874.193 359.937 874.33 361.039C874.363 361.387 874.453 361.727 874.598 362.045C874.683 362.212 874.782 362.373 874.892 362.525C874.797 362.561 874.718 362.658 874.649 362.862C874.473 363.398 874.649 364.062 875.125 364.362C875.319 364.466 875.528 364.538 875.745 364.577C876.036 364.659 876.338 364.701 876.641 364.701C876.735 364.696 876.829 364.684 876.922 364.667C877.253 364.806 877.591 364.928 877.936 365.031C877.936 365.119 877.953 365.207 877.964 365.295C877.964 365.341 877.974 365.386 877.994 365.428C878.013 365.469 878.041 365.507 878.075 365.537C878.129 365.562 878.188 365.572 878.247 365.567H879.411C879.411 365.471 879.411 365.372 879.411 365.275C879.544 365.289 879.678 365.275 879.806 365.234C879.933 365.192 880.051 365.125 880.15 365.035C880.253 364.904 880.326 364.752 880.365 364.589C880.682 363.513 880.997 362.436 881.31 361.359C881.685 360.168 881.841 358.918 881.771 357.671C881.357 353.721 882.266 349.757 881.97 345.795C881.792 343.414 881.915 341.02 882.335 338.669C882.431 338.137 882.549 337.597 882.592 337.068C882.686 336.069 882.57 335.059 882.641 334.066C882.665 333.719 882.712 333.374 882.755 333.029C883.049 330.887 883.203 328.728 883.216 326.565C883.209 325.849 883.165 325.133 883.083 324.422C883.306 324.365 883.509 324.246 883.668 324.079C883.859 323.83 883.81 323.481 883.807 323.163C883.807 322.404 884.127 321.688 884.384 320.972C884.714 319.985 884.985 318.978 885.194 317.958C885.416 317.136 885.537 316.29 885.555 315.439C885.555 315.353 885.55 315.268 885.542 315.182C885.623 315.126 885.69 315.053 885.739 314.968C885.795 314.842 885.83 314.708 885.842 314.571C885.919 314.024 885.998 313.476 886.076 312.927C886.133 312.534 886.189 312.141 886.245 311.75L886.927 306.993C886.985 306.579 887.045 306.167 887.102 305.756L887.28 304.525C887.3 304.38 887.321 304.234 887.336 304.097C887.859 303.222 887.36 302.056 887.304 301.061ZM881.617 318.871C881.364 318.271 881.128 317.656 881.188 317.008H881.164C881.221 316.809 881.211 316.597 881.136 316.404C881.07 316.247 880.954 316.115 880.883 315.958C880.807 315.767 880.768 315.563 880.768 315.358C880.714 314.054 880.817 312.748 881.074 311.469C881.102 311.319 881.132 311.167 881.16 311.017C881.25 310.965 881.332 310.9 881.404 310.826C881.517 310.697 881.61 310.553 881.681 310.397C881.923 309.91 882.144 309.415 882.348 308.911C882.414 308.749 882.51 308.56 882.676 308.519C882.641 309.773 882.77 311.053 882.26 312.185C882.163 312.368 882.091 312.562 882.045 312.764C881.998 313.083 882.131 313.407 882.084 313.724C882.06 313.889 881.99 314.041 881.962 314.204C881.94 314.284 881.941 314.369 881.963 314.448C881.985 314.528 882.027 314.601 882.086 314.659C882.114 314.679 882.145 314.695 882.178 314.706C882.165 314.792 882.155 314.88 882.146 314.963C882.129 315.139 882.12 315.304 882.11 315.407C882.06 315.931 882.041 316.458 882.052 316.985C882.052 317.553 882.073 318.121 882.065 318.7C882.072 318.866 882.045 319.032 881.983 319.187C881.941 319.266 881.886 319.339 881.82 319.401C881.758 319.208 881.689 319.039 881.617 318.871Z" fill="url(#paint0_linear)"/>
<path d="M864.694 293.997C865.348 293.863 865.571 292.253 865.191 290.401C864.812 288.548 863.974 287.155 863.32 287.289C862.666 287.423 862.443 289.034 862.822 290.886C863.202 292.738 864.04 294.131 864.694 293.997Z" fill="#FBBEBE"/>
<path d="M874.684 362.902C874.508 363.434 874.684 364.099 875.16 364.388C875.352 364.491 875.56 364.563 875.775 364.602C876.066 364.684 876.367 364.726 876.669 364.725C877.04 364.707 877.396 364.562 877.766 364.51C877.809 364.499 877.854 364.506 877.893 364.527C877.911 364.547 877.925 364.571 877.933 364.597C877.942 364.623 877.944 364.65 877.94 364.677C877.944 364.888 877.96 365.099 877.987 365.308C877.987 365.354 877.998 365.399 878.017 365.441C878.036 365.483 878.064 365.52 878.099 365.55C878.152 365.575 878.211 365.585 878.27 365.58H879.432C879.458 364.559 879.347 363.539 879.1 362.549C879.084 362.473 879.055 362.4 879.014 362.334C878.915 362.226 878.786 362.151 878.643 362.12C878.359 362.002 878.052 361.948 877.745 361.963C877.37 362.013 877.057 362.255 876.737 362.456C876.418 362.658 875.983 362.836 875.595 362.733C875.207 362.63 874.883 362.306 874.684 362.902Z" fill="#3F3D56"/>
<path d="M857.623 361.961C857.297 362.311 856.896 362.583 856.451 362.759L856.254 362.853C856.226 362.863 856.203 362.882 856.187 362.907C856.183 362.923 856.183 362.941 856.187 362.957C856.191 362.974 856.198 362.99 856.209 363.003C856.373 363.257 856.615 363.45 856.899 363.553C857.183 363.657 857.493 363.665 857.782 363.575C857.91 363.543 858.028 363.482 858.127 363.395C858.291 363.202 858.384 362.958 858.393 362.705C858.458 362.444 858.447 362.169 858.361 361.914C858.063 361.243 857.954 361.547 857.623 361.961Z" fill="#FBBEBE"/>
<path d="M862.078 364.602C862.085 364.683 862.072 364.765 862.042 364.84C861.941 365.038 861.66 365.027 861.442 364.984C861.408 364.257 861.32 363.533 861.178 362.819C860.762 362.799 860.462 363.194 860.239 363.548L859.664 364.459C859.581 364.616 859.464 364.752 859.321 364.857C859.206 364.92 859.081 364.96 858.95 364.975C857.853 365.158 856.745 364.812 855.686 364.469C855.53 364.428 855.38 364.364 855.242 364.281C855.053 364.142 854.925 363.935 854.885 363.704C854.845 363.473 854.896 363.236 855.027 363.042C855.471 362.441 856.468 362.613 857.021 362.116C856.963 362.465 856.869 362.808 856.738 363.138C857.478 363.027 857.975 362.349 858.571 361.897C858.721 361.77 858.901 361.684 859.094 361.648C859.239 361.636 859.384 361.651 859.523 361.693C860.21 361.866 860.853 362.183 861.409 362.621C861.634 362.799 861.986 363.05 862.085 363.325C862.19 363.653 862.078 364.253 862.078 364.602Z" fill="#3F3D56"/>
<path d="M876.825 293.871C879.271 293.871 881.254 291.888 881.254 289.442C881.254 286.996 879.271 285.013 876.825 285.013C874.379 285.013 872.396 286.996 872.396 289.442C872.396 291.888 874.379 293.871 876.825 293.871Z" fill="#FBBEBE"/>
<path d="M885.55 315.591C885.533 316.438 885.412 317.28 885.192 318.098C884.983 319.113 884.712 320.116 884.382 321.099C884.127 321.813 883.808 322.529 883.81 323.285C883.81 323.601 883.861 323.95 883.668 324.199C883.496 324.373 883.28 324.497 883.042 324.557C882.924 324.588 882.814 324.647 882.723 324.729C882.631 324.81 882.56 324.912 882.515 325.026C882.314 324.725 882.163 324.394 882.069 324.044C881.684 322.867 881.327 321.683 880.997 320.492C880.967 320.424 880.954 320.349 880.959 320.274C880.964 320.199 880.988 320.127 881.027 320.063C881.081 320.016 881.145 319.98 881.214 319.958C881.433 319.869 881.635 319.739 881.807 319.577C881.888 319.505 881.955 319.418 882.005 319.322C882.067 319.168 882.095 319.003 882.088 318.837C882.088 318.269 882.088 317.703 882.073 317.135C882.064 316.61 882.084 316.086 882.133 315.564C882.133 315.461 882.153 315.296 882.17 315.12C882.202 314.783 882.266 314.393 882.448 314.262C882.721 314.08 883.535 314.324 883.844 314.367C884.376 314.44 884.916 314.526 885.435 314.627C885.51 314.943 885.549 315.267 885.55 315.591Z" fill="#3F3D56"/>
<path d="M867.667 294.4C867.496 294.743 867.084 294.908 866.767 295.125L865.68 295.871C865.607 295.936 865.522 295.986 865.43 296.018C865.337 296.05 865.239 296.062 865.142 296.055C865.053 296.023 864.972 295.973 864.903 295.908C864.835 295.844 864.779 295.766 864.741 295.68C864.742 295.674 864.742 295.669 864.741 295.663L864.516 295.286L863.444 293.489C863.325 293.328 863.255 293.136 863.245 292.936C863.245 292.844 863.277 292.758 863.285 292.666C863.288 292.407 863.213 292.153 863.071 291.937C862.985 291.776 862.814 291.643 862.818 291.463C862.81 291.227 862.851 290.991 862.938 290.771C863.05 290.567 863.212 290.395 863.407 290.269C863.508 290.196 863.611 290.128 863.718 290.055C863.775 290.016 863.838 289.987 863.905 289.969C864.083 289.933 864.259 290.081 864.439 290.087C865.212 290.606 865.51 291.588 866.119 292.295C866.462 292.698 866.497 293.007 866.885 293.367C866.947 293.423 867.007 293.483 867.065 293.545C867.141 293.629 867.206 293.722 867.258 293.824C867.328 294.008 867.755 294.225 867.667 294.4Z" fill="#3F3D56"/>
<path d="M875.269 293.873C875.588 294.548 875.837 295.29 875.745 296.032C875.726 296.233 875.662 296.427 875.558 296.6C875.25 297.074 874.602 297.159 874.038 297.187C873.92 297.177 873.8 297.191 873.687 297.228C873.573 297.265 873.468 297.324 873.378 297.402C873.303 297.511 873.266 297.642 873.273 297.775C873.281 297.908 873.332 298.034 873.419 298.135C873.6 298.328 873.825 298.475 874.075 298.564C874.967 298.956 875.929 299.28 876.898 299.189C877.348 299.147 877.786 299.016 878.234 298.949C878.722 298.896 879.213 298.869 879.704 298.868C880.287 298.846 880.868 298.789 881.449 298.731L882.989 298.579C883.073 298.58 883.154 298.55 883.218 298.495C883.332 298.362 883.186 298.167 883.044 298.066C882.227 297.462 881.188 297.046 880.723 296.137C880.508 295.708 880.442 295.198 880.283 294.735C880.124 294.272 879.872 293.854 879.773 293.382C879.72 292.968 879.697 292.551 879.702 292.134C879.708 291.714 879.554 291.307 879.273 290.994C878.967 290.709 878.523 290.636 878.107 290.619C877.082 290.574 875.991 290.818 875.265 291.541C875.069 291.736 874.902 291.969 874.701 292.145C874.499 292.321 874.225 292.372 874.358 292.604C874.491 292.835 874.752 292.979 874.894 293.183C875.037 293.402 875.162 293.633 875.269 293.873Z" fill="#FBBEBE"/>
<path d="M884 300.109C883.73 301.76 883.29 303.378 882.688 304.939C882.386 305.644 882.128 306.367 881.917 307.104C881.752 307.769 881.784 308.481 881.632 309.147C881.443 309.977 881.254 310.809 881.102 311.645C880.847 312.921 880.745 314.224 880.798 315.525C880.798 315.73 880.837 315.933 880.913 316.123C880.984 316.277 881.098 316.41 881.164 316.569C881.214 316.708 881.234 316.856 881.224 317.004C881.214 317.152 881.173 317.295 881.104 317.427C880.994 317.672 880.845 317.898 880.663 318.095C878.665 318.691 876.527 318.496 874.446 318.623C872.527 318.739 870.587 319.133 868.696 318.805C868.482 317.947 868.84 317.049 869.146 316.213C870.036 313.784 871.02 311.255 870.861 308.71C870.845 308.413 870.811 308.118 870.761 307.825C870.45 306.022 870.788 304.154 871.331 302.407C871.667 301.318 871.652 300.158 871.575 299.024C871.537 298.656 871.532 298.285 871.56 297.916C871.591 297.539 871.731 297.179 871.963 296.881C871.963 296.866 871.982 296.851 871.993 296.836C872.004 296.821 872.088 296.823 872.154 296.836C872.171 296.843 872.189 296.847 872.208 296.847C872.226 296.847 872.244 296.843 872.261 296.836L872.285 296.821C872.294 296.814 872.305 296.811 872.316 296.811C872.327 296.811 872.338 296.814 872.347 296.821C872.396 296.851 872.424 296.954 872.531 296.973C872.69 296.997 872.849 297.012 873.009 297.018C873.202 297.024 873.393 297.051 873.58 297.099H873.605C873.884 297.146 874.17 297.122 874.437 297.029C874.615 296.984 874.786 296.918 874.947 296.831C874.994 296.78 875.29 296.733 875.35 296.696C875.545 296.578 875.503 296.025 875.543 295.798C875.566 295.57 875.62 295.346 875.704 295.133C875.802 294.976 875.936 294.845 876.096 294.752C876.256 294.659 876.437 294.607 876.622 294.6C876.991 294.591 877.36 294.624 877.721 294.698C878.521 294.812 879.34 294.793 880.125 294.977C880.519 295.069 880.95 295.208 881.312 295.028C881.411 295.052 881.426 295.138 881.426 295.243C881.417 295.343 881.396 295.441 881.366 295.536C881.229 296.128 881.694 296.673 882.122 297.101C882.304 297.304 882.517 297.474 882.755 297.605C882.969 297.704 883.184 297.745 883.398 297.852C883.572 297.944 883.719 298.079 883.827 298.244C883.95 298.433 884.034 298.645 884.071 298.868C884.117 299.283 884.093 299.702 884 300.109Z" fill="#3F3D56"/>
<path opacity="0.1" d="M884 300.109C883.73 301.76 883.29 303.378 882.688 304.939C882.386 305.644 882.128 306.367 881.917 307.104C881.752 307.769 881.784 308.481 881.632 309.147C881.443 309.977 881.254 310.809 881.102 311.645C881.057 311.671 881.01 311.694 880.963 311.716C880.696 311.843 880.413 311.934 880.122 311.986C879.6 312.049 879.07 312.032 878.553 311.934L875.494 311.525C874.272 311.36 872.971 311.16 872.064 310.333C871.56 309.878 871.23 309.278 870.868 308.699C870.851 308.402 870.817 308.107 870.767 307.814C870.456 306.011 870.795 304.144 871.337 302.397C871.674 301.308 871.659 300.148 871.582 299.014C871.543 298.645 871.538 298.274 871.567 297.905C871.598 297.528 871.738 297.169 871.97 296.87C872.032 296.852 872.096 296.837 872.16 296.827C872.204 296.818 872.247 296.813 872.291 296.81H872.353C872.426 296.81 872.498 296.819 872.568 296.836C872.714 296.882 872.857 296.937 872.996 297.001H873.022C873.206 297.061 873.399 297.089 873.592 297.082C873.875 297.082 874.167 297.037 874.45 297.018C874.8 296.963 875.157 297.027 875.466 297.2C875.665 297.36 875.854 297.533 876.032 297.717C876.247 297.885 876.488 298.016 876.746 298.105C878.591 298.809 880.639 298.766 882.453 297.985C882.627 297.886 882.825 297.835 883.025 297.839C883.173 297.868 883.313 297.928 883.437 298.015C883.565 298.09 883.692 298.163 883.823 298.229C883.946 298.418 884.029 298.63 884.067 298.853C884.116 299.272 884.094 299.697 884 300.109Z" fill="black"/>
<path d="M885.868 298.69C885.014 298.429 884.194 298.07 883.424 297.618C883.3 297.532 883.16 297.472 883.012 297.442C882.811 297.44 882.613 297.49 882.438 297.588C880.624 298.369 878.578 298.412 876.733 297.708C876.475 297.619 876.234 297.488 876.019 297.32C875.841 297.137 875.652 296.964 875.453 296.803C874.748 296.347 873.773 296.883 872.984 296.589C872.844 296.527 872.701 296.472 872.555 296.424C871.931 296.268 871.296 296.889 870.683 296.701C870.455 297.321 870.287 297.961 870.18 298.613C870.092 299.361 870.046 300.114 870.04 300.868C870.04 301.32 870.019 301.773 870.04 302.225C870.116 302.237 870.188 302.265 870.252 302.307C870.316 302.349 870.371 302.403 870.413 302.467C870.441 302.542 870.453 302.622 870.447 302.702C870.441 302.781 870.418 302.859 870.379 302.928C869.931 304.079 869.476 305.243 868.797 306.275C869.276 306.56 869.72 306.9 870.122 307.287C870.872 308.08 871.241 309.192 872.051 309.925C872.964 310.751 874.266 310.952 875.481 311.115L878.54 311.525C879.058 311.622 879.588 311.64 880.112 311.578C880.402 311.525 880.684 311.434 880.95 311.306C881.124 311.233 881.282 311.129 881.417 310.997C881.53 310.869 881.623 310.725 881.694 310.569C881.936 310.084 882.157 309.589 882.36 309.087C882.431 308.909 882.538 308.701 882.731 308.686C883.868 307.662 884.939 306.611 886.076 305.587C886.532 305.208 886.942 304.776 887.295 304.3C887.859 303.466 887.347 302.285 887.295 301.278C887.289 301.02 887.257 300.763 887.199 300.512C887.015 299.781 886.582 298.907 885.868 298.69Z" fill="#FF6B6B"/>
<path opacity="0.1" d="M867.667 294.4C867.496 294.743 867.084 294.908 866.767 295.125L865.68 295.871C865.607 295.936 865.522 295.986 865.43 296.018C865.337 296.05 865.239 296.062 865.142 296.055C865.053 296.023 864.972 295.973 864.903 295.908C864.835 295.844 864.779 295.766 864.741 295.68C864.741 295.631 864.741 295.577 864.741 295.526C864.733 295.352 864.756 295.179 864.809 295.013C864.916 294.771 865.081 294.559 865.29 294.396C865.693 294.014 866.173 293.722 866.698 293.539C866.78 293.507 866.869 293.498 866.955 293.513C866.989 293.521 867.02 293.535 867.05 293.554C867.126 293.637 867.191 293.731 867.243 293.832C867.328 294.008 867.755 294.225 867.667 294.4Z" fill="black"/>
<path d="M870.227 296.66C869.862 296.643 869.564 296.379 869.298 296.128L868.486 295.374C868.432 295.328 868.384 295.274 868.345 295.215C868.301 295.132 868.267 295.043 868.246 294.951C868.074 294.518 867.804 294.131 867.457 293.819C867.397 293.742 867.315 293.684 867.223 293.652C867.136 293.636 867.046 293.645 866.964 293.678C866.439 293.861 865.959 294.153 865.555 294.535C865.347 294.698 865.182 294.91 865.075 295.153C865.021 295.318 864.998 295.492 865.007 295.665C865.012 296.232 865.139 296.79 865.38 297.303C865.416 297.382 865.457 297.462 865.5 297.539C865.786 298.012 866.124 298.451 866.507 298.849L867.018 299.419C867.519 299.981 868.021 300.542 868.565 301.059C868.76 301.267 868.997 301.432 869.26 301.543C869.392 301.597 869.536 301.614 869.677 301.591C869.817 301.568 869.949 301.507 870.057 301.415C870.16 301.296 870.237 301.157 870.285 301.007C870.615 300.15 870.928 299.258 870.947 298.334C870.952 297.964 870.936 297.594 870.9 297.226C870.868 296.836 870.591 296.683 870.227 296.66Z" fill="#FF6B6B"/>
<path d="M883.218 326.673C883.206 328.829 883.052 330.982 882.759 333.119C882.716 333.464 882.669 333.809 882.646 334.154C882.575 335.155 882.691 336.161 882.596 337.156C882.547 337.694 882.436 338.228 882.341 338.753C881.922 341.097 881.8 343.485 881.977 345.859C882.273 349.81 881.366 353.763 881.777 357.704C881.827 358.47 881.785 359.239 881.651 359.995C881.574 360.464 881.463 360.927 881.319 361.38C881.006 362.454 880.691 363.525 880.375 364.596C880.338 364.759 880.265 364.911 880.161 365.042C880.052 365.136 879.923 365.207 879.785 365.248C879.646 365.289 879.5 365.3 879.357 365.28C878.12 365.241 876.956 364.707 875.833 364.186C875.704 364.135 875.584 364.063 875.479 363.972C875.245 363.73 875.265 363.348 875.162 363.029C875.059 362.709 874.78 362.409 874.621 362.081C874.491 361.771 874.412 361.442 874.388 361.106C874.245 360.008 874.148 358.906 874.096 357.8C874.015 356.244 875.044 354.812 875.383 353.298C876.026 350.323 875.481 347.133 876.624 344.309C876.984 343.418 876.461 342.337 876.409 341.377C876.391 340.757 876.31 340.141 876.169 339.537C875.955 338.731 875.503 337.972 875.47 337.136C875.447 336.532 875.642 335.942 875.743 335.346C875.876 334.469 875.864 333.576 875.706 332.703C875.593 331.983 875.419 331.262 875.245 330.559L875.207 330.639C874.684 331.659 874.235 332.716 873.863 333.801C873.691 334.326 873.541 334.862 873.327 335.372C873.151 335.801 872.934 336.193 872.722 336.596C871.961 338.017 871.298 339.489 870.739 341.002C870.473 341.743 870.24 342.502 870.008 343.246L868.42 348.391C867.991 349.744 867.521 351.052 867.101 352.402C866.507 354.332 865.913 356.244 865.223 358.13C864.58 359.92 863.815 361.775 864.044 363.665C863.453 363.943 862.804 364.075 862.151 364.049C861.046 363.951 859.962 363.688 858.936 363.269C858.526 363.117 858.102 362.945 857.825 362.609C857.349 362.028 857.467 361.177 857.611 360.437C857.665 360.104 857.751 359.776 857.868 359.459C858.031 359.065 858.297 358.716 858.464 358.325C858.8 357.577 858.822 356.73 858.955 355.918C859.088 355.105 859.384 354.248 860.078 353.806C860.196 352.379 860.783 350.97 861.107 349.574C861.352 348.518 861.433 347.431 861.626 346.359C861.819 345.287 862.13 344.215 862.777 343.347C862.726 342.452 862.928 341.56 863.36 340.774C863.465 340.602 863.55 340.418 863.615 340.228C863.655 340.041 863.678 339.852 863.684 339.662C863.755 338.917 864.073 338.217 864.589 337.674C864.374 336.892 864.672 336.075 864.94 335.316C865.278 334.348 865.43 333.325 865.39 332.3C865.357 332.014 865.371 331.724 865.431 331.442C865.491 331.228 865.609 331.046 865.678 330.84C865.739 330.588 865.771 330.33 865.774 330.07C865.858 328.911 866.327 327.817 866.846 326.782C867.155 326.177 866.893 325.356 866.958 324.683C867.069 323.564 867.191 322.406 867.746 321.431C867.849 321.247 867.961 321.071 868.053 320.88C868.165 320.608 868.225 320.317 868.231 320.023C868.25 319.532 868.319 319.124 868.143 318.668C869.29 317.714 870.855 317.446 872.347 317.381C873.839 317.317 875.348 317.452 876.808 317.135C877.237 317.038 877.666 316.906 878.118 316.841C879.145 316.691 880.187 316.925 881.201 317.156C881.13 317.8 881.366 318.417 881.629 319.015C882.659 321.438 883.199 324.04 883.218 326.673Z" fill="#33313F"/>
<path opacity="0.1" d="M878.169 327.164L875.706 332.703C875.593 331.983 875.419 331.262 875.245 330.559L875.207 330.639V330.523L876.549 327.571L878.169 327.164Z" fill="black"/>
<path opacity="0.1" d="M885.55 315.591C885.408 315.698 885.239 315.761 885.062 315.774C884.79 315.783 884.519 315.746 884.26 315.664L882.33 315.182C882.27 315.167 882.211 315.146 882.155 315.12C882.187 314.783 882.251 314.393 882.433 314.262C882.706 314.08 883.52 314.324 883.829 314.367C884.361 314.44 884.901 314.526 885.42 314.627C885.5 314.942 885.544 315.266 885.55 315.591Z" fill="black"/>
<path d="M887.182 302.836C887.223 303.014 887.28 303.19 887.315 303.37C887.372 303.812 887.357 304.26 887.27 304.697L887.094 305.923L886.918 307.156L886.239 311.9L886.071 313.075L885.836 314.715C885.824 314.851 885.79 314.985 885.733 315.109C885.662 315.226 885.564 315.323 885.447 315.392C885.33 315.461 885.198 315.5 885.062 315.506C884.79 315.514 884.519 315.477 884.26 315.396L882.33 314.912C882.246 314.897 882.165 314.864 882.095 314.815C882.036 314.758 881.993 314.686 881.971 314.606C881.949 314.527 881.949 314.443 881.97 314.363C881.998 314.2 882.069 314.048 882.092 313.885C882.14 313.568 882.007 313.242 882.054 312.927C882.1 312.726 882.172 312.532 882.268 312.35C882.911 310.929 882.538 309.27 882.757 307.726C882.954 306.511 883.467 305.37 884.245 304.416C884.725 303.814 885.276 303.273 885.887 302.804C886.127 302.617 886.509 302.234 886.811 302.161C887.199 302.079 887.118 302.566 887.182 302.836Z" fill="#FF6B6B"/>
<path d="M872.581 284.37C872.439 284.82 872.66 285.315 872.559 285.774C872.45 286.28 871.974 286.631 871.839 287.139C871.624 287.913 872.28 288.619 872.761 289.262C874.54 291.65 874.306 294.956 873.697 297.869C873.208 300.206 872.53 302.5 871.672 304.729C871.404 305.421 871.108 306.125 870.58 306.643C871.567 306.36 872.615 306.075 873.603 306.35C874.855 306.697 875.936 307.912 877.205 307.636C877.968 307.467 878.504 306.789 879.19 306.414C880.476 305.722 882.026 306.157 883.46 306.38C883.769 306.453 884.093 306.436 884.393 306.333C884.622 306.209 884.817 306.03 884.959 305.812C885.599 304.99 885.982 303.999 886.061 302.96C886.095 302.443 886.018 301.925 885.837 301.44C885.655 300.955 885.373 300.513 885.008 300.146C884.704 299.858 884.339 299.627 884.105 299.288C883.878 298.893 883.756 298.445 883.752 297.989C883.582 295.631 884.157 293.223 883.565 290.942C883.351 290.13 883.001 289.352 882.907 288.52C882.789 287.485 883.07 286.376 882.658 285.429C882.335 284.676 881.621 284.142 880.851 283.868C880.082 283.594 879.258 283.516 878.442 283.439C877.267 283.341 873.072 282.837 872.581 284.37Z" fill="#33313F"/>
<g opacity="0.1">
<path opacity="0.1" d="M873.698 297.869C873.21 300.197 872.536 302.481 871.682 304.701C871.83 304.407 871.955 304.099 872.073 303.792C872.932 301.564 873.61 299.27 874.098 296.932C874.709 294.017 874.943 290.715 873.164 288.325C872.735 287.755 872.184 287.137 872.203 286.468C872.045 286.671 871.922 286.898 871.839 287.141C871.624 287.915 872.28 288.621 872.761 289.264C874.54 291.65 874.306 294.956 873.698 297.869Z" fill="black"/>
<path opacity="0.1" d="M872.585 285.557C872.757 285.344 872.885 285.098 872.962 284.835C872.995 284.516 872.987 284.195 872.936 283.879C872.771 284.003 872.647 284.174 872.581 284.37C872.454 284.749 872.6 285.161 872.585 285.557Z" fill="black"/>
<path opacity="0.1" d="M885.362 304.868C885.22 305.086 885.025 305.265 884.796 305.387C884.496 305.493 884.172 305.509 883.863 305.434C882.429 305.22 880.862 304.778 879.593 305.471C878.905 305.844 878.371 306.521 877.606 306.693C876.339 306.976 875.258 305.76 874.006 305.406C873.119 305.16 872.184 305.364 871.29 305.621C871.112 306 870.873 306.346 870.58 306.646C871.567 306.363 872.615 306.077 873.603 306.352C874.855 306.699 875.936 307.915 877.205 307.638C877.968 307.469 878.504 306.791 879.19 306.416C880.476 305.724 882.026 306.159 883.46 306.382C883.769 306.455 884.093 306.438 884.393 306.335C884.622 306.211 884.817 306.032 884.959 305.814C885.347 305.301 885.647 304.727 885.846 304.116C885.703 304.378 885.541 304.629 885.362 304.868Z" fill="black"/>
</g>
</g>
<g clip-path="url(#clip1)">
<path d="M251.406 351.775C248.205 349.07 246.261 344.798 246.771 340.639C247.281 336.48 250.439 332.656 254.535 331.773C258.631 330.89 263.3 333.334 264.545 337.336C265.229 329.621 266.018 321.584 270.12 315.014C273.834 309.065 280.266 304.809 287.237 304.048C294.209 303.286 301.548 306.162 305.896 311.664C310.244 317.167 311.308 325.166 308.263 331.483C306.02 336.137 301.887 339.6 297.557 342.418C283.565 351.445 266.784 355.117 250.301 352.756L251.406 351.775Z" fill="#F2F2F2"/>
<path d="M299.002 306.322C293.25 311.007 287.973 316.247 283.248 321.966C275.852 330.886 269.868 340.886 265.503 351.619C265.183 352.402 266.455 352.743 266.771 351.969C273.913 334.525 285.314 319.151 299.932 307.251C300.589 306.717 299.653 305.791 299.002 306.322Z" fill="white"/>
<path d="M140.479 351.04C144.875 347.325 147.545 341.457 146.845 335.745C146.145 330.032 141.808 324.78 136.181 323.567C130.555 322.354 124.142 325.712 122.433 331.208C121.493 320.612 120.409 309.572 114.776 300.549C109.675 292.379 100.84 286.532 91.2647 285.487C81.6897 284.441 71.6084 288.391 65.6368 295.948C59.6652 303.506 58.2031 314.493 62.3854 323.169C65.4664 329.561 71.1427 334.318 77.09 338.188C96.064 350.534 119.601 355.683 141.997 352.387" fill="#F2F2F2"/>
<path d="M75.1054 288.61C83.006 295.045 90.2539 302.242 96.7444 310.097C103.236 317.944 108.951 326.403 113.809 335.353C116.525 340.374 118.964 345.54 121.117 350.826C121.556 351.902 119.809 352.37 119.375 351.306C115.563 341.986 110.846 333.061 105.292 324.661C99.7659 316.291 93.4404 308.476 86.4049 301.328C82.4256 297.287 78.227 293.467 73.8284 289.887C72.9267 289.153 74.2112 287.882 75.1054 288.61L75.1054 288.61Z" fill="white"/>
<path d="M239.454 353.138H134.569V245.523C134.569 222.627 153.196 204 176.092 204H197.931C220.827 204 239.454 222.627 239.454 245.523V353.138Z" fill="#F2F2F2"/>
<path d="M217.615 353.138H134.569V245.523C134.546 236.75 137.324 228.198 142.499 221.114C142.69 220.854 142.88 220.597 143.076 220.343C145.579 217.061 148.557 214.169 151.913 211.766C152.103 211.628 152.293 211.492 152.486 211.357C155.295 209.413 158.332 207.825 161.53 206.627C161.72 206.555 161.913 206.483 162.107 206.414C164.999 205.381 167.997 204.674 171.046 204.306C171.235 204.28 171.429 204.26 171.623 204.239C174.594 203.922 177.59 203.922 180.561 204.239C180.755 204.26 180.949 204.28 181.14 204.306C184.188 204.675 187.186 205.382 190.077 206.414C190.271 206.483 190.464 206.555 190.654 206.627C193.813 207.81 196.815 209.375 199.593 211.287C199.786 211.419 199.979 211.555 200.17 211.69C202.051 213.033 203.817 214.529 205.452 216.163C206.763 217.473 207.985 218.87 209.109 220.344C209.304 220.597 209.494 220.854 209.685 221.113C214.86 228.198 217.638 236.75 217.615 245.523V353.138Z" fill="#CCCCCC"/>
<path d="M210.862 305.006C213.401 305.006 215.46 302.947 215.46 300.408C215.46 297.869 213.401 295.81 210.862 295.81C208.323 295.81 206.264 297.869 206.264 300.408C206.264 302.947 208.323 305.006 210.862 305.006Z" fill="#FF6B6B"/>
<path d="M230.862 349.915H227.339L225.663 336.326L230.862 336.326L230.862 349.915Z" fill="#FFB8B8"/>
<path d="M224.822 348.908H231.617V353.186H220.544C220.544 352.624 220.655 352.068 220.87 351.549C221.085 351.03 221.4 350.558 221.797 350.161C222.195 349.764 222.666 349.449 223.185 349.234C223.704 349.019 224.261 348.908 224.822 348.908Z" fill="#2F2E41"/>
<path d="M248.391 349.915H244.868L243.191 336.326L248.391 336.326L248.391 349.915Z" fill="#FFB8B8"/>
<path d="M242.351 348.908H249.145V353.186H238.073C238.073 352.624 238.184 352.068 238.399 351.549C238.614 351.03 238.929 350.558 239.326 350.161C239.723 349.764 240.195 349.449 240.714 349.234C241.233 349.019 241.789 348.908 242.351 348.908Z" fill="#2F2E41"/>
<path d="M213.189 301.319C212.936 300.945 212.767 300.521 212.695 300.075C212.624 299.63 212.651 299.174 212.774 298.74C212.898 298.306 213.115 297.904 213.411 297.563C213.706 297.222 214.073 296.95 214.485 296.766L226.461 263.759L232.354 266.975L218.68 298.518C218.943 299.231 218.936 300.015 218.659 300.723C218.382 301.43 217.855 302.012 217.179 302.357C216.502 302.703 215.722 302.788 214.986 302.596C214.251 302.405 213.612 301.95 213.189 301.319Z" fill="#FFB8B8"/>
<path d="M246.591 307.521C246.199 307.297 245.862 306.989 245.602 306.62C245.342 306.251 245.167 305.83 245.087 305.385C245.008 304.941 245.027 304.485 245.143 304.049C245.26 303.613 245.47 303.207 245.76 302.861L242.05 267.945L248.756 268.251L250.298 302.596C250.847 303.121 251.184 303.83 251.246 304.587C251.307 305.344 251.089 306.098 250.632 306.705C250.175 307.312 249.511 307.731 248.766 307.881C248.022 308.031 247.248 307.903 246.591 307.521Z" fill="#FFB8B8"/>
<path d="M235.892 257.645C239.79 257.645 242.95 254.485 242.95 250.587C242.95 246.689 239.79 243.529 235.892 243.529C231.995 243.529 228.835 246.689 228.835 250.587C228.835 254.485 231.995 257.645 235.892 257.645Z" fill="#FFB8B8"/>
<path d="M246.546 299.58H225.268L225.294 299.415C225.332 299.167 229.086 274.576 226.317 266.531C226.039 265.74 226.064 264.875 226.386 264.101C226.708 263.327 227.304 262.7 228.061 262.34H228.061C232.019 260.476 239.615 258.182 246.027 263.751C246.97 264.584 247.707 265.625 248.179 266.792C248.651 267.958 248.844 269.219 248.745 270.474L246.546 299.58Z" fill="#FF6B6B"/>
<path d="M229.355 278.21L219.775 276.266L224.266 265.626C224.534 264.595 225.201 263.713 226.119 263.173C227.037 262.633 228.132 262.48 229.163 262.746C230.194 263.012 231.078 263.677 231.62 264.593C232.162 265.51 232.318 266.605 232.055 267.637L229.355 278.21Z" fill="#FF6B6B"/>
<path d="M241.624 281.818L241.048 268.617C240.611 266.135 242.032 263.789 244.217 263.406C246.402 263.024 248.536 264.745 248.975 267.245L251.139 279.58L241.624 281.818Z" fill="#FF6B6B"/>
<path d="M245.838 298C249.262 311.039 249.635 327.617 248.712 345.701L244.114 345.126L235.78 310.643L231.183 345.701L226.01 345.413C224.465 326.439 222.961 310.15 225.436 299.436L245.838 298Z" fill="#2F2E41"/>
<path d="M240.543 256.041C239.226 257.444 236.781 256.691 236.609 254.775C236.596 254.626 236.597 254.476 236.612 254.328C236.701 253.479 237.191 252.709 237.074 251.813C237.047 251.589 236.964 251.377 236.832 251.195C235.783 249.79 233.32 251.823 232.33 250.552C231.723 249.772 232.437 248.544 231.971 247.672C231.356 246.522 229.534 247.089 228.392 246.459C227.121 245.758 227.197 243.808 228.034 242.622C229.054 241.176 230.843 240.404 232.609 240.293C234.376 240.181 236.13 240.659 237.78 241.302C239.653 242.032 241.512 243.041 242.665 244.689C244.067 246.693 244.202 249.387 243.501 251.73C243.074 253.155 241.618 254.896 240.543 256.041Z" fill="#2F2E41"/>
<path d="M301.374 353.323H89.2206C89.13 353.323 89.0432 353.286 88.9793 353.222C88.9153 353.158 88.8794 353.071 88.8794 352.981C88.8794 352.89 88.9153 352.803 88.9793 352.739C89.0432 352.675 89.13 352.639 89.2206 352.639H301.374C301.465 352.639 301.551 352.675 301.615 352.739C301.679 352.803 301.715 352.89 301.715 352.981C301.715 353.071 301.679 353.158 301.615 353.222C301.551 353.286 301.465 353.323 301.374 353.323Z" fill="#3F3D56"/>
<path d="M194.77 321.96H157.414C156.922 321.962 156.449 321.77 156.099 321.424C155.749 321.079 155.55 320.608 155.546 320.116V236.734C155.55 236.242 155.749 235.772 156.099 235.426C156.449 235.081 156.922 234.888 157.414 234.891H194.77C195.262 234.888 195.735 235.081 196.085 235.426C196.435 235.772 196.634 236.242 196.638 236.734V320.116C196.634 320.608 196.435 321.079 196.085 321.424C195.735 321.77 195.262 321.962 194.77 321.96Z" fill="white"/>
<path d="M196.638 261.871H155.546V262.445H196.638V261.871Z" fill="#CCCCCC"/>
<path d="M196.782 294.661H155.69V295.236H196.782V294.661Z" fill="#CCCCCC"/>
<path d="M169.052 234.891H168.477V322.247H169.052V234.891Z" fill="#CCCCCC"/>
<path d="M183.42 234.891H182.845V322.247H183.42V234.891Z" fill="#CCCCCC"/>
</g>
<defs>
<linearGradient id="paint0_linear" x1="854.77" y1="324.289" x2="887.57" y2="324.289" gradientUnits="userSpaceOnUse">
<stop stop-color="#808080" stop-opacity="0.25"/>
<stop offset="0.54" stop-color="#808080" stop-opacity="0.12"/>
<stop offset="1" stop-color="#808080" stop-opacity="0.1"/>
</linearGradient>
<clipPath id="clip0">
<rect width="250" height="172.593" fill="white" transform="translate(690 193)"/>
</clipPath>
<clipPath id="clip1">
<rect width="250" height="149.465" fill="white" transform="translate(60 204)"/>
</clipPath>
</defs>
</svg>
