<svg width="1200" height="543" viewBox="0 0 1200 543" fill="none" xmlns="http://www.w3.org/2000/svg">
<path d="M346.941 516.941C141.136 596.827 51.3112 464.114 0 403.059V0H1200V485.927C1167.48 500.914 1071.63 552.378 975.262 516.941C849.65 470.748 733.217 447.879 701.748 443.941C670.28 440.003 604.196 417.083 346.941 516.941Z" fill="#FF6B6B"/>
<path d="M982.914 391.402C987.53 381.433 992.14 371.318 994.143 360.517C996.147 349.716 995.308 337.995 989.57 328.626C983.832 319.259 972.54 312.906 961.757 315.024C952.904 316.763 945.797 323.736 941.638 331.74C937.474 339.745 935.801 348.773 934.185 357.649C933.661 347.565 933.105 337.32 929.759 327.795C926.407 318.27 919.815 309.393 910.411 305.707C901.012 302.021 888.782 304.92 883.831 313.718C876.85 326.112 886.107 343.498 878.077 355.243C876.703 343.462 864.383 334.154 852.671 336.049C840.965 337.944 832.212 350.661 834.619 362.275C836.051 369.186 840.766 375.063 846.404 379.31C852.042 383.556 858.598 388.478 865.081 391.261L982.914 391.402Z" fill="#F2F2F2"/>
<path d="M840.766 344.372C850.065 347.623 859.453 350.911 867.944 355.994C875.554 360.549 882.33 366.682 886.61 374.536C888.955 378.749 890.344 383.426 890.691 388.236C890.748 389.242 892.322 389.249 892.264 388.236C891.713 379.279 887.344 371.082 881.302 364.599C874.673 357.491 866.087 352.637 857.219 348.87C851.963 346.637 846.572 344.739 841.185 342.855C840.226 342.52 839.816 344.04 840.766 344.372Z" fill="white"/>
<path d="M894.414 307.269C900.126 316.788 904.705 326.947 908.045 337.534C911.397 348.118 913.505 359.055 914.334 370.126C914.79 376.323 914.843 382.543 914.486 388.747C914.423 389.758 915.997 389.755 916.059 388.747C916.694 377.562 916.012 366.341 914.04 355.313C912.068 344.287 908.827 333.526 904.385 323.244C901.888 317.469 899.009 311.867 895.773 306.475C895.663 306.302 895.49 306.178 895.29 306.13C895.091 306.082 894.886 306.112 894.708 306.215C894.53 306.318 894.404 306.486 894.346 306.682C894.294 306.879 894.315 307.089 894.414 307.269Z" fill="white"/>
<path d="M971.423 316.306C963.341 334.467 957.65 353.6 954.498 373.227C953.617 378.739 952.93 384.279 952.448 389.846C952.358 390.855 953.932 390.849 954.021 389.846C955.736 370.263 959.963 350.984 966.614 332.484C968.481 327.283 970.537 322.155 972.782 317.101C973.185 316.184 971.832 315.382 971.423 316.306Z" fill="white"/>
<path d="M746.365 390.225C730.243 386.029 715.998 376.543 705.913 363.286C695.827 350.03 690.488 333.771 690.745 317.116C690.808 312.967 691.243 308.73 692.99 304.964C694.731 301.198 697.972 297.941 702.026 297.049C706.448 296.075 711.115 298.066 714.414 301.172C717.708 304.278 719.869 308.376 721.857 312.445C733.836 336.956 742.935 363.256 746.344 390.324L746.365 390.225Z" fill="#F2F2F2"/>
<path d="M700.018 297.866L708.414 316.94L716.806 336.014C719.465 342.055 722.119 348.098 724.867 354.099C727.594 360.047 730.411 365.953 733.416 371.765C736.416 377.568 739.605 383.277 743.066 388.818C743.497 389.509 743.932 390.196 744.372 390.881C744.677 391.355 745.437 390.915 745.133 390.437C741.603 384.937 738.351 379.263 735.304 373.484C732.252 367.699 729.399 361.811 726.65 355.876C723.886 349.909 721.227 343.893 718.579 337.875C715.794 331.54 713.004 325.206 710.219 318.871L701.822 299.797L700.778 297.423C700.547 296.907 699.792 297.354 700.018 297.866Z" fill="white"/>
<path d="M742.862 390.357C733.364 392.531 723.404 391.451 714.587 387.292C705.776 383.132 698.612 376.133 694.248 367.417C693.163 365.245 692.245 362.927 692.135 360.501C692.024 358.075 692.827 355.509 694.689 353.952C696.724 352.252 699.682 352.026 702.231 352.749C704.785 353.471 707.014 355.015 709.143 356.591C721.977 366.083 733.804 377.281 742.878 390.414L742.862 390.357Z" fill="#F2F2F2"/>
<path d="M693.865 354.918L703.374 362.555L712.883 370.191C715.893 372.61 718.904 375.031 721.951 377.405C724.972 379.757 728.024 382.064 731.156 384.27C734.281 386.472 737.476 388.575 740.769 390.517C741.184 390.759 741.593 390.999 742.007 391.235C742.29 391.399 742.568 390.966 742.28 390.8C738.965 388.897 735.745 386.83 732.598 384.652C729.451 382.473 726.383 380.186 723.351 377.846C720.309 375.494 717.304 373.088 714.304 370.679C711.147 368.143 707.99 365.607 704.832 363.07L695.323 355.434L694.143 354.484C693.886 354.277 693.614 354.713 693.865 354.918Z" fill="white"/>
<path d="M1147.54 391.582H713.638C713.559 391.582 713.476 391.566 713.402 391.535C713.323 391.504 713.255 391.458 713.198 391.399C713.14 391.342 713.093 391.272 713.061 391.197C713.03 391.121 713.014 391.04 713.014 390.957C713.014 390.875 713.03 390.794 713.061 390.718C713.093 390.642 713.14 390.573 713.198 390.515C713.255 390.457 713.323 390.411 713.402 390.38C713.476 390.349 713.559 390.333 713.638 390.333H1147.54C1147.7 390.333 1147.86 390.399 1147.98 390.516C1148.09 390.633 1148.16 390.791 1148.16 390.957C1148.16 391.123 1148.09 391.282 1147.98 391.399C1147.86 391.516 1147.7 391.582 1147.54 391.582Z" fill="#3F3D56"/>
<path d="M1136.13 329.016H1106.76C1106.76 329.363 1106.62 329.697 1106.38 329.943C1106.13 330.189 1105.8 330.327 1105.45 330.327H1076.61C1076.21 330.634 1075.84 330.985 1075.51 331.376C1074.52 332.552 1073.98 334.037 1073.98 335.572V336.62C1073.98 338.359 1074.68 340.026 1075.91 341.256C1077.14 342.485 1078.8 343.176 1080.54 343.176H1136.13C1137.88 343.175 1139.54 342.484 1140.77 341.255C1142 340.025 1142.69 338.359 1142.69 336.62V335.572C1142.69 333.834 1142 332.168 1140.77 330.939C1139.54 329.709 1137.88 329.018 1136.13 329.016Z" fill="#3F3D56"/>
<path d="M1112.01 342.916H1105.19V391.168H1112.01V342.916Z" fill="#3F3D56"/>
<path d="M1131.41 390.928C1131.41 391.665 1121.08 391.213 1108.34 391.213C1095.59 391.213 1085.26 391.665 1085.26 390.928C1085.26 390.191 1095.59 384.35 1108.34 384.35C1121.08 384.35 1131.41 390.191 1131.41 390.928Z" fill="#3F3D56"/>
<path d="M1134.85 330.526L1133.71 323.372C1133.56 322.471 1133.07 321.663 1132.33 321.127C1131.59 320.592 1130.66 320.371 1129.76 320.514L1117.97 322.397L1097.76 325.622L1091.19 326.671H1105.45C1105.8 326.672 1106.13 326.81 1106.38 327.056C1106.62 327.302 1106.76 327.635 1106.76 327.982V329.016C1106.76 329.363 1106.62 329.697 1106.38 329.943C1106.13 330.189 1105.8 330.327 1105.45 330.327H1069.17C1068.67 330.564 1068.23 330.925 1067.9 331.376C1067.62 331.743 1067.42 332.162 1067.3 332.61C1067.19 333.057 1067.17 333.522 1067.24 333.977L1067.57 336.012L1067.96 338.482L1068.39 341.136C1068.54 342.036 1069.03 342.841 1069.77 343.376C1070.5 343.911 1071.42 344.131 1072.32 343.989L1081.69 342.495L1108.73 338.178L1131.99 334.465C1132.89 334.318 1133.7 333.822 1134.24 333.084C1134.77 332.346 1134.99 331.427 1134.85 330.526Z" fill="white"/>
<path d="M1080.98 331.376C1080.63 330.918 1080.17 330.556 1079.65 330.327H1069.62C1069.1 330.555 1068.63 330.917 1068.29 331.376C1067.82 331.974 1067.57 332.71 1067.57 333.468V373.439C1067.58 374.35 1067.94 375.222 1068.58 375.866C1069.22 376.51 1070.1 376.873 1071.01 376.874H1078.26C1079.17 376.873 1080.04 376.51 1080.69 375.866C1081.33 375.222 1081.69 374.35 1081.69 373.439V333.468C1081.69 332.71 1081.44 331.974 1080.98 331.376Z" fill="white"/>
<path d="M1102.8 263.299L1102.74 263.21L1098.24 257.666C1098 257.368 1097.71 257.115 1097.38 256.916C1097.21 256.799 1097.02 256.704 1096.83 256.633C1096.54 256.518 1096.24 256.444 1095.93 256.412C1095.72 256.391 1095.52 256.387 1095.31 256.402C1095.31 256.402 1095.3 256.405 1095.3 256.407C1094.61 256.459 1093.94 256.722 1093.4 257.162L1084.16 264.652L1072.3 274.281L1054.58 288.652L1053.29 289.701H1075.7L1077 288.652L1081.28 285.175L1081.59 284.933L1102.28 268.145L1102.3 268.134C1102.73 267.792 1103.07 267.351 1103.28 266.849C1103.43 266.522 1103.52 266.173 1103.55 265.816C1103.6 265.368 1103.56 264.915 1103.43 264.482C1103.3 264.05 1103.09 263.648 1102.8 263.299Z" fill="white"/>
<path d="M1102.74 263.21C1102.45 261.797 1101.81 260.479 1100.87 259.381C1099.94 258.274 1098.74 257.426 1097.38 256.916C1097.17 256.837 1096.97 256.764 1096.76 256.706C1096.28 256.566 1095.8 256.464 1095.31 256.402C1095.31 256.402 1095.3 256.405 1095.3 256.407C1093.1 256.152 1090.87 256.765 1089.11 258.117L1073.13 270.327C1072.8 270.63 1072.52 270.999 1072.33 271.411C1072.13 271.823 1072.03 272.269 1072.01 272.724C1071.99 273.259 1072.08 273.791 1072.3 274.281C1072.35 274.391 1072.41 274.502 1072.47 274.606C1072.59 274.82 1072.74 275.017 1072.91 275.194L1075.47 278.068L1081.42 284.745L1081.59 284.933L1081.97 285.369C1082.28 285.703 1082.65 285.973 1083.06 286.165C1083.47 286.357 1083.91 286.466 1084.36 286.486C1084.81 286.506 1085.26 286.437 1085.69 286.282C1086.11 286.127 1086.5 285.89 1086.83 285.584L1100.61 270.783C1101.33 270.015 1101.9 269.12 1102.28 268.145C1102.91 266.579 1103.07 264.864 1102.74 263.21Z" fill="#18204B"/>
<path d="M1108.83 244.218C1123.35 244.218 1135.12 232.449 1135.12 217.931C1135.12 203.412 1123.35 191.642 1108.83 191.642C1094.31 191.642 1082.54 203.412 1082.54 217.931C1082.54 232.449 1094.31 244.218 1108.83 244.218Z" fill="white"/>
<path d="M1118.69 326.907L1117.97 322.397L1117.54 319.748C1117.4 318.848 1116.9 318.042 1116.16 317.507C1115.43 316.972 1114.51 316.752 1113.6 316.895L1094.5 319.942L1089.31 320.771L1088.27 320.939V326.671H1105.45C1105.8 326.672 1106.13 326.81 1106.38 327.056C1106.62 327.302 1106.76 327.635 1106.76 327.982V329.016C1106.76 329.363 1106.62 329.697 1106.38 329.943C1106.13 330.189 1105.8 330.327 1105.45 330.327H1051.08C1051.08 330.337 1051.08 330.348 1051.08 330.358L1051.41 332.393L1052.22 337.512C1052.37 338.412 1052.86 339.217 1053.6 339.752C1054.34 340.287 1055.26 340.507 1056.16 340.365L1065.53 338.87L1067.57 338.545L1067.96 338.482L1081.69 336.29L1091.03 334.795L1105.86 332.43L1106.08 332.393L1115.83 330.841C1116.73 330.697 1117.54 330.202 1118.07 329.465C1118.61 328.727 1118.83 327.808 1118.69 326.907Z" fill="white"/>
<path d="M1144.6 307.617C1144.6 329.047 1142.43 341.865 1108.86 338.194C1108.81 338.189 1108.77 338.183 1108.73 338.178C1102.74 337.587 1096.82 336.455 1091.04 334.795C1088.03 333.918 1085.11 332.773 1082.31 331.376C1081.65 331.04 1081.01 330.689 1080.39 330.327H1105.45C1105.8 330.327 1106.13 330.189 1106.38 329.943C1106.62 329.697 1106.76 329.363 1106.76 329.016V327.982C1106.76 327.635 1106.62 327.302 1106.38 327.056C1106.13 326.81 1105.8 326.672 1105.45 326.671H1088.27V293.545C1088.27 292.526 1087.86 291.549 1087.14 290.828C1086.42 290.108 1085.44 289.702 1084.42 289.701H1070.44C1070.56 289.355 1070.69 289.003 1070.82 288.652C1072.13 285.024 1073.69 281.488 1075.47 278.068C1077.92 273.319 1080.83 268.825 1084.16 264.652C1086.49 261.744 1089.09 259.075 1091.95 256.685C1097.21 252.342 1102.94 249.657 1108.75 249.657C1130.18 249.657 1144.6 286.187 1144.6 307.617Z" fill="#18204B"/>
<path d="M1109.38 227.673L1109.41 226.691C1107.58 226.641 1105.97 226.526 1104.76 225.641C1104.41 225.376 1104.13 225.04 1103.93 224.656C1103.73 224.273 1103.61 223.85 1103.59 223.417C1103.57 223.152 1103.61 222.886 1103.71 222.64C1103.81 222.393 1103.96 222.173 1104.16 221.995C1104.96 221.317 1106.25 221.536 1107.19 221.969L1108.01 222.341L1106.45 210.95L1105.47 211.084L1106.8 220.773C1106.26 220.572 1105.67 220.509 1105.1 220.592C1104.53 220.674 1103.98 220.899 1103.52 221.245C1103.21 221.517 1102.97 221.858 1102.8 222.241C1102.65 222.624 1102.58 223.038 1102.61 223.451C1102.64 224.033 1102.79 224.602 1103.06 225.117C1103.33 225.632 1103.72 226.082 1104.18 226.434C1105.74 227.571 1107.76 227.628 1109.38 227.673Z" fill="#2F2E41"/>
<path d="M1100.66 211.919H1095.37V212.901H1100.66V211.919Z" fill="#2F2E41"/>
<path d="M1117.36 211.919H1112.07V212.901H1117.36V211.919Z" fill="#2F2E41"/>
<path d="M1129.81 210.708C1127.76 207.63 1124.17 206.326 1120.62 206.008C1116.62 205.651 1112.77 206.421 1108.87 207.169C1104.58 207.992 1100.04 208.763 1095.71 207.722C1093.8 207.279 1092.02 206.408 1090.49 205.175C1088.96 203.941 1087.74 202.377 1086.9 200.6C1085.32 197.134 1084.98 193.228 1085.94 189.54C1086.95 185.617 1089.46 182.166 1092.51 179.558C1098.73 174.238 1107.15 171.846 1115.25 172.071C1123.32 172.28 1131.12 175.022 1137.53 179.908C1143.97 184.971 1148.5 192.066 1150.38 200.033C1152.35 207.935 1151.71 216.261 1148.55 223.769C1146.78 227.88 1144.22 231.586 1142.24 235.593C1140.4 239.324 1138.98 243.662 1140.13 247.824C1141.13 251.476 1144.08 254.72 1147.79 255.712C1149.47 256.154 1151.26 256.037 1152.87 255.378C1154.49 254.719 1155.84 253.555 1156.74 252.059C1158.59 249.138 1158.63 245.312 1155.85 242.954C1155.15 242.35 1154.33 241.894 1153.45 241.615C1152.57 241.336 1151.64 241.24 1150.72 241.332C1149.8 241.424 1148.9 241.702 1148.09 242.15C1147.28 242.598 1146.57 243.206 1146.01 243.937C1144.87 245.402 1144.37 247.253 1144.6 249.089C1144.74 250.016 1143.31 250.417 1143.18 249.48C1142.84 247.539 1143.21 245.544 1144.22 243.849C1145.22 242.153 1146.79 240.87 1148.65 240.225C1150.51 239.581 1152.54 239.618 1154.38 240.33C1156.21 241.042 1157.73 242.383 1158.68 244.113C1160.35 247.267 1159.45 251.07 1157.32 253.765C1156.22 255.201 1154.73 256.29 1153.03 256.902C1151.33 257.514 1149.49 257.622 1147.73 257.215C1143.85 256.32 1140.68 253.24 1139.19 249.62C1137.53 245.59 1138.29 241.094 1139.91 237.184C1141.66 232.957 1144.25 229.166 1146.31 225.093C1148.17 221.412 1149.35 217.427 1149.8 213.328C1150.7 205.096 1148.84 196.798 1144.49 189.747C1140.07 182.806 1133.31 177.67 1125.44 175.263C1117.62 172.752 1109.18 172.975 1101.51 175.896C1094.02 178.847 1086.79 185.276 1086.88 193.911C1086.92 197.599 1088.29 201.361 1091.11 203.821C1094.49 206.761 1099.19 207.013 1103.43 206.554C1107.7 206.092 1111.85 204.844 1116.14 204.526C1119.87 204.25 1123.9 204.537 1127.23 206.391C1128.78 207.256 1130.1 208.482 1131.08 209.964C1131.61 210.756 1130.33 211.495 1129.81 210.708Z" fill="#2F2E41"/>
<path d="M1124.45 270.814L1122.37 269.367L1118.5 266.676C1117.75 266.158 1116.82 265.958 1115.93 266.121C1115.03 266.283 1114.24 266.794 1113.71 267.542L1101.08 285.725L1089.31 302.655L1088.27 304.166V326.671H1088.36C1089.18 326.59 1089.94 326.218 1090.51 325.622C1090.63 325.497 1090.74 325.363 1090.84 325.218L1094.5 319.942L1103.54 306.919L1112.92 293.43L1113.81 292.145L1125.31 275.598C1125.37 275.51 1125.43 275.419 1125.48 275.325C1125.53 275.235 1125.58 275.142 1125.62 275.047C1125.95 274.316 1126.02 273.493 1125.81 272.72C1125.59 271.947 1125.12 271.273 1124.45 270.814Z" fill="white"/>
<path d="M1124.49 263.619C1124.12 263.375 1123.73 263.161 1123.33 262.979C1121.54 262.158 1119.52 261.979 1117.61 262.472C1115.7 262.964 1114.02 264.099 1112.85 265.685L1100.91 281.87C1100.67 282.256 1100.51 282.685 1100.44 283.133C1100.37 283.581 1100.39 284.039 1100.49 284.481C1100.6 284.922 1100.79 285.338 1101.06 285.703C1101.33 286.069 1101.67 286.378 1102.05 286.612L1112.92 293.43L1113.06 293.514L1113.6 293.855C1114.38 294.326 1115.32 294.47 1116.2 294.254C1117.09 294.037 1117.86 293.479 1118.33 292.701L1126.76 275.97L1126.9 275.692L1126.9 275.687L1127.42 274.643C1128.37 272.766 1128.6 270.606 1128.06 268.573C1127.52 266.541 1126.25 264.778 1124.49 263.619Z" fill="#18204B"/>
<path d="M1051.41 330.327V369.815C1051.41 370.726 1051.77 371.598 1052.41 372.242C1053.06 372.886 1053.93 373.249 1054.84 373.25H1062.09C1063.01 373.249 1063.88 372.886 1064.52 372.242C1065.17 371.598 1065.53 370.726 1065.53 369.815V330.327H1051.41Z" fill="white"/>
<path d="M1105.45 325.622H1089.31V293.545C1089.31 292.248 1088.8 291.004 1087.88 290.087C1086.97 289.17 1085.72 288.653 1084.42 288.652H1024.59C1023.3 288.652 1022.05 289.168 1021.13 290.085C1020.21 291.003 1019.7 292.247 1019.7 293.545V326.482C1019.7 327.781 1020.21 329.025 1021.13 329.943C1022.05 330.86 1023.3 331.376 1024.59 331.376H1105.45C1105.53 331.376 1105.61 331.37 1105.69 331.365C1105.76 331.36 1105.84 331.344 1105.91 331.334C1106.44 331.226 1106.93 330.936 1107.27 330.514C1107.62 330.091 1107.81 329.562 1107.81 329.016V327.982C1107.81 327.357 1107.56 326.756 1107.12 326.314C1106.67 325.871 1106.08 325.622 1105.45 325.622ZM1105.45 330.327H1024.59C1023.58 330.327 1022.6 329.921 1021.88 329.201C1021.15 328.48 1020.75 327.502 1020.74 326.482V293.545C1020.75 292.526 1021.15 291.548 1021.88 290.827C1022.6 290.106 1023.58 289.701 1024.59 289.701H1084.42C1085.44 289.702 1086.42 290.108 1087.14 290.829C1087.86 291.549 1088.27 292.526 1088.27 293.545V326.671H1105.45C1105.8 326.672 1106.13 326.81 1106.38 327.056C1106.62 327.302 1106.76 327.635 1106.76 327.982V329.016C1106.76 329.363 1106.62 329.697 1106.38 329.943C1106.13 330.189 1105.8 330.327 1105.45 330.327Z" fill="#3F3D56"/>
<path d="M1054.51 314.048C1056.73 314.048 1058.54 312.242 1058.54 310.014C1058.54 307.787 1056.73 305.981 1054.51 305.981C1052.28 305.981 1050.47 307.787 1050.47 310.014C1050.47 312.242 1052.28 314.048 1054.51 314.048Z" fill="white"/>
<path d="M754.72 242.486C770.218 242.486 782.79 229.919 782.79 214.417C782.79 198.914 770.218 186.347 754.72 186.347C739.217 186.347 726.65 198.914 726.65 214.417C726.65 229.919 739.217 242.486 754.72 242.486Z" fill="white"/>
<path d="M749.245 320.01H741.503C740.601 320.011 739.736 320.371 739.096 321.01C738.456 321.649 738.1 322.516 738.094 323.419V387.935C738.1 388.839 738.456 389.706 739.096 390.345C739.736 390.984 740.601 391.344 741.503 391.344H749.245C750.152 391.344 751.017 390.984 751.657 390.345C752.297 389.706 752.654 388.839 752.654 387.935V323.419C752.654 322.516 752.297 321.649 751.657 321.01C751.017 320.371 750.152 320.011 749.245 320.01Z" fill="#18204B"/>
<path d="M765.603 320.01H757.862C756.96 320.011 756.094 320.371 755.454 321.01C754.815 321.649 754.458 322.516 754.453 323.419V387.935C754.458 388.839 754.815 389.706 755.454 390.345C756.094 390.984 756.96 391.344 757.862 391.344H765.603C766.054 391.344 766.495 391.256 766.909 391.085C767.323 390.914 767.701 390.662 768.016 390.346C768.33 390.029 768.582 389.654 768.755 389.24C768.928 388.826 769.012 388.383 769.012 387.935V323.419C769.012 322.972 768.928 322.529 768.755 322.115C768.582 321.701 768.33 321.326 768.016 321.009C767.701 320.693 767.323 320.441 766.909 320.27C766.495 320.098 766.054 320.01 765.603 320.01Z" fill="#18204B"/>
<path d="M771.21 257.204C768.498 253.699 764.759 251.128 760.51 249.854C756.267 248.579 751.731 248.663 747.535 250.095C743.339 251.526 739.694 254.234 737.114 257.838C734.533 261.442 733.143 265.763 733.138 270.196V327.332C733.138 327.506 733.154 327.68 733.18 327.851C733.306 328.725 733.741 329.525 734.407 330.104C735.073 330.683 735.928 331.003 736.809 331.003H771.986C772.962 331.002 773.895 330.614 774.582 329.926C775.269 329.238 775.657 328.305 775.657 327.332V270.196C775.668 265.491 774.1 260.918 771.21 257.204Z" fill="#18204B"/>
<path d="M778.421 226.825L778.395 225.776C780.346 225.722 782.066 225.599 783.357 224.655C783.724 224.372 784.028 224.013 784.243 223.603C784.458 223.194 784.579 222.742 784.605 222.28C784.631 221.997 784.589 221.713 784.484 221.45C784.379 221.187 784.212 220.951 784.002 220.762C783.142 220.037 781.762 220.271 780.755 220.733L779.89 221.131L781.553 208.968L782.591 209.11L781.175 219.457C782.544 219.055 783.813 219.228 784.678 219.96C785.014 220.251 785.276 220.615 785.444 221.024C785.612 221.433 785.685 221.875 785.654 222.317C785.622 222.938 785.46 223.545 785.166 224.095C784.878 224.645 784.474 225.125 783.976 225.502C782.313 226.716 780.157 226.776 778.421 226.825Z" fill="#2F2E41"/>
<path d="M775.547 210.003H769.899V211.052H775.547V210.003Z" fill="#2F2E41"/>
<path d="M746.486 258.012C746.187 257.682 745.82 257.414 745.411 257.226C745.007 257.038 744.567 256.933 744.115 256.916L738.016 256.664L736.385 256.596C735.483 256.559 734.602 256.882 733.935 257.493C733.269 258.105 732.876 258.956 732.834 259.858L731.869 283.103L730.164 324.322C730.133 325.182 730.421 326.023 730.983 326.678C731.539 327.333 732.325 327.752 733.18 327.851C733.264 327.862 733.343 327.867 733.427 327.872L738.095 328.066L741.163 328.192C741.409 328.203 741.656 328.187 741.897 328.145C742.542 328.031 743.135 327.736 743.612 327.295C743.942 326.993 744.21 326.627 744.399 326.22C744.587 325.813 744.692 325.373 744.708 324.925L744.913 320.01L746.418 283.659L747.383 260.461C747.425 259.559 747.1 258.678 746.486 258.012Z" fill="white"/>
<path d="M742.018 252.925C741.367 252.787 740.701 252.718 740.035 252.72C737.465 252.723 735 253.746 733.18 255.565C731.36 257.385 730.337 259.851 730.332 262.423V280.255C730.337 280.82 730.474 281.375 730.747 281.872C731.014 282.369 731.402 282.792 731.869 283.103C732.257 283.356 732.687 283.527 733.138 283.606C733.337 283.645 733.542 283.664 733.741 283.664H746.329C746.36 283.665 746.392 283.664 746.418 283.659C747.309 283.636 748.154 283.268 748.773 282.632C749.392 281.996 749.738 281.144 749.738 280.255V262.423C749.738 260.195 748.967 258.035 747.561 256.306C746.156 254.577 744.199 253.383 742.018 252.925Z" fill="#18204B"/>
<path d="M809.245 303.71C808.427 303.285 807.776 302.583 807.425 301.728C807.068 300.873 807.026 299.919 807.304 299.037L810.288 289.538L809.418 288.814L786.514 269.865L771.21 257.204L769.348 255.662C768.656 255.086 767.759 254.81 766.857 254.895C765.954 254.979 765.126 255.417 764.549 256.113L759.614 262.082C759.33 262.427 759.115 262.824 758.979 263.252C758.848 263.68 758.801 264.13 758.843 264.575C758.885 265.021 759.016 265.454 759.225 265.85C759.435 266.246 759.718 266.596 760.065 266.881L775.657 279.783L777.43 281.246L809.774 308.005C810.372 308.502 811.122 308.78 811.904 308.791C812.68 308.802 813.441 308.547 814.049 308.068C814.222 307.936 814.374 307.786 814.51 307.622C814.537 307.601 814.558 307.578 814.573 307.554L815.198 306.799L809.245 303.71Z" fill="white"/>
<path d="M785.413 266.225L771.614 254.933C770.628 254.126 769.495 253.521 768.273 253.153C767.056 252.784 765.776 252.66 764.507 252.786C763.238 252.913 762.005 253.287 760.883 253.889C759.76 254.491 758.769 255.308 757.962 256.294C757.154 257.28 756.551 258.416 756.178 259.635C755.811 260.855 755.685 262.136 755.811 263.404C756.068 265.965 757.332 268.319 759.32 269.949L773.119 281.241C773.727 281.739 774.488 282.011 775.274 282.013C776.061 282.014 776.822 281.743 777.43 281.246C777.614 281.106 777.776 280.944 777.918 280.764L785.89 271.024C786.173 270.683 786.388 270.289 786.514 269.865C786.713 269.218 786.713 268.526 786.514 267.878C786.32 267.231 785.937 266.656 785.413 266.225Z" fill="#18204B"/>
<path d="M747.682 219.169C746.218 216.727 745.075 214.037 745.621 211.143C746.103 208.56 747.965 206.548 750.635 206.284C752.245 206.125 753.85 206.555 755.423 206.835C756.708 207.061 758.019 207.146 759.325 207.088C761.958 206.968 764.538 206.314 766.904 205.166C769.311 204.04 771.446 202.412 773.171 200.392C774.897 198.372 776.166 196.006 776.9 193.454C778.495 187.646 777.309 181.05 773.523 176.323L774.839 175.976L773.124 181.6C773.093 181.716 773.035 181.822 772.951 181.911C772.872 182 772.773 182.07 772.663 182.116C772.552 182.161 772.432 182.18 772.311 182.172C772.191 182.164 772.075 182.13 771.97 182.071C768.865 180.11 765.399 178.8 761.774 178.221C758.15 177.641 754.448 177.804 750.886 178.7C748.872 179.205 746.932 179.952 745.101 180.925C744.205 181.4 743.413 180.042 744.304 179.566C747.745 177.771 751.516 176.694 755.381 176.397C759.252 176.101 763.143 176.592 766.815 177.842C768.907 178.555 770.906 179.518 772.762 180.712L771.608 181.182L773.318 175.558C773.36 175.426 773.428 175.306 773.528 175.211C773.628 175.115 773.748 175.047 773.879 175.012C774.011 174.977 774.152 174.977 774.283 175.012C774.414 175.046 774.535 175.114 774.635 175.21C776.397 177.445 777.687 180.014 778.432 182.762C779.177 185.51 779.355 188.379 778.956 191.198C778.573 193.976 777.608 196.642 776.124 199.021C774.64 201.4 772.668 203.438 770.339 205.001C768.016 206.571 765.404 207.664 762.65 208.217C759.902 208.77 757.07 208.772 754.316 208.223C752.78 207.927 751.033 207.503 749.517 208.148C748.972 208.412 748.49 208.794 748.107 209.266C747.724 209.738 747.446 210.288 747.299 210.879C746.444 213.78 747.902 216.535 749.386 218.947L747.682 219.169Z" fill="#2F2E41"/>
<path d="M850.08 277.281L824.135 262.266C823.489 261.892 822.766 261.669 822.026 261.611C821.281 261.554 820.531 261.664 819.839 261.935C819.142 262.205 818.512 262.628 818.004 263.173C817.495 263.718 817.112 264.37 816.886 265.082L809.418 288.814L806.302 298.722C805.951 299.84 806.004 301.046 806.455 302.129C806.906 303.211 807.724 304.1 808.762 304.638L814.51 307.622L833.266 317.351C833.979 317.72 834.766 317.913 835.563 317.912C836.156 317.911 836.743 317.806 837.294 317.603L837.33 317.587C837.986 317.337 838.584 316.952 839.082 316.457C839.575 315.961 839.963 315.368 840.215 314.713L852.236 283.376C852.666 282.27 852.682 281.048 852.288 279.929C851.895 278.811 851.108 277.872 850.08 277.281ZM851.255 283.003L839.234 314.341C839.035 314.857 838.731 315.326 838.337 315.716C837.944 316.107 837.472 316.41 836.953 316.606L836.927 316.617C836.413 316.807 835.867 316.888 835.316 316.854C834.771 316.821 834.236 316.674 833.748 316.423L815.198 306.799L809.245 303.71C808.427 303.285 807.776 302.583 807.425 301.728C807.068 300.873 807.026 299.919 807.304 299.037L810.288 289.538L817.883 265.397C818.061 264.835 818.365 264.321 818.769 263.892C819.173 263.463 819.666 263.13 820.212 262.916C820.762 262.703 821.355 262.615 821.937 262.66C822.524 262.704 823.096 262.88 823.605 263.173L849.551 278.189C850.364 278.655 850.982 279.397 851.297 280.28C851.612 281.163 851.596 282.13 851.255 283.003Z" fill="#3F3D56"/>
<path d="M841.379 287.322C841.112 287.322 840.855 287.256 840.624 287.13L823.316 277.689C822.955 277.488 822.682 277.151 822.566 276.752C822.446 276.352 822.493 275.922 822.692 275.557C822.892 275.191 823.227 274.92 823.631 274.802C824.03 274.683 824.46 274.728 824.822 274.926L842.129 284.367C842.439 284.534 842.68 284.8 842.822 285.12C842.963 285.441 842.989 285.799 842.9 286.138C842.816 286.477 842.617 286.777 842.344 286.991C842.066 287.206 841.725 287.322 841.379 287.322Z" fill="#18204B"/>
<path d="M838.233 294.14C837.965 294.14 837.708 294.074 837.477 293.948L820.17 284.507C819.808 284.307 819.535 283.969 819.42 283.57C819.299 283.17 819.346 282.741 819.545 282.375C819.745 282.009 820.08 281.738 820.484 281.62C820.883 281.501 821.313 281.546 821.675 281.745L838.983 291.185C839.292 291.352 839.533 291.618 839.675 291.938C839.816 292.259 839.843 292.617 839.754 292.956C839.67 293.295 839.47 293.595 839.198 293.81C838.92 294.024 838.579 294.141 838.233 294.14Z" fill="#18204B"/>
<path d="M835.61 301.483C835.343 301.483 835.086 301.417 834.855 301.291L817.547 291.85C817.185 291.649 816.913 291.312 816.797 290.912C816.677 290.513 816.724 290.083 816.923 289.718C817.122 289.352 817.458 289.08 817.862 288.962C818.261 288.844 818.691 288.889 819.052 289.087L836.36 298.528C836.67 298.695 836.911 298.96 837.052 299.281C837.194 299.602 837.22 299.96 837.131 300.298C837.047 300.638 836.848 300.938 836.575 301.152C836.297 301.367 835.956 301.483 835.61 301.483Z" fill="#18204B"/>
<path d="M1018.64 152.907H945.876C944.832 152.906 943.825 152.49 943.086 151.75C942.346 151.011 941.932 150.008 941.932 148.962V56.9166C941.932 55.8708 942.346 54.8685 943.086 54.1285C943.825 53.389 944.832 52.9731 945.876 52.972H1018.64C1019.68 52.9731 1020.68 53.389 1021.42 54.1285C1022.16 54.8685 1022.58 55.8708 1022.58 56.9166V148.962C1022.58 150.008 1022.16 151.011 1021.42 151.75C1020.68 152.49 1019.68 152.906 1018.64 152.907ZM945.876 53.8484C945.063 53.8495 944.281 54.1731 943.71 54.7484C943.133 55.3232 942.808 56.1031 942.808 56.9166V148.962C942.808 149.775 943.133 150.555 943.71 151.131C944.281 151.706 945.063 152.03 945.876 152.03H1018.64C1019.45 152.03 1020.23 151.706 1020.8 151.131C1021.38 150.555 1021.7 149.775 1021.7 148.962V56.9166C1021.7 56.1031 1021.38 55.3232 1020.8 54.7484C1020.23 54.1731 1019.45 53.8495 1018.64 53.8484H945.876Z" fill="#3F3D56"/>
<path d="M976.201 97.2157H960.189C959.664 97.2152 959.161 97.0075 958.794 96.6378C958.421 96.268 958.217 95.7666 958.217 95.2437V76.3437C958.217 75.8208 958.421 75.3194 958.794 74.9497C959.161 74.5799 959.664 74.3717 960.189 74.3712H976.201C976.726 74.3717 977.229 74.5799 977.596 74.9497C977.969 75.3194 978.173 75.8208 978.178 76.3437V95.2437C978.173 95.7666 977.969 96.268 977.596 96.6378C977.229 97.0075 976.726 97.2152 976.201 97.2157Z" fill="#18204B"/>
<path d="M1007.32 105.982H991.306C990.787 105.982 990.283 105.774 989.916 105.404C989.544 105.034 989.334 104.533 989.334 104.01V85.1098C989.334 84.5869 989.544 84.0855 989.916 83.7157C990.283 83.346 990.787 83.1383 991.306 83.1378H1007.32C1007.85 83.1383 1008.35 83.346 1008.72 83.7157C1009.09 84.0855 1009.3 84.5869 1009.3 85.1098V104.01C1009.3 104.533 1009.09 105.034 1008.72 105.404C1008.35 105.774 1007.85 105.982 1007.32 105.982Z" fill="#FADC32"/>
<path d="M982.337 132.719H966.325C965.801 132.719 965.297 132.511 964.93 132.141C964.558 131.771 964.353 131.27 964.353 130.747V111.847C964.353 111.324 964.558 110.823 964.93 110.453C965.297 110.083 965.801 109.875 966.325 109.874H982.337C982.862 109.875 983.365 110.083 983.733 110.453C984.105 110.823 984.309 111.324 984.315 111.847V130.747C984.309 131.27 984.105 131.771 983.733 132.141C983.365 132.511 982.862 132.719 982.337 132.719Z" fill="#1A936F"/>
<path d="M923.727 128.028C923.423 127.31 922.92 126.696 922.269 126.262C921.619 125.829 920.858 125.595 920.082 125.589H847.322C846.273 125.59 845.271 126.006 844.531 126.745C843.792 127.485 843.378 128.488 843.378 129.533V221.579C843.378 222.625 843.792 223.627 844.531 224.367C845.271 225.106 846.273 225.522 847.322 225.523H920.082C921.126 225.521 922.128 225.105 922.867 224.366C923.607 223.626 924.026 222.624 924.026 221.579V129.533C924.026 129.017 923.927 128.505 923.727 128.028ZM923.15 221.579C923.15 222.392 922.825 223.172 922.248 223.747C921.677 224.322 920.895 224.646 920.082 224.647H847.322C846.509 224.647 845.727 224.323 845.15 223.748C844.579 223.173 844.253 222.392 844.253 221.579V129.533C844.253 128.72 844.579 127.94 845.15 127.365C845.727 126.79 846.509 126.466 847.322 126.465H920.082C920.696 126.467 921.294 126.652 921.797 126.996C922.306 127.34 922.699 127.827 922.93 128.395C922.972 128.509 923.014 128.624 923.045 128.741C923.114 128.999 923.15 129.266 923.15 129.533V221.579Z" fill="#3F3D56"/>
<path d="M908.538 147.321H886.626C886.159 147.321 885.713 147.137 885.383 146.808C885.058 146.479 884.869 146.033 884.869 145.568C884.869 145.103 885.058 144.657 885.383 144.328C885.713 143.999 886.159 143.815 886.626 143.815H908.538C909.005 143.815 909.451 143.999 909.781 144.328C910.107 144.657 910.295 145.103 910.295 145.568C910.295 146.033 910.107 146.479 909.781 146.808C909.451 147.137 909.005 147.321 908.538 147.321Z" fill="#1A936F"/>
<path d="M908.538 156.526H886.626C886.159 156.526 885.713 156.341 885.383 156.013C885.058 155.684 884.869 155.237 884.869 154.773C884.869 154.307 885.058 153.862 885.383 153.533C885.713 153.204 886.159 153.019 886.626 153.019H908.538C909.005 153.019 909.451 153.204 909.781 153.533C910.107 153.862 910.295 154.307 910.295 154.773C910.295 155.237 910.107 155.684 909.781 156.013C909.451 156.341 909.005 156.526 908.538 156.526Z" fill="#1A936F"/>
<path d="M875.381 161.767H859.364C858.839 161.767 858.341 161.558 857.969 161.189C857.601 160.819 857.392 160.317 857.392 159.795V140.895C857.392 140.372 857.601 139.87 857.969 139.501C858.341 139.131 858.839 138.923 859.364 138.923H875.381C875.9 138.923 876.404 139.131 876.771 139.501C877.143 139.87 877.353 140.372 877.353 140.895V159.795C877.353 160.317 877.143 160.819 876.771 161.189C876.404 161.558 875.9 161.767 875.381 161.767Z" fill="#18204B"/>
<path d="M908.386 175.373H858.86C858.629 175.374 858.399 175.329 858.189 175.241C857.974 175.153 857.78 175.024 857.617 174.861C857.454 174.698 857.323 174.505 857.234 174.292C857.15 174.079 857.103 173.851 857.103 173.62C857.103 173.39 857.15 173.161 857.234 172.948C857.323 172.735 857.454 172.542 857.617 172.379C857.78 172.216 857.974 172.087 858.189 172C858.399 171.912 858.629 171.866 858.86 171.867H908.386C908.853 171.867 909.299 172.053 909.624 172.381C909.955 172.71 910.138 173.156 910.138 173.62C910.138 174.084 909.955 174.53 909.624 174.859C909.299 175.187 908.853 175.373 908.386 175.373Z" fill="white"/>
<path d="M908.386 184.578H858.86C858.629 184.578 858.399 184.533 858.189 184.445C857.974 184.357 857.78 184.228 857.617 184.065C857.454 183.903 857.323 183.709 857.234 183.496C857.15 183.283 857.103 183.055 857.103 182.825C857.103 182.594 857.15 182.366 857.234 182.153C857.323 181.94 857.454 181.747 857.617 181.584C857.78 181.421 857.974 181.292 858.189 181.204C858.399 181.116 858.629 181.071 858.86 181.072H908.386C908.853 181.072 909.299 181.256 909.629 181.585C909.955 181.914 910.143 182.36 910.143 182.825C910.143 183.29 909.955 183.735 909.629 184.064C909.299 184.393 908.853 184.578 908.386 184.578Z" fill="white"/>
<path d="M908.386 193.782H858.86C858.629 193.783 858.399 193.738 858.189 193.65C857.974 193.562 857.78 193.433 857.617 193.27C857.454 193.107 857.323 192.914 857.234 192.701C857.15 192.488 857.103 192.26 857.103 192.029C857.103 191.799 857.15 191.57 857.234 191.358C857.323 191.145 857.454 190.951 857.617 190.788C857.78 190.625 857.974 190.496 858.189 190.409C858.399 190.321 858.629 190.276 858.86 190.276H908.386C908.853 190.276 909.299 190.461 909.629 190.79C909.955 191.118 910.143 191.564 910.143 192.029C910.143 192.494 909.955 192.94 909.629 193.269C909.299 193.598 908.853 193.782 908.386 193.782Z" fill="white"/>
<path d="M908.386 202.987H858.86C858.629 202.987 858.399 202.942 858.189 202.855C857.974 202.766 857.78 202.637 857.617 202.474C857.454 202.312 857.323 202.118 857.234 201.905C857.15 201.692 857.103 201.464 857.103 201.234C857.103 201.003 857.15 200.775 857.234 200.562C857.323 200.349 857.454 200.156 857.617 199.993C857.78 199.83 857.974 199.701 858.189 199.613C858.399 199.525 858.629 199.48 858.86 199.481H908.386C908.853 199.481 909.299 199.665 909.629 199.994C909.955 200.323 910.143 200.769 910.143 201.234C910.143 201.699 909.955 202.145 909.629 202.473C909.299 202.802 908.853 202.987 908.386 202.987Z" fill="white"/>
<path d="M908.386 212.191H858.86C858.629 212.192 858.399 212.147 858.189 212.059C857.974 211.971 857.78 211.842 857.617 211.679C857.454 211.516 857.323 211.323 857.234 211.11C857.15 210.897 857.103 210.669 857.103 210.438C857.103 210.208 857.15 209.98 857.234 209.767C857.323 209.554 857.454 209.36 857.617 209.198C857.78 209.034 857.974 208.905 858.189 208.818C858.399 208.73 858.629 208.685 858.86 208.685H908.386C908.853 208.686 909.299 208.871 909.624 209.2C909.955 209.528 910.138 209.974 910.138 210.438C910.138 210.903 909.955 211.348 909.624 211.677C909.299 212.006 908.853 212.191 908.386 212.191Z" fill="white"/>
<path d="M978.876 162.959L937.4 202.45L938.003 203.085L979.484 163.594L978.876 162.959Z" fill="white"/>
<path d="M937.012 203.422L942.278 203.36L942.267 202.483L937.946 202.535L938.208 198.22L937.332 198.167L937.012 203.422Z" fill="white"/>
<path d="M979.867 162.62L979.547 167.876L978.671 167.823L978.934 163.508L974.612 163.56L974.601 162.683L979.867 162.62Z" fill="white"/>
<path d="M958.442 187.844C961.101 187.844 963.262 185.685 963.262 183.022C963.262 180.359 961.101 178.201 958.442 178.201C955.778 178.201 953.617 180.359 953.617 183.022C953.617 185.685 955.778 187.844 958.442 187.844Z" fill="white"/>
<path d="M923.281 69.6026L881.806 109.093L882.409 109.728L923.89 70.2378L923.281 69.6026Z" fill="white"/>
<path d="M881.418 110.065L886.684 110.004L886.673 109.126L882.351 109.178L882.614 104.864L881.738 104.811L881.418 110.065Z" fill="white"/>
<path d="M924.273 69.2638L923.953 74.519L923.077 74.4666L923.339 70.1517L919.018 70.2036L919.007 69.3267L924.273 69.2638Z" fill="white"/>
<path d="M902.848 94.4869C905.507 94.4869 907.668 92.3281 907.668 89.6654C907.668 87.0026 905.507 84.8439 902.848 84.8439C900.184 84.8439 898.023 87.0026 898.023 89.6654C898.023 92.3281 900.184 94.4869 902.848 94.4869Z" fill="white"/>
<path d="M1089.3 326.178H1088.25V330.898H1089.3V326.178Z" fill="#3F3D56"/>
</svg>
