<svg width="1001" height="558" viewBox="0 0 1001 558" fill="none" xmlns="http://www.w3.org/2000/svg">
<rect width="1001" height="558" fill="#FF6B6B"/>
<path d="M471.835 169C469.766 73 544.612 16.3333 581 0H0V558H551.889C567.253 527 595.165 445.266 565.109 372C527.369 280 474.443 289.971 471.835 169Z" fill="#18204B"/>
<g clip-path="url(#clip0)">
<path d="M226.161 269.863C225.873 271.378 225.528 272.878 225.125 274.362C225.081 274.534 225.032 274.704 224.983 274.876H219.379C218.902 274.877 218.444 275.067 218.107 275.404C217.769 275.742 217.579 276.199 217.579 276.677V292.654C217.409 292.97 217.236 293.284 217.064 293.598C216.174 295.218 215.248 296.82 214.302 298.402C198.868 324.111 177.342 345.624 151.625 361.043L153.147 357.607C152.589 357.569 152.028 357.53 151.47 357.492C139.318 356.661 127.124 355.74 115.256 353.009C102.841 350.151 90.6965 345.195 80.9665 336.977C71.234 328.757 64.0993 317.018 63.1091 304.318C62.7789 299.953 63.2203 295.564 64.4132 291.352C66.6944 283.245 71.6791 275.951 78.8704 271.635C90.1666 264.858 104.902 266.239 116.81 271.877C128.716 277.512 138.407 286.841 147.87 296.008C138.316 279.625 125.014 265.74 109.055 255.493C103.767 252.109 98.1553 249.094 93.6594 244.709C89.1661 240.326 85.8507 234.182 86.6456 227.955C87.5483 220.892 93.3328 215.532 99.1275 211.399C101.442 209.748 103.832 208.181 106.296 206.741C113.248 202.667 120.768 199.594 128.711 198.454C139.469 196.908 151.09 199.254 159.338 206.332C168.631 214.308 172.442 227.171 172.08 239.475C177.805 231.152 186.635 224.781 196.606 224.511C206.959 224.233 216.799 230.774 221.984 239.74C227.167 248.703 228.098 259.691 226.161 269.863Z" fill="#E6E6E6"/>
<path d="M160.663 304.43C166.727 303.896 172.328 303.272 178.203 301.609C183.899 299.998 189.379 297.3 193.433 292.895C197.794 288.157 200.148 282.004 201.809 275.878C202.735 272.463 203.496 269 204.214 265.536C204.993 261.778 205.685 258.002 206.29 254.211C207.495 246.663 208.355 239.071 208.871 231.435C208.933 230.508 208.99 229.58 209.042 228.653C209.074 228.081 208.184 228.082 208.152 228.653C207.728 236.18 206.967 243.678 205.867 251.147C204.781 258.485 203.392 265.791 201.63 272.997C200.137 279.102 198.204 285.303 194.375 290.385C190.785 295.151 185.599 298.265 180 300.127C174.302 302.022 168.295 302.778 162.341 303.341C161.61 303.41 161.394 303.475 160.663 303.54C160.097 303.59 160.092 304.48 160.663 304.43L160.663 304.43Z" fill="white"/>
<path d="M64.9268 292.009C72.5768 292.433 80.1491 293.768 87.4835 295.984C94.8209 298.195 101.872 301.265 108.491 305.128C114.886 308.864 120.823 313.334 126.181 318.447C131.381 323.413 136.015 328.939 140 334.924C144.002 340.924 147.319 347.354 149.888 354.094C150.201 354.919 150.503 355.748 150.793 356.581C150.981 357.118 151.841 356.887 151.651 356.344C149.248 349.463 146.079 342.872 142.205 336.698C138.331 330.522 133.785 324.795 128.65 319.622C123.433 314.368 117.626 309.734 111.346 305.812C98.1588 297.598 83.2114 292.628 67.7311 291.312C66.7973 291.234 65.8626 291.17 64.9268 291.119C64.3545 291.088 64.3563 291.978 64.9268 292.009L64.9268 292.009Z" fill="white"/>
<path d="M106.536 207.784C111.428 209.34 116.064 211.606 120.297 214.509C124.622 217.495 128.567 220.999 132.044 224.941C135.707 229.088 138.965 233.577 141.771 238.346C144.747 243.382 147.333 248.639 149.505 254.07C151.742 259.647 153.623 265.359 155.137 271.173C156.677 277.056 157.879 283.022 158.739 289.042C159.594 294.998 160.112 300.998 160.289 307.012C160.468 312.764 160.298 318.52 159.78 324.251C159.306 329.598 158.441 334.902 157.192 340.122C156.082 344.836 154.518 349.432 152.522 353.845C152.06 354.847 151.569 355.835 151.05 356.808C150.781 357.314 151.549 357.764 151.819 357.258C154.025 353.043 155.786 348.609 157.074 344.03C158.52 338.932 159.568 333.73 160.209 328.469C160.919 322.763 161.265 317.016 161.244 311.265C161.231 305.224 160.872 299.188 160.167 293.187C159.462 287.112 158.415 281.081 157.032 275.124C155.652 269.156 153.901 263.281 151.79 257.531C149.755 251.966 147.319 246.555 144.5 241.342C141.816 236.367 138.687 231.646 135.153 227.234C131.797 223.034 127.965 219.236 123.734 215.918C119.655 212.728 115.147 210.128 110.343 208.194C109.169 207.727 107.979 207.304 106.773 206.926C106.225 206.754 105.991 207.613 106.536 207.784H106.536Z" fill="white"/>
<path d="M159.323 362.582C194.48 362.582 222.98 361.43 222.98 360.01C222.98 358.589 194.48 357.438 159.323 357.438C124.166 357.438 95.6656 358.589 95.6656 360.01C95.6656 361.43 124.166 362.582 159.323 362.582Z" fill="#E6E6E6"/>
<path d="M190.402 283.362L199.101 289.563L202.992 284.684L194.536 277.899C194.172 277.607 193.752 277.392 193.302 277.268C192.853 277.144 192.383 277.113 191.92 277.177C191.458 277.241 191.014 277.399 190.615 277.64C190.216 277.882 189.871 278.203 189.6 278.582C189.073 279.323 188.861 280.242 189.011 281.138C189.161 282.035 189.662 282.835 190.402 283.362Z" fill="#FF6B6B"/>
<path d="M172.444 354.11L175.494 354.909L180.029 343.524L175.527 342.344L172.444 354.11Z" fill="#FFB8B8"/>
<path d="M180.635 359.283L171.048 356.771L172.019 353.067L177.901 354.608C178.884 354.866 179.723 355.503 180.236 356.379C180.749 357.256 180.892 358.3 180.635 359.283Z" fill="#2F2E41"/>
<path d="M199.559 356.281L202.663 355.727L202.001 343.49L197.42 344.309L199.559 356.281Z" fill="#FFB8B8"/>
<path d="M209.164 357.54L199.408 359.283L198.735 355.513L204.722 354.444C205.217 354.356 205.724 354.366 206.215 354.473C206.706 354.581 207.171 354.784 207.584 355.072C207.997 355.359 208.348 355.725 208.62 356.149C208.891 356.572 209.076 357.045 209.164 357.54Z" fill="#2F2E41"/>
<path d="M193.446 266.289C194.211 266.475 194.833 267.254 195.207 268.157C195.552 269.106 195.785 270.091 195.903 271.093C196.196 272.96 196.478 274.98 195.871 276.709C195.159 278.735 193.262 279.796 191.617 279.297C189.972 278.799 188.663 276.927 188.216 274.772C187.809 272.595 188.072 270.346 188.968 268.321C189.436 267.256 190.08 266.275 190.936 265.795C191.356 265.541 191.857 265.455 192.337 265.555C192.817 265.655 193.242 265.934 193.526 266.334" fill="#2F2E41"/>
<path d="M197.774 300.082L203.684 353.012L198.803 354.865L189.801 319.372L177.268 351.825L171.925 352.122C171.925 352.122 179.256 301.625 184.688 300.477L197.774 300.082Z" fill="#2F2E41"/>
<path d="M192.81 273.044C196.299 273.044 199.128 270.216 199.128 266.727C199.128 263.238 196.299 260.41 192.81 260.41C189.322 260.41 186.493 263.238 186.493 266.727C186.493 270.216 189.322 273.044 192.81 273.044Z" fill="#FFB8B8"/>
<path d="M195.522 275.694L188.695 274.804C188.695 274.804 184.243 280.146 184.54 289.347C184.837 298.548 183.798 301.368 183.798 301.368L198.031 301.625C195.974 298.796 204.58 282.547 195.522 275.694Z" fill="#FF6B6B"/>
<path d="M199.189 302.911C199.046 302.912 198.904 302.924 198.764 302.948L190.031 293.651L190.921 290.683L186.617 288.753L183.946 295.283L196.511 305.278C196.443 305.822 196.543 306.374 196.797 306.86C197.05 307.345 197.446 307.743 197.931 307.998C198.416 308.254 198.967 308.356 199.511 308.291C200.055 308.226 200.567 307.996 200.978 307.633C201.388 307.27 201.679 306.791 201.81 306.259C201.942 305.726 201.908 305.167 201.714 304.654C201.52 304.142 201.174 303.7 200.723 303.389C200.272 303.077 199.737 302.911 199.189 302.911Z" fill="#FFB8B8"/>
<path d="M189.624 279.311L185.579 289.199L191.218 291.87L195.888 282.085C196.089 281.664 196.202 281.206 196.22 280.74C196.238 280.274 196.16 279.809 195.992 279.374C195.824 278.939 195.569 278.543 195.242 278.209C194.916 277.876 194.525 277.613 194.093 277.437C193.676 277.266 193.23 277.18 192.78 277.182C192.33 277.184 191.885 277.274 191.47 277.448C191.055 277.622 190.678 277.876 190.362 278.196C190.045 278.516 189.794 278.895 189.624 279.311Z" fill="#FF6B6B"/>
<path d="M191.158 272.47C192.148 271.899 192.253 270.521 192.119 269.387C191.984 268.252 191.76 266.987 192.427 266.059C193.223 264.952 194.822 264.93 196.185 264.893C197.549 264.857 199.209 264.458 199.562 263.141C199.796 262.27 199.296 261.336 198.58 260.79C197.863 260.244 196.966 260.002 196.095 259.772C194.146 259.259 192.133 258.741 190.137 259.023C188.16 259.303 186.372 260.35 185.161 261.937C183.95 263.524 183.412 265.525 183.665 267.506C183.988 270.039 184.457 271.146 184.149 272.263C183.576 274.344 181.106 275.68 181.057 277.838C181.018 279.526 182.509 280.828 183.964 281.685C185.117 282.365 186.362 282.941 187.692 283.101C189.022 283.26 190.453 282.955 191.443 282.054C192.721 280.892 193.037 278.95 192.671 277.262C192.304 275.574 191.365 274.075 190.435 272.62" fill="#2F2E41"/>
<path d="M310.685 274.362H219.379C218.765 274.363 218.177 274.607 217.743 275.041C217.309 275.475 217.065 276.063 217.064 276.676V335.318C217.065 335.932 217.309 336.52 217.743 336.954C218.177 337.388 218.765 337.632 219.379 337.633H310.685C311.299 337.632 311.887 337.388 312.321 336.954C312.755 336.52 312.999 335.932 313 335.318V276.676C312.999 276.063 312.755 275.475 312.321 275.041C311.887 274.607 311.299 274.363 310.685 274.362ZM312.486 335.318C312.485 335.796 312.295 336.253 311.958 336.591C311.62 336.928 311.162 337.118 310.685 337.119H219.379C218.902 337.118 218.444 336.928 218.106 336.591C217.769 336.253 217.579 335.796 217.579 335.318V276.676C217.579 276.199 217.769 275.742 218.106 275.404C218.444 275.066 218.902 274.877 219.379 274.876H310.685C311.162 274.877 311.62 275.066 311.958 275.404C312.295 275.742 312.485 276.199 312.486 276.676V335.318Z" fill="white"/>
<path d="M215.565 279.452C215.533 279.59 215.512 279.731 215.503 279.873L204.454 286.247L201.769 284.701L198.906 288.449L204.651 292.544L217.256 282.6C217.77 282.79 218.33 282.819 218.861 282.684C219.392 282.548 219.869 282.254 220.229 281.84C220.589 281.427 220.814 280.914 220.875 280.369C220.936 279.824 220.83 279.274 220.571 278.791C220.311 278.308 219.911 277.915 219.423 277.666C218.935 277.416 218.383 277.32 217.839 277.392C217.296 277.464 216.787 277.699 216.381 278.067C215.975 278.435 215.69 278.918 215.565 279.452Z" fill="#FFB8B8"/>
<path d="M238.868 303.553H224.465C223.886 303.552 223.33 303.322 222.92 302.912C222.51 302.502 222.28 301.946 222.279 301.367V286.963C222.28 286.384 222.51 285.828 222.92 285.418C223.33 285.008 223.886 284.778 224.465 284.777H238.868C239.448 284.778 240.004 285.008 240.414 285.418C240.823 285.828 241.054 286.384 241.055 286.963V301.367C241.054 301.946 240.823 302.502 240.414 302.912C240.004 303.322 239.448 303.552 238.868 303.553Z" fill="#FF6B6B"/>
<path d="M305.93 318.859H224.14C223.697 318.859 223.271 318.683 222.958 318.369C222.644 318.055 222.468 317.63 222.468 317.187C222.468 316.743 222.644 316.318 222.958 316.005C223.271 315.691 223.697 315.515 224.14 315.515H305.93C306.373 315.515 306.798 315.691 307.112 316.005C307.426 316.318 307.602 316.743 307.602 317.187C307.602 317.63 307.426 318.055 307.112 318.369C306.798 318.683 306.373 318.859 305.93 318.859Z" fill="#CCCCCC"/>
<path d="M305.985 310.757H224.195C223.752 310.757 223.326 310.581 223.013 310.267C222.699 309.954 222.523 309.528 222.523 309.085C222.523 308.642 222.699 308.216 223.013 307.903C223.326 307.589 223.752 307.413 224.195 307.413H305.985C306.428 307.413 306.853 307.589 307.167 307.903C307.48 308.216 307.657 308.642 307.657 309.085C307.657 309.528 307.48 309.954 307.167 310.267C306.853 310.581 306.428 310.757 305.985 310.757Z" fill="#CCCCCC"/>
<path d="M265.604 299.695H253.516C253.072 299.695 252.647 299.519 252.334 299.205C252.02 298.892 251.844 298.466 251.844 298.023C251.844 297.58 252.02 297.154 252.334 296.841C252.647 296.527 253.072 296.351 253.516 296.351H265.604C266.048 296.351 266.473 296.527 266.786 296.841C267.1 297.154 267.276 297.58 267.276 298.023C267.276 298.466 267.1 298.892 266.786 299.205C266.473 299.519 266.048 299.695 265.604 299.695Z" fill="#CCCCCC"/>
<path d="M305.985 291.467H253.516C253.072 291.467 252.647 291.291 252.334 290.977C252.02 290.664 251.844 290.238 251.844 289.795C251.844 289.352 252.02 288.926 252.334 288.613C252.647 288.299 253.072 288.123 253.516 288.123H305.985C306.428 288.123 306.853 288.299 307.167 288.613C307.48 288.926 307.657 289.352 307.657 289.795C307.657 290.238 307.48 290.664 307.167 290.977C306.853 291.291 306.428 291.467 305.985 291.467Z" fill="#CCCCCC"/>
<path d="M263.547 327.089H224.14C223.697 327.089 223.271 326.913 222.958 326.599C222.644 326.286 222.468 325.861 222.468 325.417C222.468 324.974 222.644 324.549 222.958 324.235C223.271 323.922 223.697 323.746 224.14 323.746H263.547C263.99 323.746 264.415 323.922 264.729 324.235C265.042 324.549 265.218 324.974 265.218 325.417C265.218 325.861 265.042 326.286 264.729 326.599C264.415 326.913 263.99 327.089 263.547 327.089Z" fill="#CCCCCC"/>
</g>
<g clip-path="url(#clip1)">
<rect x="711" y="263" width="98" height="101" fill="white"/>
<path d="M874.63 355.569H869.26V303.325L881.466 303.081L874.63 355.569Z" fill="#FFB8B8"/>
<path d="M900.508 355.569H905.879V303.325L893.673 303.081L900.508 355.569Z" fill="#FFB8B8"/>
<path d="M872.11 362.836L860.682 362.731C860.135 362.866 859.564 362.875 859.013 362.757C858.462 362.639 857.945 362.397 857.501 362.05C857.057 361.702 856.698 361.258 856.451 360.752C856.205 360.245 856.076 359.689 856.076 359.125C856.076 358.425 856.274 357.74 856.646 357.148C857.018 356.556 857.55 356.081 858.181 355.777L860.788 354.524L869.259 348.733L875.363 350.442L876.532 355.703C876.872 357.233 876.6 358.837 875.774 360.17C874.947 361.503 873.633 362.459 872.11 362.836Z" fill="#2F2E41"/>
<path d="M902.871 362.771L891.443 362.666C890.896 362.801 890.325 362.81 889.774 362.692C889.223 362.574 888.706 362.332 888.262 361.985C887.818 361.638 887.459 361.194 887.212 360.687C886.965 360.18 886.837 359.624 886.837 359.06C886.837 358.361 887.035 357.675 887.407 357.083C887.779 356.491 888.311 356.016 888.941 355.713L891.548 354.459L900.02 348.669L906.123 350.378L907.292 355.638C907.633 357.169 907.36 358.772 906.534 360.105C905.708 361.438 904.393 362.395 902.871 362.771Z" fill="#2F2E41"/>
<path d="M907.338 311.888L890.512 310.385L888.296 290.648L883.335 309.744L866.324 308.226C866.951 296.532 868.301 286.778 871.451 281.859L907.094 275.512L907.338 311.888Z" fill="#2F2E41"/>
<path d="M890.333 220.483C895.354 220.483 899.425 216.412 899.425 211.391C899.425 206.369 895.354 202.299 890.333 202.299C885.312 202.299 881.241 206.369 881.241 211.391C881.241 216.412 885.312 220.483 890.333 220.483Z" fill="#FFB8B8"/>
<path d="M897.573 230.347L881.705 228.394C883.724 224.095 884.633 220.081 883.169 216.676H895.376C893.489 220.044 895.176 225.035 897.573 230.347Z" fill="#FFB8B8"/>
<path d="M907.094 276C895.928 284.187 883.742 286.981 870.475 284.057C878.525 265.678 877.375 247.564 870.475 229.615L883.169 224.244C886.729 227.716 890.811 227.792 895.376 224.732L907.827 227.418C905.549 245.324 904.786 261.955 907.094 276Z" fill="#3F3D56"/>
<path d="M883.625 203.454L882.09 202.84C882.09 202.84 885.3 199.305 889.766 199.613L888.51 198.23C888.51 198.23 891.581 197.001 894.372 200.227C895.84 201.924 897.537 203.918 898.596 206.164H900.24L899.554 207.675L901.956 209.186L899.49 208.914C899.724 210.219 899.644 211.56 899.257 212.827L899.323 214.022C899.323 214.022 896.466 209.601 896.466 208.986V210.523C896.466 210.523 894.931 209.14 894.931 208.218L894.093 209.293L893.674 207.603L888.51 209.293L889.348 207.91L886.138 208.371L887.394 206.681C887.394 206.681 883.765 208.679 883.625 210.369C883.486 212.059 881.671 214.21 881.671 214.21L880.834 212.674C880.834 212.674 879.578 205.759 883.625 203.454Z" fill="#2F2E41"/>
<path d="M909.321 295.33H854.177C853.618 295.329 853.082 295.107 852.686 294.712C852.291 294.316 852.069 293.78 852.068 293.221V284.783C852.069 284.224 852.291 283.688 852.686 283.293C853.082 282.897 853.618 282.675 854.177 282.674H909.321C909.88 282.675 910.416 282.897 910.812 283.293C911.207 283.688 911.429 284.224 911.43 284.783V293.221C911.429 293.78 911.207 294.316 910.812 294.712C910.416 295.107 909.88 295.329 909.321 295.33Z" fill="#18204B"/>
<path d="M862.421 287.21C861.951 287.218 861.503 287.41 861.174 287.746C860.844 288.081 860.659 288.532 860.659 289.002C860.659 289.472 860.844 289.923 861.174 290.259C861.503 290.594 861.951 290.786 862.421 290.794H901.018C901.492 290.8 901.949 290.618 902.29 290.288C902.63 289.957 902.825 289.506 902.833 289.031C902.841 288.557 902.661 288.099 902.331 287.758C902.002 287.416 901.551 287.22 901.077 287.21C901.057 287.21 901.037 287.21 901.018 287.21H862.421Z" fill="white"/>
<path d="M876.09 280.639L878.892 285.635C879.224 286.227 879.416 286.887 879.453 287.564C879.49 288.241 879.371 288.918 879.106 289.543C878.84 290.167 878.435 290.722 877.921 291.165C877.408 291.608 876.799 291.928 876.143 292.099C875.48 292.272 874.786 292.289 874.115 292.149C873.444 292.008 872.815 291.715 872.277 291.291C871.739 290.866 871.306 290.323 871.013 289.704C870.72 289.085 870.574 288.406 870.587 287.721L870.719 280.883C868.613 268.728 866.903 257.22 867.301 249.146H877.066L875.113 258.423L876.09 280.639Z" fill="#FFB8B8"/>
<path d="M908.315 281.859L906.262 285.281C905.926 285.841 905.456 286.309 904.895 286.644C904.334 286.978 903.699 287.168 903.046 287.197C902.394 287.226 901.744 287.092 901.156 286.809C900.568 286.525 900.059 286.101 899.674 285.572C899.367 285.15 899.147 284.671 899.026 284.164C898.905 283.656 898.886 283.129 898.969 282.614C899.053 282.099 899.238 281.605 899.513 281.161C899.789 280.718 900.149 280.333 900.574 280.03L904.165 277.465L909.292 256.226L906.118 247.437L914.907 245.972C919.033 255.509 914.876 268.223 908.315 281.859Z" fill="#FFB8B8"/>
<path d="M879.263 251.099L866.324 250.366L867.213 236.502C867.169 234.54 867.786 232.619 868.965 231.05C870.145 229.481 871.819 228.355 873.716 227.852L875.357 227.418L879.263 251.099Z" fill="#3F3D56"/>
<path d="M915.883 246.704L903.921 249.634V226.686L904.414 226.654C906.381 226.527 908.327 227.111 909.898 228.3C911.47 229.488 912.561 231.202 912.974 233.129L915.883 246.704Z" fill="#3F3D56"/>
<path d="M941 362.784H758.364V363.387H941V362.784Z" fill="#E6E6E6"/>
<path d="M699.878 362.984C699.972 363.119 700.071 363.254 700.172 363.387H708.68C708.615 363.272 708.541 363.137 708.454 362.984C707.048 360.447 702.888 352.863 699.027 345C694.877 336.551 691.07 327.781 691.39 324.607C691.291 325.323 688.42 347.146 699.878 362.984Z" fill="#E6E6E6"/>
<path d="M714.72 370.386C714.66 370.54 714.596 370.694 714.53 370.848L706.269 372.881C706.304 372.754 706.345 372.605 706.392 372.436C707.151 369.636 709.377 361.278 711.248 352.72C713.258 343.524 714.858 334.099 713.788 331.093C714.055 331.765 722.06 352.268 714.72 370.386Z" fill="#E6E6E6"/>
<path d="M806.863 266H713.137C712.57 265.999 712.027 265.776 711.627 265.379C711.226 264.981 711.001 264.443 711 263.881V212.119C711.001 211.557 711.226 211.019 711.627 210.621C712.027 210.224 712.57 210.001 713.137 210H806.863C807.43 210.001 807.973 210.224 808.373 210.621C808.774 211.019 808.999 211.557 809 212.119V263.881C808.999 264.443 808.774 264.981 808.373 265.379C807.973 265.776 807.43 265.999 806.863 266V266Z" fill="#18204B"/>
<path d="M807.492 364H712.508C712.108 364 711.725 363.84 711.442 363.557C711.159 363.274 711 362.89 711 362.49V211.51C711 211.11 711.159 210.726 711.442 210.443C711.725 210.16 712.108 210 712.508 210H807.492C807.892 210 808.275 210.16 808.558 210.443C808.841 210.726 809 211.11 809 211.51V362.49C809 362.89 808.841 363.274 808.558 363.557C808.275 363.84 807.892 364 807.492 364V364ZM712.508 210.604C712.268 210.604 712.038 210.7 711.868 210.87C711.699 211.039 711.603 211.27 711.603 211.51V362.49C711.603 362.73 711.699 362.961 711.868 363.13C712.038 363.3 712.268 363.396 712.508 363.396H807.492C807.732 363.396 807.962 363.3 808.132 363.13C808.301 362.961 808.397 362.73 808.397 362.49V211.51C808.397 211.27 808.301 211.039 808.132 210.87C807.962 210.7 807.732 210.604 807.492 210.604H712.508Z" fill="white"/>
<path d="M723.508 293.618C725.339 293.618 726.823 292.134 726.823 290.304C726.823 288.473 725.339 286.989 723.508 286.989C721.678 286.989 720.194 288.473 720.194 290.304C720.194 292.134 721.678 293.618 723.508 293.618Z" fill="#E6E6E6"/>
<path d="M793.417 296.631H738.274C737.714 296.631 737.178 296.408 736.783 296.013C736.387 295.617 736.165 295.081 736.164 294.522V286.085C736.165 285.526 736.387 284.989 736.783 284.594C737.178 284.199 737.714 283.976 738.274 283.976H793.417C793.977 283.976 794.513 284.199 794.908 284.594C795.304 284.99 795.526 285.526 795.527 286.085V294.522C795.526 295.081 795.304 295.617 794.908 296.013C794.513 296.408 793.977 296.631 793.417 296.631Z" fill="#E6E6E6"/>
<path d="M795.527 296.933H736.164C736.084 296.933 736.008 296.901 735.951 296.845C735.895 296.788 735.863 296.711 735.863 296.631C735.863 296.552 735.895 296.475 735.951 296.418C736.008 296.362 736.084 296.33 736.164 296.33H795.527C795.607 296.33 795.683 296.362 795.74 296.418C795.796 296.475 795.828 296.552 795.828 296.631C795.828 296.711 795.796 296.788 795.74 296.845C795.683 296.901 795.607 296.933 795.527 296.933Z" fill="#3F3D56"/>
<path d="M723.508 313.506C725.339 313.506 726.823 312.022 726.823 310.191C726.823 308.361 725.339 306.877 723.508 306.877C721.678 306.877 720.194 308.361 720.194 310.191C720.194 312.022 721.678 313.506 723.508 313.506Z" fill="#E6E6E6"/>
<path d="M793.417 316.519H738.274C737.714 316.519 737.178 316.296 736.783 315.901C736.387 315.505 736.165 314.969 736.164 314.41V305.973C736.165 305.413 736.387 304.877 736.783 304.482C737.178 304.086 737.714 303.864 738.274 303.863H793.417C793.977 303.864 794.513 304.087 794.908 304.482C795.304 304.877 795.526 305.414 795.527 305.973V314.41C795.526 314.969 795.304 315.505 794.908 315.901C794.513 316.296 793.977 316.519 793.417 316.519Z" fill="#E6E6E6"/>
<path d="M795.527 316.821H736.164C736.084 316.821 736.008 316.789 735.951 316.732C735.895 316.676 735.863 316.599 735.863 316.519C735.863 316.439 735.895 316.363 735.951 316.306C736.008 316.25 736.084 316.218 736.164 316.218H795.527C795.607 316.218 795.683 316.25 795.74 316.306C795.796 316.363 795.828 316.439 795.828 316.519C795.828 316.599 795.796 316.676 795.74 316.732C795.683 316.789 795.607 316.821 795.527 316.821Z" fill="#3F3D56"/>
<path d="M723.508 333.394C725.339 333.394 726.823 331.91 726.823 330.079C726.823 328.249 725.339 326.765 723.508 326.765C721.678 326.765 720.194 328.249 720.194 330.079C720.194 331.91 721.678 333.394 723.508 333.394Z" fill="#E6E6E6"/>
<path d="M761.175 336.407H738.274C737.714 336.407 737.178 336.184 736.783 335.789C736.387 335.393 736.165 334.857 736.164 334.298V325.861C736.165 325.301 736.387 324.765 736.783 324.37C737.178 323.974 737.714 323.752 738.274 323.751H761.175C761.734 323.752 762.27 323.974 762.666 324.37C763.061 324.765 763.284 325.301 763.284 325.861V334.298C763.284 334.857 763.061 335.393 762.666 335.789C762.27 336.184 761.734 336.407 761.175 336.407Z" fill="#E6E6E6"/>
<path d="M763.284 336.709H736.164C736.084 336.709 736.008 336.677 735.951 336.62C735.895 336.564 735.863 336.487 735.863 336.407C735.863 336.327 735.895 336.251 735.951 336.194C736.008 336.138 736.084 336.106 736.164 336.106H763.284C763.364 336.106 763.441 336.138 763.497 336.194C763.554 336.251 763.586 336.327 763.586 336.407C763.586 336.487 763.554 336.564 763.497 336.62C763.441 336.677 763.364 336.709 763.284 336.709Z" fill="#3F3D56"/>
<path d="M793.417 336.407H770.516C769.957 336.407 769.421 336.184 769.025 335.789C768.63 335.393 768.408 334.857 768.407 334.298V325.861C768.408 325.301 768.63 324.765 769.025 324.37C769.421 323.974 769.957 323.752 770.516 323.751H793.417C793.977 323.752 794.513 323.974 794.908 324.37C795.304 324.765 795.526 325.301 795.527 325.861V334.298C795.526 334.857 795.304 335.393 794.908 335.789C794.513 336.184 793.977 336.407 793.417 336.407Z" fill="#E6E6E6"/>
<path d="M795.527 336.709H768.407C768.327 336.709 768.25 336.677 768.194 336.62C768.137 336.564 768.106 336.487 768.106 336.407C768.106 336.327 768.137 336.251 768.194 336.194C768.25 336.138 768.327 336.106 768.407 336.106H795.527C795.607 336.106 795.683 336.138 795.74 336.194C795.796 336.251 795.828 336.327 795.828 336.407C795.828 336.487 795.796 336.564 795.74 336.62C795.683 336.677 795.607 336.709 795.527 336.709Z" fill="#3F3D56"/>
<path d="M699.027 345C699.19 351.108 700.213 357.162 702.066 362.984C702.108 363.119 702.152 363.252 702.197 363.387H713.537C713.525 363.266 713.513 363.131 713.501 362.984C712.745 354.29 708.385 301.381 713.598 292.333C713.142 293.067 698.148 317.378 699.027 345Z" fill="#E6E6E6"/>
<path d="M723.617 225.986C723.147 225.993 722.698 226.185 722.369 226.521C722.039 226.856 721.854 227.307 721.854 227.777C721.854 228.247 722.039 228.699 722.369 229.034C722.698 229.369 723.147 229.561 723.617 229.569H795.962C796.198 229.573 796.432 229.531 796.651 229.444C796.87 229.358 797.07 229.229 797.239 229.066C797.408 228.902 797.544 228.707 797.637 228.491C797.731 228.275 797.781 228.042 797.785 227.807C797.789 227.571 797.747 227.337 797.66 227.118C797.573 226.899 797.444 226.7 797.281 226.53C797.117 226.361 796.921 226.226 796.705 226.133C796.489 226.039 796.256 225.989 796.021 225.986C796.001 225.985 795.982 225.985 795.962 225.986H723.617Z" fill="white"/>
<path d="M723.617 235.929C723.147 235.937 722.698 236.129 722.369 236.465C722.039 236.8 721.854 237.251 721.854 237.721C721.854 238.191 722.039 238.643 722.369 238.978C722.698 239.313 723.147 239.505 723.617 239.513H795.962C796.437 239.52 796.895 239.339 797.236 239.008C797.578 238.678 797.774 238.225 797.781 237.751C797.789 237.276 797.608 236.817 797.278 236.476C796.948 236.134 796.496 235.938 796.021 235.929C796.001 235.929 795.982 235.929 795.962 235.929H723.617Z" fill="white"/>
<path d="M723.617 245.873C723.147 245.881 722.698 246.073 722.369 246.408C722.039 246.744 721.854 247.195 721.854 247.665C721.854 248.135 722.039 248.587 722.369 248.922C722.698 249.257 723.147 249.449 723.617 249.457H795.962C796.437 249.464 796.895 249.283 797.236 248.952C797.578 248.622 797.774 248.169 797.781 247.695C797.789 247.22 797.608 246.761 797.278 246.42C796.948 246.078 796.496 245.882 796.021 245.873C796.001 245.873 795.982 245.873 795.962 245.873H723.617Z" fill="white"/>
<path d="M792.754 351.262L791.995 350.504C791.979 350.487 791.959 350.474 791.938 350.465C791.917 350.457 791.894 350.452 791.871 350.452H791.502C791.467 350.452 791.433 350.462 791.404 350.482C791.375 350.501 791.352 350.529 791.339 350.561C791.326 350.593 791.322 350.629 791.329 350.663C791.336 350.697 791.352 350.728 791.377 350.753L791.797 351.172H788.445C788.365 351.172 788.289 351.204 788.232 351.261C788.176 351.317 788.144 351.394 788.144 351.474C788.144 351.554 788.176 351.63 788.232 351.687C788.289 351.743 788.365 351.775 788.445 351.775H791.797L791.42 352.152C791.392 352.18 791.373 352.216 791.365 352.255C791.357 352.294 791.361 352.334 791.376 352.371C791.392 352.408 791.417 352.439 791.45 352.462C791.484 352.484 791.522 352.496 791.562 352.495H791.86C791.887 352.496 791.913 352.49 791.937 352.48C791.962 352.47 791.984 352.455 792.003 352.437L792.754 351.686C792.781 351.658 792.803 351.625 792.818 351.588C792.834 351.552 792.841 351.513 792.841 351.474C792.841 351.434 792.834 351.396 792.818 351.359C792.803 351.323 792.781 351.29 792.754 351.262Z" fill="#18204B"/>
<path d="M790.705 356.295C789.752 356.295 788.82 356.012 788.027 355.483C787.234 354.953 786.616 354.2 786.251 353.319C785.886 352.438 785.791 351.469 785.977 350.533C786.163 349.598 786.622 348.739 787.296 348.065C787.971 347.391 788.83 346.931 789.765 346.745C790.7 346.559 791.67 346.655 792.551 347.02C793.431 347.385 794.184 348.003 794.714 348.795C795.244 349.588 795.527 350.52 795.527 351.474C795.525 352.752 795.017 353.978 794.113 354.882C793.209 355.785 791.984 356.294 790.705 356.295ZM790.705 347.255C789.871 347.255 789.055 347.503 788.362 347.966C787.668 348.43 787.127 349.089 786.808 349.86C786.489 350.63 786.405 351.479 786.568 352.297C786.731 353.115 787.132 353.867 787.722 354.457C788.312 355.047 789.064 355.449 789.882 355.612C790.701 355.774 791.549 355.691 792.32 355.371C793.091 355.052 793.75 354.511 794.213 353.818C794.677 353.124 794.924 352.308 794.924 351.474C794.923 350.355 794.478 349.283 793.687 348.492C792.896 347.701 791.824 347.257 790.705 347.255Z" fill="#3F3D56"/>
</g>
<defs>
<clipPath id="clip0">
<rect width="250" height="164.582" fill="white" transform="translate(63 198)"/>
</clipPath>
<clipPath id="clip1">
<rect width="250" height="165.387" fill="white" transform="translate(691 198)"/>
</clipPath>
</defs>
</svg>
