<svg width="282" height="138" viewBox="0 0 282 138" fill="none" xmlns="http://www.w3.org/2000/svg">
<rect width="282" height="138" fill="#1A535C"/>
<path d="M67.3113 70.2596L65.8263 68.8L66.7302 67.8711L61.7585 62.7623L56.6577 67.8711L61.7585 72.9798L62.6625 72.051L64.1475 73.5106L62.2105 75.5011C61.807 75.6877 61.5808 75.7169 61.1774 75.5011L54.1395 68.3355C54.0254 67.899 54.015 67.7309 54.1395 67.3402L61.1129 60.3074C61.5667 60.0691 61.8212 60.0738 62.2751 60.3074L69.3129 67.3402C69.5485 67.7421 69.5428 67.9598 69.3129 68.3355L67.3113 70.2596Z" fill="white" fill-opacity="0.08"/>
<path d="M56.2122 72.2095L57.7056 73.6601L56.8071 74.5944L61.8081 79.6729L66.8794 74.5331L61.7493 69.4554L60.8507 70.3898L59.3572 68.9392L61.2828 66.9369C61.6851 66.7479 61.9111 66.7173 62.3158 66.9307L69.3949 74.0533C69.5115 74.4892 69.523 74.6572 69.4006 75.0486L62.468 82.1239C62.0155 82.3649 61.761 82.3617 61.3058 82.1309L54.2274 75.141C53.9896 74.7405 53.994 74.5229 54.2217 74.1457L56.2122 72.2095Z" fill="white" fill-opacity="0.08"/>
<path d="M221.686 70.2596L220.201 68.8L221.105 67.8711L216.134 62.7623L211.033 67.8711L216.134 72.9798L217.037 72.051L218.523 73.5106L216.585 75.5011C216.182 75.6877 215.956 75.7169 215.552 75.5011L208.515 68.3355C208.4 67.899 208.39 67.7309 208.515 67.3402L215.488 60.3074C215.942 60.0691 216.196 60.0738 216.65 60.3074L223.688 67.3402C223.924 67.7421 223.918 67.9598 223.688 68.3355L221.686 70.2596Z" fill="white" fill-opacity="0.08"/>
<path d="M210.587 72.2095L212.081 73.6601L211.182 74.5944L216.183 79.6729L221.254 74.5331L216.124 69.4554L215.226 70.3898L213.732 68.9392L215.658 66.9369C216.06 66.7479 216.286 66.7173 216.691 66.9307L223.77 74.0533C223.887 74.4892 223.898 74.6572 223.776 75.0486L216.843 82.1239C216.39 82.3649 216.136 82.3617 215.681 82.1309L208.602 75.141C208.365 74.7405 208.369 74.5229 208.597 74.1457L210.587 72.2095Z" fill="white" fill-opacity="0.08"/>
<path d="M261.824 107.955L260.339 106.496L261.243 105.567L256.271 100.458L251.17 105.567L256.271 110.675L257.175 109.747L258.66 111.206L256.723 113.197C256.32 113.383 256.093 113.413 255.69 113.197L248.652 106.031C248.538 105.595 248.527 105.427 248.652 105.036L255.625 98.003C256.079 97.7647 256.334 97.7695 256.788 98.003L263.825 105.036C264.061 105.438 264.055 105.655 263.825 106.031L261.824 107.955Z" fill="white" fill-opacity="0.08"/>
<path d="M250.725 109.905L252.218 111.356L251.32 112.29L256.321 117.369L261.392 112.229L256.262 107.151L255.363 108.085L253.87 106.635L255.795 104.633C256.198 104.444 256.424 104.413 256.828 104.626L263.907 111.749C264.024 112.185 264.035 112.353 263.913 112.744L256.98 119.82C256.528 120.061 256.274 120.057 255.818 119.827L248.74 112.837C248.502 112.436 248.507 112.219 248.734 111.841L250.725 109.905Z" fill="white" fill-opacity="0.08"/>
<path d="M261.824 28.1292L260.339 26.6695L261.243 25.7406L256.271 20.6318L251.17 25.7406L256.271 30.8494L257.175 29.9206L258.66 31.3802L256.723 33.3707C256.32 33.5572 256.093 33.5864 255.69 33.3707L248.652 26.2051C248.538 25.7685 248.527 25.6005 248.652 25.2098L255.625 18.1769C256.079 17.9386 256.334 17.9434 256.788 18.1769L263.825 25.2098C264.061 25.6117 264.055 25.8294 263.825 26.2051L261.824 28.1292Z" fill="white" fill-opacity="0.08"/>
<path d="M250.725 30.079L252.218 31.5297L251.32 32.464L256.321 37.5425L261.392 32.4027L256.262 27.325L255.363 28.2593L253.87 26.8087L255.795 24.8065C256.198 24.6175 256.424 24.5869 256.828 24.8002L263.907 31.9229C264.024 32.3588 264.035 32.5268 263.913 32.9181L256.98 39.9934C256.528 40.2345 256.274 40.2313 255.818 40.0005L248.74 33.0105C248.502 32.6101 248.507 32.3924 248.734 32.0153L250.725 30.079Z" fill="white" fill-opacity="0.08"/>
<path d="M184.636 28.1292L183.151 26.6695L184.055 25.7406L179.084 20.6318L173.983 25.7406L179.084 30.8494L179.987 29.9206L181.473 31.3802L179.535 33.3707C179.132 33.5572 178.906 33.5864 178.502 33.3707L171.465 26.2051C171.35 25.7685 171.34 25.6005 171.465 25.2098L178.438 18.1769C178.892 17.9386 179.146 17.9434 179.6 18.1769L186.638 25.2098C186.874 25.6117 186.868 25.8294 186.638 26.2051L184.636 28.1292Z" fill="white" fill-opacity="0.08"/>
<path d="M173.537 30.079L175.031 31.5297L174.132 32.464L179.133 37.5425L184.204 32.4027L179.074 27.325L178.176 28.2593L176.682 26.8087L178.608 24.8065C179.01 24.6175 179.236 24.5869 179.641 24.8002L186.72 31.9229C186.837 32.3588 186.848 32.5268 186.726 32.9181L179.793 39.9934C179.34 40.2345 179.086 40.2313 178.631 40.0005L171.552 33.0105C171.315 32.6101 171.319 32.3924 171.547 32.0153L173.537 30.079Z" fill="white" fill-opacity="0.08"/>
<path d="M144.499 70.2596L143.014 68.8L143.918 67.8711L138.946 62.7623L133.845 67.8711L138.946 72.9798L139.85 72.051L141.335 73.5106L139.398 75.5011C138.995 75.6877 138.768 75.7169 138.365 75.5011L131.327 68.3355C131.213 67.899 131.202 67.7309 131.327 67.3402L138.3 60.3074C138.754 60.0691 139.009 60.0738 139.463 60.3074L146.5 67.3402C146.736 67.7421 146.73 67.9598 146.5 68.3355L144.499 70.2596Z" fill="white" fill-opacity="0.08"/>
<path d="M133.4 72.2095L134.893 73.6601L133.995 74.5944L138.996 79.6729L144.067 74.5331L138.937 69.4554L138.038 70.3898L136.545 68.9392L138.47 66.9369C138.873 66.7479 139.099 66.7173 139.503 66.9307L146.582 74.0533C146.699 74.4892 146.71 74.6572 146.588 75.0486L139.655 82.1239C139.203 82.3649 138.948 82.3617 138.493 82.1309L131.415 75.141C131.177 74.7405 131.182 74.5229 131.409 74.1457L133.4 72.2095Z" fill="white" fill-opacity="0.08"/>
<path d="M184.636 107.955L183.151 106.496L184.055 105.567L179.084 100.458L173.983 105.567L179.084 110.675L179.987 109.747L181.473 111.206L179.535 113.197C179.132 113.383 178.906 113.413 178.502 113.197L171.465 106.031C171.35 105.595 171.34 105.427 171.465 105.036L178.438 98.003C178.892 97.7647 179.146 97.7695 179.6 98.003L186.638 105.036C186.874 105.438 186.868 105.655 186.638 106.031L184.636 107.955Z" fill="white" fill-opacity="0.08"/>
<path d="M173.537 109.905L175.031 111.356L174.132 112.29L179.133 117.369L184.204 112.229L179.074 107.151L178.176 108.085L176.682 106.635L178.608 104.633C179.01 104.444 179.236 104.413 179.641 104.626L186.72 111.749C186.837 112.185 186.848 112.353 186.726 112.744L179.793 119.82C179.34 120.061 179.086 120.057 178.631 119.827L171.552 112.837C171.315 112.436 171.319 112.219 171.547 111.841L173.537 109.905Z" fill="white" fill-opacity="0.08"/>
<path d="M107.449 107.955L105.964 106.496L106.868 105.567L101.896 100.458L96.7952 105.567L101.896 110.675L102.8 109.747L104.285 111.206L102.348 113.197C101.945 113.383 101.718 113.413 101.315 113.197L94.277 106.031C94.163 105.595 94.1525 105.427 94.277 105.036L101.25 98.003C101.704 97.7647 101.959 97.7695 102.413 98.003L109.45 105.036C109.686 105.438 109.68 105.655 109.45 106.031L107.449 107.955Z" fill="white" fill-opacity="0.08"/>
<path d="M96.3497 109.905L97.8432 111.356L96.9446 112.29L101.946 117.369L107.017 112.229L101.887 107.151L100.988 108.085L99.4947 106.635L101.42 104.633C101.823 104.444 102.049 104.413 102.453 104.626L109.532 111.749C109.649 112.185 109.66 112.353 109.538 112.744L102.605 119.82C102.153 120.061 101.899 120.057 101.443 119.827L94.365 112.837C94.1271 112.436 94.1315 112.219 94.3592 111.841L96.3497 109.905Z" fill="white" fill-opacity="0.08"/>
<path d="M107.449 28.1292L105.964 26.6695L106.868 25.7406L101.896 20.6318L96.7952 25.7406L101.896 30.8494L102.8 29.9206L104.285 31.3802L102.348 33.3707C101.945 33.5572 101.718 33.5864 101.315 33.3707L94.277 26.2051C94.163 25.7685 94.1525 25.6005 94.277 25.2098L101.25 18.1769C101.704 17.9386 101.959 17.9434 102.413 18.1769L109.45 25.2098C109.686 25.6117 109.68 25.8294 109.45 26.2051L107.449 28.1292Z" fill="white" fill-opacity="0.08"/>
<path d="M96.3497 30.079L97.8432 31.5297L96.9446 32.464L101.946 37.5425L107.017 32.4027L101.887 27.325L100.988 28.2593L99.4947 26.8087L101.42 24.8065C101.823 24.6175 102.049 24.5869 102.453 24.8002L109.532 31.9229C109.649 32.3588 109.66 32.5268 109.538 32.9181L102.605 39.9934C102.153 40.2345 101.899 40.2313 101.443 40.0005L94.365 33.0105C94.1271 32.6101 94.1315 32.3924 94.3592 32.0153L96.3497 30.079Z" fill="white" fill-opacity="0.08"/>
<path d="M30.2613 107.955L28.7763 106.496L29.6802 105.567L24.7085 100.458L19.6077 105.567L24.7085 110.675L25.6125 109.747L27.0975 111.206L25.1605 113.197C24.757 113.383 24.5308 113.413 24.1274 113.197L17.0895 106.031C16.9755 105.595 16.965 105.427 17.0895 105.036L24.0629 98.003C24.5168 97.7647 24.7712 97.7695 25.2251 98.003L32.2629 105.036C32.4985 105.438 32.4928 105.655 32.2629 106.031L30.2613 107.955Z" fill="white" fill-opacity="0.08"/>
<path d="M19.1622 109.905L20.6557 111.356L19.7571 112.29L24.7582 117.369L29.8295 112.229L24.6993 107.151L23.8007 108.085L22.3072 106.635L24.2328 104.633C24.6351 104.444 24.8611 104.413 25.2658 104.626L32.3449 111.749C32.4616 112.185 32.473 112.353 32.3506 112.744L25.418 119.82C24.9655 120.061 24.711 120.057 24.2558 119.827L17.1775 112.837C16.9396 112.436 16.944 112.219 17.1717 111.841L19.1622 109.905Z" fill="white" fill-opacity="0.08"/>
<path d="M30.2613 28.1292L28.7763 26.6695L29.6802 25.7406L24.7085 20.6318L19.6077 25.7406L24.7085 30.8494L25.6125 29.9206L27.0975 31.3802L25.1605 33.3707C24.757 33.5572 24.5308 33.5864 24.1274 33.3707L17.0895 26.2051C16.9755 25.7685 16.965 25.6005 17.0895 25.2098L24.0629 18.1769C24.5168 17.9386 24.7712 17.9434 25.2251 18.1769L32.2629 25.2098C32.4985 25.6117 32.4928 25.8294 32.2629 26.2051L30.2613 28.1292Z" fill="white" fill-opacity="0.08"/>
<path d="M19.1622 30.079L20.6557 31.5297L19.7571 32.464L24.7582 37.5425L29.8295 32.4027L24.6993 27.325L23.8007 28.2593L22.3072 26.8087L24.2328 24.8065C24.6351 24.6175 24.8611 24.5869 25.2658 24.8002L32.3449 31.9229C32.4616 32.3588 32.473 32.5268 32.3506 32.9181L25.418 39.9934C24.9655 40.2345 24.711 40.2313 24.2558 40.0005L17.1775 33.0105C16.9396 32.6101 16.944 32.3924 17.1717 32.0153L19.1622 30.079Z" fill="white" fill-opacity="0.08"/>
<g clip-path="url(#clip0)">
<path d="M69.5865 35.4996C69.9254 31.85 70.8613 28.2808 72.357 24.9346C72.7738 24.0034 73.2326 23.0927 73.7334 22.2025C73.7585 22.1559 73.7646 22.1014 73.7503 22.0505C73.736 21.9996 73.7025 21.9562 73.6568 21.9295C73.6111 21.9028 73.5569 21.8949 73.5055 21.9074C73.4541 21.92 73.4096 21.952 73.3814 21.9967C71.5603 25.2391 70.2844 28.7587 69.605 32.4149C69.4159 33.4359 69.2739 34.4641 69.1788 35.4996C69.1546 35.7607 69.5625 35.7591 69.5865 35.4996Z" fill="#E6E6E6"/>
<path d="M74.7209 22.8564C76.1471 22.8564 77.3032 21.7002 77.3032 20.2741C77.3032 18.8479 76.1471 17.6918 74.7209 17.6918C73.2948 17.6918 72.1386 18.8479 72.1386 20.2741C72.1386 21.7002 73.2948 22.8564 74.7209 22.8564Z" fill="#E6E6E6"/>
<path d="M69.8506 35.5681C70.0704 33.2005 70.6776 30.885 71.648 28.7142C71.9184 28.1101 72.216 27.5192 72.5409 26.9417C72.5572 26.9115 72.5611 26.8762 72.5518 26.8431C72.5426 26.8101 72.5208 26.7819 72.4912 26.7646C72.4616 26.7473 72.4264 26.7422 72.393 26.7503C72.3597 26.7584 72.3308 26.7792 72.3125 26.8082C71.1311 28.9117 70.3034 31.195 69.8626 33.567C69.7399 34.2294 69.6478 34.8964 69.5861 35.5681C69.5704 35.7376 69.835 35.7365 69.8506 35.5681Z" fill="#E6E6E6"/>
<path d="M73.1816 27.3659C74.1068 27.3659 74.8568 26.6159 74.8568 25.6907C74.8568 24.7655 74.1068 24.0154 73.1816 24.0154C72.2564 24.0154 71.5063 24.7655 71.5063 25.6907C71.5063 26.6159 72.2564 27.3659 73.1816 27.3659Z" fill="#E6E6E6"/>
<path d="M69.5167 35.41C68.2338 33.4079 67.2885 31.2088 66.7183 28.9003C66.56 28.2576 66.4313 27.6087 66.3322 26.9535C66.3265 26.9197 66.3078 26.8894 66.2802 26.8691C66.2526 26.8487 66.2181 26.8399 66.1841 26.8445C66.1501 26.849 66.1192 26.8666 66.0979 26.8935C66.0766 26.9205 66.0666 26.9546 66.07 26.9887C66.4323 29.3739 67.1841 31.6834 68.2954 33.8248C68.6061 34.4225 68.9437 35.0051 69.3082 35.5727C69.4 35.7159 69.608 35.5523 69.5167 35.41Z" fill="#E6E6E6"/>
<path d="M66.0679 27.2483C66.9931 27.2483 67.7432 26.4983 67.7432 25.5731C67.7432 24.6478 66.9931 23.8978 66.0679 23.8978C65.1427 23.8978 64.3927 24.6478 64.3927 25.5731C64.3927 26.4983 65.1427 27.2483 66.0679 27.2483Z" fill="#E6E6E6"/>
<path d="M64.3739 36.8922V33.6007C64.3742 33.2735 64.5044 32.9597 64.7358 32.7283C64.9672 32.4969 65.2809 32.3668 65.6082 32.3664H73.2883C73.6156 32.3668 73.9293 32.4969 74.1607 32.7283C74.3921 32.9597 74.5223 33.2735 74.5226 33.6007V36.8922C74.5223 37.2194 74.3921 37.5332 74.1607 37.7646C73.9293 37.996 73.6156 38.1261 73.2883 38.1265H65.6082C65.2809 38.1261 64.9672 37.996 64.7358 37.7646C64.5044 37.5332 64.3742 37.2194 64.3739 36.8922Z" fill="#F2F2F2"/>
<path d="M93.8602 38.1265H90.5687C90.2414 38.1261 89.9277 37.996 89.6963 37.7646C89.4649 37.5332 89.3347 37.2194 89.3344 36.8922V23.4519C89.3347 23.1247 89.4649 22.8109 89.6963 22.5795C89.9277 22.3481 90.2414 22.218 90.5687 22.2176H93.8602C94.1874 22.218 94.5012 22.3481 94.7326 22.5795C94.964 22.8109 95.0941 23.1247 95.0945 23.4519V36.8922C95.0941 37.2194 94.964 37.5332 94.7326 37.7646C94.5012 37.996 94.1874 38.1261 93.8602 38.1265Z" fill="#F2F2F2"/>
<path d="M94.9573 24.8234H89.4715V25.9205H94.9573V24.8234Z" fill="#CCCCCC"/>
<path d="M94.9573 33.3264H89.4715V34.4236H94.9573V33.3264Z" fill="#CCCCCC"/>
<path d="M102.089 38.1265H98.7975C98.4702 38.1261 98.1565 37.996 97.9251 37.7646C97.6937 37.5332 97.5635 37.2194 97.5631 36.8922V23.4519C97.5635 23.1247 97.6937 22.8109 97.9251 22.5795C98.1565 22.3481 98.4702 22.218 98.7975 22.2176H102.089C102.416 22.218 102.73 22.3481 102.961 22.5795C103.193 22.8109 103.323 23.1247 103.323 23.4519V36.8922C103.323 37.2194 103.193 37.5332 102.961 37.7646C102.73 37.996 102.416 38.1261 102.089 38.1265Z" fill="#F2F2F2"/>
<path d="M103.186 24.8234H97.7003V25.9205H103.186V24.8234Z" fill="#CCCCCC"/>
<path d="M103.186 33.3264H97.7003V34.4236H103.186V33.3264Z" fill="#CCCCCC"/>
<path d="M110.318 38.1265H107.026C106.699 38.1261 106.385 37.996 106.154 37.7646C105.922 37.5332 105.792 37.2194 105.792 36.8922V23.4519C105.792 23.1247 105.922 22.8109 106.154 22.5795C106.385 22.3481 106.699 22.218 107.026 22.2176H110.318C110.645 22.218 110.959 22.3481 111.19 22.5795C111.421 22.8109 111.552 23.1247 111.552 23.4519V36.8922C111.552 37.2194 111.421 37.5332 111.19 37.7646C110.959 37.996 110.645 38.1261 110.318 38.1265Z" fill="#F2F2F2"/>
<path d="M111.415 24.8234H105.929V25.9205H111.415V24.8234Z" fill="#CCCCCC"/>
<path d="M111.415 33.3264H105.929V34.4236H111.415V33.3264Z" fill="#CCCCCC"/>
<path d="M72.1912 60.3441H68.8997C68.5724 60.3437 68.2587 60.2136 68.0273 59.9822C67.7959 59.7508 67.6657 59.437 67.6654 59.1098V45.6695C67.6657 45.3423 67.7959 45.0285 68.0273 44.7971C68.2587 44.5657 68.5724 44.4356 68.8997 44.4352H72.1912C72.5184 44.4356 72.8322 44.5657 73.0636 44.7971C73.295 45.0285 73.4251 45.3423 73.4255 45.6695V59.1098C73.4251 59.437 73.295 59.7508 73.0636 59.9822C72.8322 60.2136 72.5184 60.3437 72.1912 60.3441Z" fill="#F2F2F2"/>
<path d="M73.2883 47.041H67.8025V48.1381H73.2883V47.041Z" fill="#CCCCCC"/>
<path d="M73.2883 55.544H67.8025V56.6412H73.2883V55.544Z" fill="#CCCCCC"/>
<path d="M80.4199 60.3441H77.1284C76.8012 60.3437 76.4874 60.2136 76.256 59.9822C76.0246 59.7508 75.8945 59.437 75.8941 59.1098V45.6695C75.8945 45.3423 76.0246 45.0285 76.256 44.7971C76.4874 44.5657 76.8012 44.4356 77.1284 44.4352H80.4199C80.7472 44.4356 81.0609 44.5657 81.2923 44.7971C81.5237 45.0285 81.6539 45.3423 81.6542 45.6695V59.1098C81.6539 59.437 81.5237 59.7508 81.2923 59.9822C81.0609 60.2136 80.7472 60.3437 80.4199 60.3441Z" fill="#F2F2F2"/>
<path d="M81.5171 47.041H76.0312V48.1381H81.5171V47.041Z" fill="#CCCCCC"/>
<path d="M81.5171 55.544H76.0312V56.6412H81.5171V55.544Z" fill="#CCCCCC"/>
<path d="M88.6487 60.3441H85.3572C85.0299 60.3437 84.7162 60.2136 84.4848 59.9822C84.2534 59.7508 84.1232 59.437 84.1229 59.1098V45.6695C84.1232 45.3423 84.2534 45.0285 84.4848 44.7971C84.7162 44.5657 85.0299 44.4356 85.3572 44.4352H88.6487C88.9759 44.4356 89.2896 44.5657 89.521 44.7971C89.7524 45.0285 89.8826 45.3423 89.883 45.6695V59.1098C89.8826 59.437 89.7524 59.7508 89.521 59.9822C89.2896 60.2136 88.9759 60.3437 88.6487 60.3441Z" fill="#F2F2F2"/>
<path d="M89.7458 47.041H84.26V48.1381H89.7458V47.041Z" fill="#CCCCCC"/>
<path d="M89.7458 55.544H84.26V56.6412H89.7458V55.544Z" fill="#CCCCCC"/>
<path d="M134.713 38.5379H56.5404C56.4676 38.5379 56.3979 38.509 56.3464 38.4576C56.295 38.4062 56.2661 38.3364 56.2661 38.2636C56.2661 38.1909 56.295 38.1211 56.3464 38.0697C56.3979 38.0182 56.4676 37.9893 56.5404 37.9893H134.713C134.786 37.9893 134.856 38.0182 134.907 38.0697C134.959 38.1211 134.988 38.1909 134.988 38.2636C134.988 38.3364 134.959 38.4062 134.907 38.4576C134.856 38.509 134.786 38.5379 134.713 38.5379Z" fill="#CCCCCC"/>
<path d="M134.713 60.7555H56.5404C56.4676 60.7555 56.3979 60.7266 56.3464 60.6752C56.295 60.6238 56.2661 60.554 56.2661 60.4812C56.2661 60.4085 56.295 60.3387 56.3464 60.2873C56.3979 60.2358 56.4676 60.207 56.5404 60.207H134.713C134.786 60.207 134.856 60.2358 134.907 60.2873C134.959 60.3387 134.988 60.4085 134.988 60.4812C134.988 60.554 134.959 60.6238 134.907 60.6752C134.856 60.7266 134.786 60.7555 134.713 60.7555Z" fill="#CCCCCC"/>
<path d="M130.084 103.814C130.084 101.694 122.102 99.9743 112.255 99.9743C102.408 99.9743 94.4261 101.694 94.4261 103.814C94.4261 105.174 97.7078 106.367 102.655 107.05V128.089C102.655 128.562 102.843 129.016 103.177 129.35C103.511 129.684 103.965 129.872 104.438 129.872C104.911 129.872 105.364 129.684 105.698 129.35C106.033 129.016 106.221 128.562 106.221 128.089V107.428C108.106 107.575 110.137 107.655 112.255 107.655C114.373 107.655 116.404 107.575 118.289 107.428V128.089C118.289 128.562 118.477 129.016 118.812 129.35C119.146 129.684 119.599 129.872 120.072 129.872C120.545 129.872 120.999 129.684 121.333 129.35C121.667 129.016 121.855 128.562 121.855 128.089V107.05C126.802 106.367 130.084 105.174 130.084 103.814Z" fill="#CCCCCC"/>
<path d="M126.653 126.423H130.016L131.616 113.452H126.653L126.653 126.423Z" fill="#A0616A"/>
<path d="M136.502 129.545L125.933 129.545L125.933 125.462L132.418 125.462C133.501 125.461 134.54 125.892 135.305 126.657C136.071 127.423 136.502 128.462 136.502 129.545L136.502 129.545Z" fill="#2F2E41"/>
<path d="M131.903 124.546L135.111 123.539L132.754 110.684L128.019 112.17L131.903 124.546Z" fill="#A0616A"/>
<path d="M142.234 124.576L132.15 127.741L130.927 123.845L137.115 121.903C138.149 121.579 139.268 121.678 140.228 122.18C141.188 122.681 141.91 123.543 142.234 124.576Z" fill="#2F2E41"/>
<path d="M129.653 118.576L123.501 102.428C122.121 102.752 110.548 105.313 106.671 101.186C105.343 99.7713 105.084 97.7219 105.901 95.0944L108.163 92.2516L108.234 92.2554C109.089 92.3004 129.199 93.4275 130.578 99.4936C131.74 104.608 133.863 114.142 134.486 116.943C134.549 117.233 134.506 117.536 134.364 117.797C134.222 118.058 133.991 118.259 133.714 118.364L131.24 119.292C131.102 119.344 130.956 119.371 130.809 119.371C130.558 119.371 130.314 119.295 130.107 119.153C129.901 119.011 129.743 118.81 129.653 118.576Z" fill="#2F2E41"/>
<path d="M126.087 120.496L119.936 104.348C118.555 104.672 106.982 107.233 103.105 103.106C101.777 101.691 101.518 99.6419 102.335 97.0145L104.597 94.1716L104.668 94.1754C105.523 94.2204 125.633 95.3476 127.012 101.414C128.174 106.528 130.297 116.062 130.92 118.863C130.983 119.153 130.94 119.456 130.798 119.717C130.656 119.978 130.426 120.179 130.148 120.285L127.674 121.212C127.536 121.264 127.39 121.291 127.243 121.291C126.992 121.291 126.748 121.215 126.542 121.073C126.335 120.931 126.177 120.73 126.087 120.496Z" fill="#2F2E41"/>
<path d="M134.4 81.7872C134.31 81.9087 134.228 82.0373 134.158 82.1716L120.63 83.5969L118.682 80.9269L114.269 83.3392L118.094 89.8183L134.685 85.588C135.103 85.9961 135.636 86.2671 136.213 86.3649C136.789 86.4628 137.381 86.3829 137.911 86.1358C138.441 85.8887 138.883 85.4862 139.179 84.9817C139.474 84.4773 139.609 83.8949 139.565 83.3119C139.522 82.729 139.302 82.1731 138.934 81.7182C138.567 81.2634 138.07 80.9311 137.51 80.7655C136.949 80.6 136.351 80.6091 135.796 80.7916C135.24 80.9741 134.754 81.3213 134.4 81.7872V81.7872Z" fill="#A0616A"/>
<path d="M102.248 97.8671C102.063 97.7337 101.919 97.5516 101.831 97.3411C101.742 97.1306 101.714 96.8998 101.749 96.6743C102.513 91.643 101.635 84.4357 100.763 79.2753C100.585 78.2282 100.655 77.154 100.966 76.1386C101.278 75.1232 101.823 74.1949 102.557 73.428C103.292 72.6611 104.196 72.077 105.198 71.7225C106.199 71.3679 107.269 71.2527 108.323 71.3862C109.239 71.5073 110.148 71.6863 111.042 71.9222C112.527 72.2962 113.841 73.1644 114.767 74.3841C115.693 75.6038 116.177 77.1024 116.139 78.6335C116.008 83.613 117.019 89.8261 117.46 92.2661C117.49 92.4337 117.486 92.6057 117.446 92.7714C117.407 92.9371 117.334 93.0929 117.232 93.2291C117.131 93.3638 117.004 93.4762 116.858 93.5588C116.712 93.6415 116.55 93.6927 116.383 93.7091C111.498 94.2076 106.23 96.5897 103.525 97.9651C103.351 98.0548 103.159 98.1019 102.963 98.1026C102.706 98.1017 102.456 98.0193 102.248 97.8671Z" fill="#FF6B6B"/>
<path d="M115.434 84.8899C115.283 84.8306 115.145 84.742 115.029 84.6291C114.912 84.5162 114.819 84.3814 114.755 84.2323L112.031 77.9394C111.866 77.5592 111.778 77.1502 111.771 76.7358C111.764 76.3215 111.839 75.9098 111.991 75.5244C112.144 75.1389 112.371 74.7873 112.659 74.4896C112.947 74.1919 113.292 73.954 113.672 73.7893C114.052 73.6247 114.461 73.5367 114.876 73.5302C115.29 73.5237 115.702 73.599 116.087 73.7517C116.472 73.9044 116.824 74.1315 117.121 74.4201C117.419 74.7087 117.656 75.0531 117.821 75.4336L120.545 81.7265C120.674 82.0269 120.679 82.3665 120.559 82.6708C120.439 82.975 120.202 83.2191 119.902 83.3495L116.378 84.8749C116.23 84.9398 116.07 84.9745 115.907 84.9771C115.745 84.9797 115.584 84.9501 115.434 84.8899H115.434Z" fill="#FF6B6B"/>
<path d="M121.509 81.2386C121.418 81.3601 121.337 81.4887 121.266 81.623L107.738 83.0483L105.791 80.3783L101.377 82.7906L105.202 89.2697L121.793 85.0394C122.212 85.4475 122.745 85.7185 123.321 85.8164C123.897 85.9142 124.49 85.8343 125.02 85.5872C125.549 85.3401 125.991 84.9376 126.287 84.4332C126.582 83.9287 126.717 83.3463 126.674 82.7633C126.63 82.1804 126.41 81.6245 126.043 81.1696C125.676 80.7148 125.179 80.3825 124.618 80.217C124.057 80.0514 123.459 80.0605 122.904 80.243C122.349 80.4255 121.862 80.7728 121.509 81.2386V81.2386Z" fill="#A0616A"/>
<path d="M102.542 85.1642C102.391 85.1049 102.253 85.0163 102.137 84.9034C102.02 84.7905 101.927 84.6557 101.863 84.5066L99.1394 78.2137C98.9744 77.8335 98.886 77.4245 98.8792 77.0101C98.8724 76.5957 98.9474 76.1841 99.0998 75.7987C99.2521 75.4132 99.479 75.0616 99.7673 74.7639C100.056 74.4662 100.4 74.2282 100.78 74.0636C101.161 73.899 101.57 73.8109 101.984 73.8045C102.398 73.798 102.81 73.8733 103.195 74.026C103.581 74.1787 103.932 74.4058 104.229 74.6944C104.527 74.983 104.765 75.3274 104.929 75.7079L107.653 82.0008C107.783 82.3012 107.788 82.6408 107.667 82.9451C107.547 83.2493 107.311 83.4934 107.011 83.6238L103.487 85.1492C103.338 85.2141 103.178 85.2488 103.016 85.2514C102.854 85.254 102.693 85.2244 102.542 85.1642H102.542Z" fill="#FF6B6B"/>
<path d="M107.821 69.2454C111.542 69.2454 114.558 66.2292 114.558 62.5085C114.558 58.7878 111.542 55.7716 107.821 55.7716C104.101 55.7716 101.085 58.7878 101.085 62.5085C101.085 66.2292 104.101 69.2454 107.821 69.2454Z" fill="#A0616A"/>
<path d="M103.005 67.1322C102.976 67.0476 102.967 66.9576 102.978 66.8689C102.989 66.7802 103.021 66.6954 103.07 66.6207C103.119 66.5461 103.184 66.4837 103.261 66.4383C103.338 66.3929 103.425 66.3658 103.514 66.3589C103.696 66.3688 103.875 66.4156 104.039 66.4965C104.203 66.5773 104.348 66.6906 104.467 66.8293C104.711 67.1104 104.995 67.3542 105.31 67.5527C105.636 67.7169 106.078 67.6935 106.263 67.3803C106.438 67.0862 106.318 66.6924 106.213 66.3508C105.944 65.4817 105.794 64.5803 105.766 63.671C105.735 62.656 105.878 61.5968 106.44 60.8052C107.165 59.7835 108.462 59.3956 109.689 59.4237C110.917 59.4519 112.124 59.8307 113.339 60.0702C113.759 60.1528 114.252 60.1951 114.533 59.8699C114.831 59.524 114.722 58.9643 114.595 58.4974C114.266 57.2857 113.916 56.033 113.151 55.0544C112.323 54.0376 111.141 53.3721 109.843 53.1919C108.596 53.0375 107.33 53.1812 106.15 53.6111C104.227 54.2173 102.535 55.3961 101.3 56.99C100.027 58.6851 99.4765 60.8153 99.7696 62.9148C100.056 64.7434 101.025 66.3954 102.481 67.5378L103.005 67.1322Z" fill="#2F2E41"/>
<path d="M77.2817 83.3507C77.6206 79.7011 78.5566 76.1319 80.0522 72.7857C80.4691 71.8545 80.9279 70.9438 81.4286 70.0536C81.4538 70.007 81.4598 69.9525 81.4455 69.9016C81.4312 69.8507 81.3977 69.8073 81.352 69.7806C81.3064 69.7539 81.2521 69.746 81.2007 69.7585C81.1493 69.771 81.1048 69.803 81.0766 69.8478C79.2555 73.0902 77.9797 76.6098 77.3002 80.266C77.1112 81.287 76.9691 82.3152 76.874 83.3507C76.8498 83.6118 77.2577 83.6102 77.2817 83.3507Z" fill="#3F3D56"/>
<path d="M82.4162 70.7075C83.8423 70.7075 84.9985 69.5513 84.9985 68.1252C84.9985 66.699 83.8423 65.5429 82.4162 65.5429C80.99 65.5429 79.8339 66.699 79.8339 68.1252C79.8339 69.5513 80.99 70.7075 82.4162 70.7075Z" fill="#FF6B6B"/>
<path d="M77.5459 83.4193C77.7657 81.0516 78.3729 78.7361 79.3432 76.5653C79.6137 75.9612 79.9113 75.3703 80.2362 74.7928C80.2525 74.7626 80.2564 74.7273 80.2471 74.6942C80.2378 74.6612 80.2161 74.633 80.1865 74.6157C80.1568 74.5984 80.1217 74.5933 80.0883 74.6014C80.055 74.6095 80.0261 74.6303 80.0078 74.6593C78.8263 76.7628 77.9987 79.0462 77.5579 81.4181C77.4352 82.0805 77.3431 82.7475 77.2814 83.4193C77.2657 83.5887 77.5303 83.5876 77.5459 83.4193Z" fill="#3F3D56"/>
<path d="M80.8769 75.217C81.8021 75.217 82.5521 74.467 82.5521 73.5418C82.5521 72.6166 81.8021 71.8665 80.8769 71.8665C79.9516 71.8665 79.2016 72.6166 79.2016 73.5418C79.2016 74.467 79.9516 75.217 80.8769 75.217Z" fill="#FF6B6B"/>
<path d="M77.2121 83.2611C75.9292 81.259 74.9838 79.0599 74.4136 76.7514C74.2553 76.1087 74.1266 75.4598 74.0275 74.8046C74.0218 74.7708 74.0032 74.7405 73.9755 74.7202C73.9479 74.6998 73.9134 74.691 73.8794 74.6956C73.8454 74.7001 73.8145 74.7177 73.7932 74.7446C73.7719 74.7716 73.7619 74.8057 73.7653 74.8398C74.1276 77.225 74.8794 79.5345 75.9907 81.6758C76.3014 82.2735 76.639 82.8562 77.0035 83.4238C77.0953 83.567 77.3033 83.4034 77.2121 83.2611Z" fill="#3F3D56"/>
<path d="M73.7632 75.0994C74.6884 75.0994 75.4385 74.3494 75.4385 73.4242C75.4385 72.499 74.6884 71.7489 73.7632 71.7489C72.838 71.7489 72.088 72.499 72.088 73.4242C72.088 74.3494 72.838 75.0994 73.7632 75.0994Z" fill="#FF6B6B"/>
<path d="M72.0692 84.7433V81.4518C72.0695 81.1246 72.1997 80.8108 72.4311 80.5794C72.6625 80.348 72.9762 80.2179 73.3035 80.2175H80.9836C81.3109 80.2179 81.6246 80.348 81.856 80.5794C82.0874 80.8108 82.2176 81.1246 82.2179 81.4518V84.7433C82.2176 85.0705 82.0874 85.3843 81.856 85.6157C81.6246 85.8471 81.3109 85.9772 80.9836 85.9776H73.3035C72.9762 85.9772 72.6625 85.8471 72.4311 85.6157C72.1997 85.3843 72.0695 85.0705 72.0692 84.7433Z" fill="#CCCCCC"/>
<path d="M140.918 83.7912H119.249C118.719 83.7912 118.289 84.221 118.289 84.7512C118.289 85.2814 118.719 85.7112 119.249 85.7112H140.918C141.449 85.7112 141.878 85.2814 141.878 84.7512C141.878 84.221 141.449 83.7912 140.918 83.7912Z" fill="#CCCCCC"/>
<path d="M155.456 85.7112H131.044C130.571 85.7107 130.118 85.5226 129.784 85.1884C129.45 84.8542 129.262 84.401 129.261 83.9283V70.488C129.262 70.0153 129.45 69.5622 129.784 69.2279C130.118 68.8937 130.571 68.7057 131.044 68.7051H155.456C155.929 68.7057 156.382 68.8937 156.716 69.2279C157.05 69.5622 157.238 70.0153 157.239 70.488V83.9283C157.238 84.401 157.05 84.8542 156.716 85.1884C156.382 85.5226 155.929 85.7107 155.456 85.7112Z" fill="#CCCCCC"/>
<path d="M143.25 78.8539C144.159 78.8539 144.896 78.1171 144.896 77.2082C144.896 76.2992 144.159 75.5624 143.25 75.5624C142.341 75.5624 141.604 76.2992 141.604 77.2082C141.604 78.1171 142.341 78.8539 143.25 78.8539Z" fill="white"/>
<path d="M217.583 103.814C217.583 101.694 209.601 99.9743 199.754 99.9743C189.907 99.9743 181.925 101.694 181.925 103.814C181.925 105.174 185.207 106.367 190.154 107.05V128.089C190.154 128.562 190.342 129.016 190.676 129.35C191.01 129.684 191.464 129.872 191.937 129.872C192.409 129.872 192.863 129.684 193.197 129.35C193.532 129.016 193.72 128.562 193.72 128.089V107.428C195.604 107.575 197.636 107.655 199.754 107.655C201.872 107.655 203.903 107.575 205.788 107.428V128.089C205.788 128.562 205.976 129.016 206.311 129.35C206.645 129.684 207.098 129.872 207.571 129.872C208.044 129.872 208.498 129.684 208.832 129.35C209.166 129.016 209.354 128.562 209.354 128.089V107.05C214.301 106.367 217.583 105.174 217.583 103.814Z" fill="#CCCCCC"/>
<path d="M201.725 68.666C205.967 68.666 209.406 65.2275 209.406 60.9859C209.406 56.7442 205.967 53.3057 201.725 53.3057C197.484 53.3057 194.045 56.7442 194.045 60.9859C194.045 65.2275 197.484 68.666 201.725 68.666Z" fill="#2F2E41"/>
<path d="M182.613 126.697H179.25L177.65 113.726H182.613L182.613 126.697Z" fill="#FFB8B8"/>
<path d="M176.848 125.736H183.333V129.819H172.765C172.765 129.283 172.87 128.752 173.075 128.257C173.281 127.761 173.581 127.311 173.961 126.932C174.34 126.553 174.79 126.252 175.285 126.047C175.781 125.841 176.312 125.736 176.848 125.736Z" fill="#2F2E41"/>
<path d="M177.363 124.82L174.155 123.813L176.512 110.959L181.247 112.444L177.363 124.82Z" fill="#FFB8B8"/>
<path d="M172.151 122.177L178.339 124.119L177.116 128.015L167.032 124.851C167.193 124.339 167.453 123.864 167.797 123.453C168.141 123.041 168.563 122.702 169.038 122.454C169.513 122.206 170.033 122.053 170.567 122.006C171.101 121.958 171.639 122.017 172.151 122.177Z" fill="#2F2E41"/>
<path d="M178.457 119.645C178.31 119.645 178.164 119.618 178.026 119.566L175.552 118.639C175.275 118.534 175.044 118.332 174.902 118.071C174.76 117.81 174.717 117.507 174.78 117.217C175.403 114.416 177.526 104.882 178.688 99.7678C180.067 93.7018 200.177 92.5747 201.032 92.5297L201.103 92.5259L203.365 95.3687C204.182 97.9962 203.923 100.046 202.595 101.46C198.718 105.587 187.145 103.026 185.765 102.702L179.613 118.85C179.523 119.084 179.365 119.285 179.159 119.427C178.952 119.569 178.708 119.645 178.457 119.645Z" fill="#2F2E41"/>
<path d="M182.023 121.565C181.876 121.565 181.73 121.538 181.592 121.486L179.118 120.559C178.84 120.454 178.61 120.252 178.468 119.991C178.326 119.73 178.283 119.427 178.346 119.137C178.969 116.336 181.092 106.802 182.254 101.688C183.633 95.6219 203.743 94.4947 204.598 94.4497L204.668 94.4459L206.931 97.2888C207.748 99.9162 207.489 101.966 206.161 103.38C202.284 107.507 190.711 104.946 189.33 104.622L183.179 120.77C183.089 121.004 182.931 121.205 182.724 121.347C182.518 121.489 182.274 121.565 182.023 121.565Z" fill="#2F2E41"/>
<path d="M174.866 82.0614C174.956 82.183 175.038 82.3116 175.108 82.4459L188.636 83.8712L190.584 81.2012L194.997 83.6135L191.172 90.0926L174.581 85.8623C174.163 86.2704 173.63 86.5414 173.053 86.6392C172.477 86.7371 171.885 86.6571 171.355 86.4101C170.825 86.163 170.383 85.7605 170.087 85.256C169.792 84.7516 169.657 84.1692 169.701 83.5862C169.744 83.0032 169.964 82.4474 170.332 81.9925C170.699 81.5376 171.196 81.2054 171.756 81.0398C172.317 80.8743 172.915 80.8834 173.47 81.0659C174.026 81.2484 174.512 81.5956 174.866 82.0614Z" fill="#FFB8B8"/>
<path d="M206.303 98.3768C206.107 98.3762 205.915 98.3291 205.741 98.2394C203.036 96.8639 197.768 94.4818 192.883 93.9833C192.716 93.9669 192.554 93.9157 192.408 93.8331C192.262 93.7504 192.135 93.6381 192.034 93.5033C191.932 93.3671 191.859 93.2113 191.82 93.0456C191.78 92.88 191.776 92.7079 191.806 92.5403C192.247 90.1004 193.258 83.8873 193.127 78.9077C193.089 77.3767 193.573 75.8781 194.499 74.6584C195.425 73.4387 196.739 72.5705 198.224 72.1964C199.118 71.9606 200.027 71.7816 200.943 71.6605C201.997 71.527 203.067 71.6422 204.068 71.9967C205.07 72.3513 205.974 72.9354 206.709 73.7023C207.443 74.4692 207.988 75.3975 208.3 76.4129C208.612 77.4283 208.681 78.5025 208.503 79.5495C207.631 84.7099 206.753 91.9173 207.517 96.9485C207.552 97.174 207.524 97.4048 207.436 97.6154C207.347 97.8259 207.203 98.0079 207.018 98.1414C206.81 98.2935 206.56 98.376 206.303 98.3768Z" fill="#FF6B6B"/>
<path d="M193.378 85.2515C193.209 85.2513 193.042 85.2165 192.888 85.1492L189.364 83.6237C189.064 83.4934 188.827 83.2493 188.707 82.9451C188.587 82.6408 188.592 82.3012 188.721 82.0008L191.445 75.7079C191.61 75.3274 191.847 74.983 192.145 74.6944C192.442 74.4058 192.794 74.1787 193.179 74.026C193.564 73.8733 193.976 73.798 194.39 73.8045C194.805 73.811 195.214 73.899 195.594 74.0636C195.974 74.2283 196.319 74.4662 196.607 74.7639C196.895 75.0616 197.122 75.4132 197.275 75.7987C197.427 76.1841 197.502 76.5958 197.495 77.0101C197.488 77.4245 197.4 77.8335 197.235 78.2137L194.511 84.5066C194.415 84.7276 194.257 84.9158 194.055 85.0481C193.854 85.1805 193.619 85.2512 193.378 85.2515Z" fill="#FF6B6B"/>
<path d="M201.445 69.5197C205.165 69.5197 208.181 66.5035 208.181 62.7828C208.181 59.0621 205.165 56.0459 201.445 56.0459C197.724 56.0459 194.708 59.0621 194.708 62.7828C194.708 66.5035 197.724 69.5197 201.445 69.5197Z" fill="#FFB8B8"/>
<path d="M194.586 59.4729C197.778 61.4209 201.375 62.6062 205.099 62.9368L203.991 61.609C204.798 61.9074 205.647 62.076 206.506 62.1085C207.365 62.0952 208.265 61.7646 208.752 61.0575C208.969 60.7061 209.098 60.3072 209.128 59.8951C209.158 59.4829 209.088 59.0696 208.923 58.6905C208.586 57.9343 208.06 57.277 207.397 56.7814C206.22 55.851 204.833 55.2261 203.356 54.9623C201.88 54.6985 200.362 54.804 198.936 55.2693C197.958 55.5616 197.083 56.1233 196.409 56.8902C195.771 57.6781 194.541 58.3801 194.868 59.3401L194.586 59.4729Z" fill="#2F2E41"/>
<path d="M202.577 54.0362C200.453 51.8815 197.881 50.2188 195.044 49.165C193.224 48.4904 191.242 48.0736 189.338 48.4567C187.434 48.8398 185.634 50.1568 185.103 52.0247C184.668 53.552 185.117 55.1965 185.791 56.6343C186.465 58.072 187.365 59.4053 187.91 60.8967C188.466 62.4185 188.633 64.0551 188.396 65.6579C188.159 67.2607 187.526 68.779 186.554 70.0749C185.581 71.3708 184.3 72.4034 182.828 73.0788C181.355 73.7542 179.737 74.0512 178.12 73.9426C179.991 74.1934 181.715 75.0724 183.543 75.5403C185.372 76.0082 187.53 75.9765 188.888 74.6667C190.326 73.2808 190.355 71.0276 190.285 69.032L189.975 60.1327C189.922 58.6198 189.877 57.0585 190.423 55.6465C190.969 54.2345 192.265 52.998 193.779 53.0109C194.926 53.0206 195.941 53.7156 196.862 54.401C197.782 55.0864 198.755 55.8176 199.898 55.9196C201.041 56.0215 202.346 55.1758 202.26 54.0318" fill="#2F2E41"/>
<path d="M171.262 77.0997L186.774 77.4659L189.022 94.0485L174.696 94.3699L171.262 77.0997Z" fill="#E6E6E6"/>
<path d="M187.757 81.5129C187.848 81.6344 187.929 81.763 188 81.8973L201.528 83.3226L203.475 80.6526L207.889 83.0649L204.064 89.544L187.473 85.3137C187.054 85.7218 186.522 85.9928 185.945 86.0907C185.369 86.1885 184.776 86.1086 184.247 85.8615C183.717 85.6144 183.275 85.2119 182.979 84.7074C182.684 84.203 182.549 83.6206 182.592 83.0376C182.636 82.4546 182.856 81.8988 183.223 81.4439C183.59 80.9891 184.087 80.6568 184.648 80.4912C185.209 80.3257 185.807 80.3348 186.362 80.5173C186.917 80.6998 187.404 81.047 187.757 81.5129V81.5129Z" fill="#FFB8B8"/>
<path d="M206.269 85.5259C206.101 85.5256 205.934 85.4908 205.779 85.4236L202.255 83.8981C201.955 83.7677 201.719 83.5236 201.599 83.2194C201.478 82.9151 201.483 82.5755 201.613 82.2751L204.337 75.9822C204.501 75.6017 204.739 75.2573 205.037 74.9687C205.334 74.6801 205.685 74.453 206.071 74.3003C206.456 74.1476 206.868 74.0723 207.282 74.0788C207.696 74.0853 208.105 74.1733 208.486 74.3379C208.866 74.5026 209.21 74.7405 209.499 75.0382C209.787 75.3359 210.014 75.6875 210.166 76.073C210.319 76.4584 210.394 76.8701 210.387 77.2844C210.38 77.6988 210.292 78.1078 210.127 78.488L207.403 84.7809C207.307 85.0019 207.148 85.1901 206.947 85.3225C206.746 85.4548 206.51 85.5255 206.269 85.5259Z" fill="#FF6B6B"/>
<path d="M174.382 85.4369H65.214C64.7412 85.4369 64.2877 85.6247 63.9533 85.9591C63.619 86.2935 63.4311 86.7469 63.4311 87.2198C63.4311 87.6927 63.619 88.1461 63.9533 88.4805C64.2877 88.8149 64.7412 89.0027 65.214 89.0027H68.3684V127.815C68.3684 128.288 68.5562 128.741 68.8906 129.076C69.2249 129.41 69.6784 129.598 70.1513 129.598C70.6241 129.598 71.0776 129.41 71.412 129.076C71.7463 128.741 71.9342 128.288 71.9342 127.815V92.4286L91.9221 128.656C92.159 129.065 92.5483 129.363 93.0046 129.484C93.4608 129.606 93.9468 129.542 94.3558 129.306C94.7647 129.07 95.0633 128.681 95.186 128.225C95.3087 127.769 95.2454 127.283 95.0101 126.874L74.1158 89.0027H169.582V89.0258L148.7 126.874C148.464 127.283 148.4 127.77 148.522 128.226C148.645 128.683 148.943 129.072 149.353 129.309C149.762 129.545 150.249 129.609 150.706 129.487C151.162 129.365 151.552 129.066 151.788 128.656L169.582 96.4058V127.815C169.582 128.288 169.77 128.741 170.104 129.076C170.438 129.41 170.892 129.598 171.365 129.598C171.838 129.598 172.291 129.41 172.625 129.076C172.96 128.741 173.148 128.288 173.148 127.815V89.9428L173.666 89.0027H174.382C174.855 89.0027 175.308 88.8149 175.643 88.4805C175.977 88.1461 176.165 87.6927 176.165 87.2198C176.165 86.7469 175.977 86.2935 175.643 85.9591C175.308 85.6247 174.855 85.4369 174.382 85.4369Z" fill="#3F3D56"/>
<path d="M241.834 130H39.3266C39.2401 130 39.1573 129.965 39.0963 129.904C39.0352 129.843 39.0009 129.76 39.0009 129.673C39.0009 129.587 39.0352 129.504 39.0963 129.443C39.1573 129.382 39.2401 129.347 39.3266 129.347H241.834C241.921 129.347 242.004 129.381 242.065 129.442C242.126 129.504 242.161 129.587 242.161 129.673C242.161 129.76 242.126 129.843 242.065 129.904C242.004 129.966 241.921 130 241.834 130Z" fill="#3F3D56"/>
</g>
<defs>
<clipPath id="clip0">
<rect width="203.161" height="130" fill="white" transform="translate(39)"/>
</clipPath>
</defs>
</svg>
